<?xml version="1.0" standalone="no"?>
<!DOCTYPE svg PUBLIC "-//W3C//DTD SVG 1.1//EN" "http://www.w3.org/Graphics/SVG/1.1/DTD/svg11.dtd" >
<svg xmlns="http://www.w3.org/2000/svg" xmlns:xlink="http://www.w3.org/1999/xlink" version="1.1">
<metadata>
Created by FontForge 20170731 at Mon Jan 30 19:22:46 2017
 By Aleksey,,,
Copyright 2012 The Encode Project Authors (impallari@gmail.com), with Reserved Font Name "Encode Sans".
</metadata>
<defs>
<font id="EncodeSans-Medium" horiz-adv-x="1186" >
  <font-face 
    font-family="Encode Sans Medium"
    font-weight="500"
    font-stretch="normal"
    units-per-em="2000"
    panose-1="0 0 6 0 0 0 0 0 0 0"
    ascent="1600"
    descent="-400"
    x-height="1088"
    cap-height="1480"
    bbox="-958 -476 2687 2157"
    underline-thickness="50"
    underline-position="-150"
    unicode-range="U+000D-FB02"
  />
<missing-glyph horiz-adv-x="1028" 
d="M843 1616v-2056h-652v2056h652zM685 1478h-340v-68h134v-76h-136v-68h342v68h-136v76h136v68zM549 1213h-206v-214h342v70h-136v144zM479 1143v-74h-68v74h68zM685 944h-342v-68h136v-76h-136v-68h206v144h136v68zM685 820h-68v-135h-274v-70h342v205zM685 569h-206v-115
h70v48h68v-97h-206v164h-68v-232h342v232zM685 214h-342v-233h342v233zM617 146v-97h-206v97h206zM685 -66h-342v-68h144l-144 -96v-68h342v68h-210l144 96h66v68z" />
    <glyph glyph-name="fi" unicode="fi" horiz-adv-x="1234" 
d="M321.5 1531q105.5 105 303.5 105q83 0 147 -14v-169q-55 12 -121 12q-116 0 -172 -53.5t-56 -170.5v-153h326v-168h-326v-920h-207v920h-196v168h196v142q0 196 105.5 301zM1091 1510q35 -32 35 -90t-35 -89t-102 -31t-102 31t-35 89t35 90t102 32t102 -32zM884 0v1088
h209v-1088h-209z" />
    <glyph glyph-name="fl" unicode="fl" horiz-adv-x="1234" 
d="M321.5 1531q105.5 105 303.5 105q83 0 147 -14v-169q-55 12 -121 12q-116 0 -172 -53.5t-56 -170.5v-153h326v-168h-326v-920h-207v920h-196v168h196v142q0 196 105.5 301zM884 1616h208v-1616h-208v1616z" />
    <glyph glyph-name="f_j" unicode="fj" horiz-adv-x="1234" 
d="M423 920v-920h-207v920h-196v168h196v142q0 196 105.5 301t303.5 105q83 0 147 -14v-169q-55 12 -121 12q-116 0 -172 -53.5t-56 -170.5v-153h326v-168h-326zM1089 1514q35 -32 35 -90t-35 -89t-102 -31t-102 31t-35 89t35 90t102 32t102 -32zM884 1088h209v-906
q0 -193 -56.5 -344t-187.5 -304l-137 92q93 125 132.5 250.5t39.5 295.5v916z" />
    <glyph glyph-name=".notdef" horiz-adv-x="1028" 
d="M843 1616v-2056h-652v2056h652zM685 1478h-340v-68h134v-76h-136v-68h342v68h-136v76h136v68zM549 1213h-206v-214h342v70h-136v144zM479 1143v-74h-68v74h68zM685 944h-342v-68h136v-76h-136v-68h206v144h136v68zM685 820h-68v-135h-274v-70h342v205zM685 569h-206v-115
h70v48h68v-97h-206v164h-68v-232h342v232zM685 214h-342v-233h342v233zM617 146v-97h-206v97h206zM685 -66h-342v-68h144l-144 -96v-68h342v68h-210l144 96h66v68z" />
    <glyph glyph-name=".null" horiz-adv-x="0" 
 />
    <glyph glyph-name="nonmarkingreturn" unicode="&#xd;" horiz-adv-x="493" 
 />
    <glyph glyph-name="NULL" horiz-adv-x="0" 
 />
    <glyph glyph-name="NULL" horiz-adv-x="0" 
 />
    <glyph glyph-name="space" unicode=" " horiz-adv-x="493" 
 />
    <glyph glyph-name="exclam" unicode="!" horiz-adv-x="530" 
d="M201 402l-47 530v548h221v-548l-44 -530h-130zM161 21.5q-39 35.5 -39 95.5q0 61 39 96.5t104 35.5t104 -36.5t39 -95.5t-39.5 -95t-103.5 -36q-65 0 -104 35.5z" />
    <glyph glyph-name="quotedbl" unicode="&#x22;" horiz-adv-x="802" 
d="M155 894l-43 722h212l-43 -722h-126zM521 894l-43 722h212l-43 -722h-126z" />
    <glyph glyph-name="numbersign" unicode="#" 
d="M1086 878h-200l-28 -276h228v-164h-245l-46 -438h-166l46 438h-225l-46 -438h-166l46 438h-184v164h201l28 276h-229v164h246l46 438h166l-46 -438h225l46 438h166l-46 -438h183v-164zM692 602l28 276h-225l-28 -276h225z" />
    <glyph glyph-name="dollar" unicode="$" horiz-adv-x="1090" 
d="M924 137.5q-98 -107.5 -280 -141.5v-236h-196v221q-88 2 -180 17t-173 42v178q91 -30 189.5 -45.5t184.5 -15.5q175 0 258 61t83 180q0 67 -26.5 111.5t-84.5 75.5t-160 58l-90 23q-192 49 -286.5 148.5t-94.5 261.5q0 165 96 270.5t284 138.5v235h196v-221
q83 -2 163.5 -13t146.5 -30v-177q-73 21 -155 32.5t-161 11.5q-358 0 -358 -235q0 -65 23.5 -108.5t77.5 -74t148 -55.5l89 -23q209 -53 306.5 -152.5t97.5 -262.5q0 -167 -98 -274.5z" />
    <glyph glyph-name="percent" unicode="%" horiz-adv-x="1919" 
d="M194 687q-96 114 -96 349t95.5 349t262.5 114t263 -114t96 -349t-96 -349t-263 -114q-166 0 -262 114zM543 0l657 1480h177l-658 -1480h-176zM595.5 787.5q49.5 74.5 49.5 247.5q0 174 -49.5 249t-139.5 75q-89 0 -138.5 -74.5t-49.5 -247.5t49.5 -248.5t138.5 -75.5
q90 0 139.5 74.5zM1200 96q-96 114 -96 349t96 349t263 114t263 -114t96 -349t-96 -349t-263 -114t-263 114zM1602 196.5q49 74.5 49 247.5q0 174 -49.5 249t-138.5 75t-139 -75t-50 -247q0 -173 50 -248.5t139 -75.5q90 0 139 74.5z" />
    <glyph glyph-name="ampersand" unicode="&#x26;" horiz-adv-x="1530" 
d="M1428 -20l-258 188q-77 -92 -200.5 -139t-286.5 -47q-181 0 -305.5 52.5t-187.5 147.5t-63 222q0 131 65.5 230.5t180.5 157.5q-52 66 -74 132t-22 142q0 208 139.5 320.5t415.5 112.5q128 0 250 -27v-178q-111 29 -238 29q-186 0 -270.5 -66t-84.5 -194q0 -60 19 -108
t66 -100t134 -119l403 -294q9 51 9 111q0 62 -10.5 131t-29.5 134h174q38 -131 38 -264q0 -122 -32 -221l270 -197zM1036 267l-429 313q-76 55 -132 105q-136 -92 -136 -259q0 -134 92 -210t274 -76q227 0 331 127z" />
    <glyph glyph-name="quotesingle" unicode="'" horiz-adv-x="436" 
d="M155 894l-43 722h212l-43 -722h-126z" />
    <glyph glyph-name="parenleft" unicode="(" horiz-adv-x="677" 
d="M119 588q0 617 340 1028h221q-180 -225 -263.5 -479.5t-83.5 -548.5t83.5 -548.5t263.5 -479.5h-221q-340 411 -340 1028z" />
    <glyph glyph-name="parenright" unicode=")" horiz-adv-x="677" 
d="M260 39q83 254 83 549t-83 549t-263 479h221q340 -411 340 -1028t-340 -1028h-221q180 225 263 479z" />
    <glyph glyph-name="asterisk" unicode="*" horiz-adv-x="945" 
d="M550 1169l137 -143l99 -136l-120 -86l-98 135l-95 179l-95 -179l-99 -135l-119 86l99 136l136 143l-193 35l-172 55l46 140l171 -56l179 -87l-27 198v162h147v-162l-27 -198l180 87l171 56l45 -140l-172 -55z" />
    <glyph glyph-name="plus" unicode="+" horiz-adv-x="1082" 
d="M455 346v332h-316v164h316v332h172v-332h316v-164h-316v-332h-172z" />
    <glyph glyph-name="comma" unicode="," horiz-adv-x="490" 
d="M349.5 214.5q37.5 -44.5 37.5 -133.5q0 -106 -31.5 -211.5t-85.5 -193.5h-121q37 90 57 164.5t25 146.5q-58 4 -93.5 40.5t-35.5 95.5q0 63 37.5 99.5t101.5 36.5q71 0 108.5 -44.5z" />
    <glyph glyph-name="hyphen" unicode="-" horiz-adv-x="858" 
d="M139 477v173h580v-173h-580z" />
    <glyph glyph-name="period" unicode="." horiz-adv-x="490" 
d="M141 22.5q-39 36.5 -39 99.5t39 100t104 37t104 -37.5t39 -99.5q0 -61 -39.5 -98.5t-103.5 -37.5q-65 0 -104 36.5z" />
    <glyph glyph-name="slash" unicode="/" horiz-adv-x="668" 
d="M0 -240l462 1856h206l-463 -1856h-205z" />
    <glyph glyph-name="zero" unicode="0" horiz-adv-x="1276" 
d="M109 740q0 395 136.5 577t392.5 182t393 -182t137 -577q0 -759 -530 -759q-529 0 -529 759zM811.5 213q70.5 54 108.5 181.5t38 343.5q0 218 -38 346.5t-108.5 182.5t-173.5 54t-173 -54t-108 -181.5t-38 -343.5q0 -218 37.5 -346.5t107.5 -182.5t174 -54q103 0 173.5 54
z" />
    <glyph glyph-name="one" unicode="1" horiz-adv-x="760" 
d="M457 1485h135v-1485h-212v1226l-355 -251v203z" />
    <glyph glyph-name="two" unicode="2" horiz-adv-x="1013" 
d="M952 179v-179h-895v115l417 545q104 135 147.5 230.5t43.5 184.5q0 129 -73.5 188.5t-229.5 59.5q-174 0 -323 -58v178q66 25 159.5 40.5t183.5 15.5q243 0 368 -98.5t125 -305.5q0 -120 -49.5 -235.5t-171.5 -271.5l-318 -409h616z" />
    <glyph glyph-name="three" unicode="3" horiz-adv-x="1034" 
d="M885.5 643.5q80.5 -93.5 80.5 -239.5q0 -202 -140.5 -312.5t-412.5 -110.5q-194 0 -364 55v166q85 -27 178.5 -41.5t179.5 -14.5q180 0 268.5 68t88.5 201q0 260 -349 260h-189v167h118q185 0 277.5 66.5t92.5 192.5q0 114 -76.5 173.5t-229.5 59.5q-171 0 -327 -56v167
q72 25 165 39.5t182 14.5q239 0 364.5 -99t125.5 -283q0 -128 -70 -218.5t-195 -129.5q152 -32 232.5 -125.5z" />
    <glyph glyph-name="four" unicode="4" horiz-adv-x="1209" 
d="M1170 508v-168h-203v-340h-193v340h-730v117l558 1023h208l-526 -972h490l24 472h169v-472h203z" />
    <glyph glyph-name="five" unicode="5" horiz-adv-x="1045" 
d="M735 802q133 -52 195 -144.5t62 -231.5q0 -218 -140.5 -331.5t-411.5 -113.5q-191 0 -365 57v166q86 -27 179.5 -41.5t180.5 -14.5q180 0 267.5 68t87.5 205q0 91 -44 149t-148 90.5t-286 42.5l-184 11l50 766h754v-169h-565l-30 -441l52 -3q213 -13 346 -65z" />
    <glyph glyph-name="six" unicode="6" horiz-adv-x="1181" 
d="M903 815q104 -48 162 -145.5t58 -242.5q0 -142 -58.5 -242.5t-165 -152t-246.5 -51.5q-252 0 -393 171t-141 541q0 408 167 607t487 199q169 0 280 -44v-170q-117 45 -272 45q-227 0 -339.5 -137t-115.5 -432q63 48 152 75t183 27q138 0 242 -48zM853.5 211.5
q74.5 69.5 74.5 209.5q0 143 -80 212.5t-224 69.5q-79 0 -158 -25t-139 -75q6 -171 47 -272.5t111 -145t170 -43.5q124 0 198.5 69.5z" />
    <glyph glyph-name="seven" unicode="7" horiz-adv-x="964" 
d="M12 1480h894v-115l-524 -1365h-218l511 1301h-663v179z" />
    <glyph glyph-name="eight" unicode="8" horiz-adv-x="1276" 
d="M1113.5 609q67.5 -89 67.5 -220q0 -122 -62 -214t-182.5 -143t-291.5 -51q-181 0 -304.5 47t-185 134.5t-61.5 208.5q0 128 71.5 226t204.5 152q-121 62 -176 149.5t-55 206.5t59 208t173.5 137.5t274.5 48.5q152 0 262 -45t168.5 -129.5t58.5 -199.5q0 -120 -60.5 -212
t-184.5 -152q156 -63 223.5 -152zM419 1282.5q-77 -61.5 -77 -169.5q0 -75 32 -126.5t111 -91.5t223 -76l23 -6q115 55 166.5 124.5t51.5 169.5q0 115 -79.5 176t-226.5 61t-224 -61.5zM895.5 198.5q85.5 62.5 85.5 178.5q0 75 -33.5 125.5t-112 88.5t-218.5 72
q-54 13 -97 27q-111 -43 -168.5 -121t-57.5 -177q0 -125 89 -190.5t263 -65.5q164 0 249.5 62.5z" />
    <glyph glyph-name="nine" unicode="9" horiz-adv-x="1181" 
d="M921 1328q141 -171 141 -541q0 -408 -167 -607t-487 -199q-169 0 -280 44v170q117 -45 272 -45q227 0 339.5 137t115.5 432q-63 -48 -152 -75t-183 -27q-138 0 -242 48t-162 145.5t-58 242.5q0 142 58.5 242.5t165 152t246.5 51.5q252 0 393 -171zM333 846.5
q80 -69.5 224 -69.5q79 0 158 25t139 75q-6 171 -47 272.5t-111 145t-170 43.5q-124 0 -198.5 -69.5t-74.5 -209.5q0 -143 80 -212.5z" />
    <glyph glyph-name="colon" unicode=":" horiz-adv-x="490" 
d="M141 22.5q-39 36.5 -39 99.5t39 100t104 37t104 -37.5t39 -99.5q0 -61 -39.5 -98.5t-103.5 -37.5q-65 0 -104 36.5zM141 865.5q-39 36.5 -39 99.5t39 100t104 37t104 -37.5t39 -99.5q0 -61 -39.5 -98.5t-103.5 -37.5q-65 0 -104 36.5z" />
    <glyph glyph-name="semicolon" unicode=";" horiz-adv-x="490" 
d="M349.5 214.5q37.5 -44.5 37.5 -133.5q0 -106 -31.5 -211.5t-85.5 -193.5h-121q37 90 57 164.5t25 146.5q-58 4 -93.5 40.5t-35.5 95.5q0 63 37.5 99.5t101.5 36.5q71 0 108.5 -44.5zM141 865.5q-39 36.5 -39 99.5t39 100t104 37t104 -37.5t39 -99.5q0 -61 -39.5 -98.5
t-103.5 -37.5q-65 0 -104 36.5z" />
    <glyph glyph-name="less" unicode="&#x3c;" horiz-adv-x="1082" 
d="M943 1185v-169l-639 -255l639 -257v-169l-804 329v192z" />
    <glyph glyph-name="equal" unicode="=" horiz-adv-x="1082" 
d="M139 882v165h804v-165h-804zM139 473v165h804v-165h-804z" />
    <glyph glyph-name="greater" unicode="&#x3e;" horiz-adv-x="1082" 
d="M139 1185l804 -329v-192l-804 -329v169l639 257l-639 255v169z" />
    <glyph glyph-name="question" unicode="?" horiz-adv-x="929" 
d="M316 786q134 37 211 81.5t109.5 100.5t32.5 132q0 113 -77 171.5t-230 58.5q-173 0 -326 -55v170q72 25 165 39.5t183 14.5q239 0 364 -99.5t125 -284.5q0 -159 -89 -261.5t-285 -172.5l-17 -289h-130zM313 22q-39 36 -39 95q0 61 39 96.5t104 35.5t104 -36.5t39 -95.5
t-39 -95t-104 -36t-104 36z" />
    <glyph glyph-name="at" unicode="@" horiz-adv-x="1973" 
d="M1649.5 1266q225.5 -232 224.5 -695q0 -304 -105 -446.5t-283 -142.5q-98 0 -163 37.5t-96 109.5h-14q-45 -73 -126.5 -110t-180.5 -37q-104 0 -179.5 36.5t-116 104.5t-40.5 161q0 147 97.5 227.5t307.5 99.5l233 24v65q0 88 -28.5 139t-85.5 72t-150 21q-66 0 -143 -13
t-149 -39l1 165q69 25 156 38.5t167 13.5q150 0 245 -38.5t143 -127t48 -238.5v-419q0 -78 28.5 -112.5t86.5 -34.5q87 0 140 101.5t52 335.5q0 278 -81 452t-241 255.5t-404 81.5q-245 0 -405 -84.5t-241 -268t-81 -478.5q0 -300 83 -484t251.5 -268.5t432.5 -84.5
q201 0 414 56v-146q-200 -55 -414 -55q-461 1 -697.5 240t-236.5 740q0 496 230 737t664 241q431 0 656.5 -232zM1096.5 165q64.5 28 111.5 85v258l-216 -23q-111 -12 -162.5 -55.5t-51.5 -124.5q0 -83 48.5 -125.5t139.5 -42.5q66 0 130.5 28z" />
    <glyph glyph-name="A" unicode="A" horiz-adv-x="1380" 
d="M1144 0l-154 453h-603l-154 -453h-209l514 1480h303l515 -1480h-212zM446 628h484l-242 711z" />
    <glyph glyph-name="B" unicode="B" horiz-adv-x="1281" 
d="M1139.5 644q75.5 -92 75.5 -238q0 -139 -68 -232t-217 -140.5t-390 -47.5q-184 0 -382 25v1442q210 43 428 43q305 0 446 -98t141 -301q0 -124 -63.5 -212.5t-190.5 -120.5q145 -28 220.5 -120zM365 1314v-473h268q180 0 259.5 60t79.5 186q0 89 -36 142.5t-115.5 79
t-211.5 25.5q-135 0 -244 -20zM842.5 177q93.5 29 133.5 87t40 150q0 135 -85 198t-269 63h-297v-514q97 -13 224 -13q160 0 253.5 29z" />
    <glyph glyph-name="C" unicode="C" horiz-adv-x="1177" 
d="M279.5 161q-180.5 180 -180.5 576q0 387 184.5 574.5t531.5 187.5q164 0 319 -41v-180q-146 41 -307 41q-169 0 -281 -57.5t-169 -185t-57 -335.5q0 -214 57.5 -341.5t166.5 -183t273 -55.5q80 0 156.5 12.5t160.5 40.5v-180q-156 -53 -335 -53q-339 0 -519.5 180z" />
    <glyph glyph-name="D" unicode="D" horiz-adv-x="1429" 
d="M158 9v1444q96 20 203.5 31t207.5 11q380 0 571 -186t191 -569q0 -389 -199.5 -571t-605.5 -182q-184 0 -368 22zM875.5 223q118.5 59 178 186t59.5 332q0 302 -131 440t-401 138q-96 0 -211 -18v-1126q88 -11 204 -11q183 0 301.5 59z" />
    <glyph glyph-name="E" unicode="E" horiz-adv-x="1193" 
d="M367 175h753v-175h-962v1480h952v-175h-743v-459h644v-175h-644v-496z" />
    <glyph glyph-name="F" unicode="F" horiz-adv-x="1151" 
d="M1104 1302h-734v-474h636v-178h-636v-650h-212v1480h946v-178z" />
    <glyph glyph-name="G" unicode="G" horiz-adv-x="1371" 
d="M1227 720v-704q-180 -30 -343 -30q-393 0 -589 183t-196 568q-1 387 196.5 574.5t562.5 187.5q168 0 333 -42v-180q-157 42 -317 42q-182 0 -304.5 -58t-186 -186.5t-63.5 -338.5q0 -201 61 -327t182 -185t306 -59q82 0 160 8v547h198z" />
    <glyph glyph-name="H" unicode="H" horiz-adv-x="1469" 
d="M158 0v1480h212v-627h729v627h212v-1480h-212v664h-729v-664h-212z" />
    <glyph glyph-name="I" unicode="I" horiz-adv-x="528" 
d="M158 0v1480h212v-1480h-212z" />
    <glyph glyph-name="J" unicode="J" horiz-adv-x="528" 
d="M-14 -253q93 126 133 251.5t40 294.5v1187h211v-1200q-5 -184 -61 -329.5t-185 -295.5z" />
    <glyph glyph-name="K" unicode="K" horiz-adv-x="1265" 
d="M1060 0l-492 664h-198v-664h-212v1480h212v-627h200l455 627h228l-521 -717l563 -763h-235z" />
    <glyph glyph-name="L" unicode="L" horiz-adv-x="1094" 
d="M158 0v1480h212v-1299h713v-181h-925z" />
    <glyph glyph-name="M" unicode="M" horiz-adv-x="1795" 
d="M1379 1480h254v-1480h-199v1181l-446 -973h-182l-446 959v-1167h-198v1480h254l485 -1058z" />
    <glyph glyph-name="N" unicode="N" horiz-adv-x="1491" 
d="M1133 1480h200v-1480h-215l-760 1157v-1157h-200v1480h215l760 -1157v1157z" />
    <glyph glyph-name="O" unicode="O" horiz-adv-x="1476" 
d="M398 62q-143 81 -221 250.5t-78 427.5t78.5 427.5t221.5 250.5t339 81q197 0 340 -81t221 -250.5t78 -427.5t-78.5 -427.5t-221.5 -250.5t-339 -81q-197 0 -340 81zM1050 294.5q109 136.5 109 439.5q0 311 -109.5 449.5t-311.5 138.5t-311.5 -136t-109.5 -440
q0 -312 109 -450t312 -138t312 136.5z" />
    <glyph glyph-name="P" unicode="P" horiz-adv-x="1258" 
d="M158 1456q205 40 401 40q308 0 461.5 -125t153.5 -388q0 -515 -625 -515q-92 0 -179 7v-475h-212v1456zM867.5 717.5q98.5 83.5 98.5 262.5q0 182 -95.5 266t-294.5 84q-109 0 -206 -17v-667q88 -12 183 -12q216 0 314.5 83.5z" />
    <glyph glyph-name="Q" unicode="Q" horiz-adv-x="1476" 
d="M1246 223q-131 -189 -385 -218q212 -61 493 -89l-35 -172q-469 61 -734 182.5t-375.5 315.5t-110.5 494q0 260 78.5 430.5t221.5 251.5t339 81t339 -80.5t221.5 -250t78.5 -428.5q0 -328 -131 -517zM425.5 295.5q108.5 -137.5 312.5 -137.5q203 0 312 136.5t109 439.5
q0 311 -109.5 449.5t-311.5 138.5t-311.5 -136t-109.5 -440q0 -313 108.5 -450.5z" />
    <glyph glyph-name="R" unicode="R" horiz-adv-x="1329" 
d="M1053 0l-434 591q-20 -1 -61 -1q-82 0 -192 7v-597h-208v1453q213 43 415 43q303 0 450.5 -109.5t147.5 -339.5q1 -167 -87 -274.5t-257 -151.5l460 -621h-234zM366 764q107 -9 195 -9q213 0 311.5 70t98.5 220q0 102 -40 165.5t-123.5 93t-216.5 29.5q-64 0 -115.5 -5
t-109.5 -15v-549z" />
    <glyph glyph-name="S" unicode="S" horiz-adv-x="1090" 
d="M280.5 -3.5q-98.5 15.5 -185.5 45.5v178q92 -31 191 -47t189 -16q335 0 335 241q0 67 -26.5 111.5t-84.5 75.5t-160 58l-90 23q-192 49 -286.5 148.5t-94.5 261.5q0 133 62 227.5t186 145t306 50.5q90 0 176 -11.5t156 -33.5v-177q-152 46 -323 46q-351 0 -351 -235
q0 -65 23.5 -108.5t77.5 -74t148 -55.5l89 -23q209 -53 306.5 -152.5t97.5 -262.5q0 -135 -64.5 -232t-187.5 -148t-296 -51q-95 0 -193.5 15.5z" />
    <glyph glyph-name="T" unicode="T" horiz-adv-x="1208" 
d="M498 0v1299h-485v181h1182v-181h-485v-1299h-212z" />
    <glyph glyph-name="U" unicode="U" horiz-adv-x="1440" 
d="M289.5 125.5q-138.5 144.5 -138.5 450.5v904h211v-926q0 -206 87 -300t273 -94t273 94t87 300v926h207v-904q0 -306 -137 -450.5t-430 -144.5q-294 0 -432.5 144.5z" />
    <glyph glyph-name="V" unicode="V" horiz-adv-x="1347" 
d="M1132 1480h208l-511 -1480h-311l-510 1480h222l449 -1321z" />
    <glyph glyph-name="W" unicode="W" horiz-adv-x="2162" 
d="M1912 1480h202l-408 -1480h-275l-347 1248l-354 -1248h-274l-409 1480h216l344 -1287l358 1287h242l354 -1294z" />
    <glyph glyph-name="X" unicode="X" horiz-adv-x="1309" 
d="M778 761l530 -761h-238l-418 600l-419 -600h-235l531 758l-507 722h239l393 -561l394 561h233z" />
    <glyph glyph-name="Y" unicode="Y" horiz-adv-x="1208" 
d="M1236 1480l-525 -832v-648h-212v647l-537 833h229l419 -648l412 648h214z" />
    <glyph glyph-name="Z" unicode="Z" horiz-adv-x="1179" 
d="M336 180h782v-180h-1058v117l771 1183h-760v180h1036v-117z" />
    <glyph glyph-name="bracketleft" unicode="[" horiz-adv-x="677" 
d="M178 -440v2056h533v-168h-325v-1720h322v-168h-530z" />
    <glyph glyph-name="backslash" unicode="\" horiz-adv-x="670" 
d="M464 -240l-464 1856h207l463 -1856h-206z" />
    <glyph glyph-name="bracketright" unicode="]" horiz-adv-x="677" 
d="M-31 -440v168h322v1720h-326v168h534v-2056h-530z" />
    <glyph glyph-name="asciicircum" unicode="^" 
d="M1100 740h-208l-299 562l-299 -562h-207l401 740h209z" />
    <glyph glyph-name="underscore" unicode="_" horiz-adv-x="1148" 
d="M91 -169v169h966v-169h-966z" />
    <glyph glyph-name="grave" unicode="`" horiz-adv-x="1088" 
d="M449 1247l-252 369h223l219 -369h-190z" />
    <glyph glyph-name="a" unicode="a" horiz-adv-x="1055" 
d="M732.5 1066q96.5 -39 144.5 -129t48 -244v-693h-173l-15 118h-12q-51 -66 -131 -101t-175 -35q-104 0 -179.5 36.5t-116 105t-40.5 160.5q0 148 99 229t313 99l226 23v69q0 91 -28.5 142t-87 72.5t-154.5 21.5q-67 0 -144.5 -11.5t-149.5 -35.5v164q70 23 158 35.5
t168 12.5q153 0 249.5 -39zM609 162.5q63 27.5 112 85.5v257l-209 -21q-116 -12 -168.5 -56t-52.5 -124q0 -83 47.5 -126t140.5 -43q67 0 130 27.5z" />
    <glyph glyph-name="b" unicode="b" horiz-adv-x="1159" 
d="M316 -5.5q-95 13.5 -175 39.5v1582h208v-639h11q50 60 126 94t169 34q120 0 213.5 -56t149 -176.5t55.5 -307.5q0 -291 -143 -437.5t-425 -146.5q-94 0 -189 13.5zM777 240.5q85 95.5 85 306.5q0 210 -72.5 296t-204.5 86q-69 0 -131 -26.5t-105 -79.5v-656
q83 -22 170 -22q173 0 258 95.5z" />
    <glyph glyph-name="c" unicode="c" horiz-adv-x="900" 
d="M86 543q0 288 138.5 425t406.5 137q123 0 228 -27v-172q-106 26 -202 26q-123 0 -200.5 -38.5t-116 -123t-38.5 -223.5q0 -210 79.5 -301.5t242.5 -91.5q103 0 235 42v-172q-126 -44 -267 -44q-506 0 -506 563z" />
    <glyph glyph-name="d" unicode="d" horiz-adv-x="1159" 
d="M297.5 37q-97.5 56 -154.5 177t-57 308q0 290 142.5 436.5t421.5 146.5q73 0 160 -13v524h208v-1616h-176l-14 117h-12q-50 -63 -126 -99.5t-170 -36.5q-125 0 -222.5 56zM705.5 184.5q62.5 28.5 104.5 86.5v652q-76 17 -163 17q-177 0 -263 -95t-86 -306
q0 -210 72 -296.5t204 -86.5q69 0 131.5 28.5z" />
    <glyph glyph-name="e" unicode="e" horiz-adv-x="1053" 
d="M981 479h-684q4 -122 42.5 -195t114.5 -106t199 -33q117 0 273 41v-164q-158 -42 -299 -42q-275 0 -408 135t-133 430q0 276 120.5 418t339.5 142q212 0 323.5 -141.5t111.5 -424.5v-60zM362.5 880.5q-62.5 -81.5 -66.5 -269.5h489q-4 188 -63.5 269.5t-177.5 81.5
q-119 0 -181.5 -81.5z" />
    <glyph glyph-name="f" unicode="f" horiz-adv-x="743" 
d="M481.5 1410.5q-58.5 -54.5 -58.5 -177.5v-145h326v-168h-326v-920h-207v920h-196v168h196v135q0 201 108.5 307t316.5 106q77 0 151 -12v-170q-59 11 -126 11q-126 0 -184.5 -54.5z" />
    <glyph glyph-name="g" unicode="g" horiz-adv-x="1159" 
d="M321 -448q-88 12 -163 35v170q168 -51 319 -51q116 0 189 31t108.5 100t35.5 184v95h-11q-51 -60 -126 -94t-169 -34q-118 0 -212 55.5t-150 175t-56 303.5q0 289 143.5 435.5t427.5 147.5q92 0 187.5 -14t173.5 -39v-996q0 -182 -58 -296t-174 -167t-295 -53
q-82 0 -170 12zM704.5 189q62.5 27 105.5 80v652q-82 20 -170 20q-171 0 -256.5 -95.5t-85.5 -304.5q0 -208 72 -293.5t204 -85.5q68 0 130.5 27z" />
    <glyph glyph-name="h" unicode="h" horiz-adv-x="1163" 
d="M141 1616h208v-646h11q63 67 145.5 101t180.5 34q159 0 252.5 -95t93.5 -302v-708h-208v696q0 121 -53 173t-152 52q-75 0 -147.5 -31.5t-122.5 -95.5v-794h-208v1616z" />
    <glyph glyph-name="i" unicode="i" horiz-adv-x="491" 
d="M141 0v1088h209v-1088h-209zM144 1331q-35 31 -35 89t35 90t102 32t102 -32t35 -90t-35 -89t-102 -31t-102 31z" />
    <glyph glyph-name="j" unicode="j" horiz-adv-x="491" 
d="M-31 -374q93 125 132.5 250.5t39.5 295.5v916h209v-906q0 -193 -56.5 -344t-187.5 -304zM142 1335q-35 31 -35 89t35 90t102 32t102 -32t35 -90t-35 -89t-102 -31t-102 31z" />
    <glyph glyph-name="k" unicode="k" horiz-adv-x="1080" 
d="M874 0l-356 472h-169v-472h-208v1616h208v-973h167l328 445h227l-383 -527l417 -561h-231z" />
    <glyph glyph-name="l" unicode="l" horiz-adv-x="491" 
d="M141 0v1616h208v-1616h-208z" />
    <glyph glyph-name="m" unicode="m" horiz-adv-x="1726" 
d="M1505.5 1009.5q90.5 -95.5 90.5 -302.5v-707h-208v697q0 120 -49 172.5t-137 52.5q-63 0 -125.5 -28.5t-107.5 -89.5q5 -47 5 -91v-713h-204v697q0 121 -47 173t-134 52q-67 0 -131.5 -32.5t-108.5 -98.5v-791h-208v1088h174l15 -120h11q61 67 140.5 102t171.5 35
q93 0 163 -36.5t110 -114.5q71 78 157 114.5t176 36.5q156 0 246.5 -95.5z" />
    <glyph glyph-name="n" unicode="n" horiz-adv-x="1163" 
d="M141 1088h174l15 -120h11q65 66 151.5 101.5t183.5 35.5q166 0 261 -95.5t95 -302.5v-707h-208v696q0 121 -52.5 173.5t-152.5 52.5q-73 0 -146.5 -31.5t-123.5 -95.5v-795h-208v1088z" />
    <glyph glyph-name="o" unicode="o" horiz-adv-x="1138" 
d="M213.5 119.5q-127.5 139.5 -127.5 422.5q0 284 126.5 423.5t356.5 139.5t356.5 -139t126.5 -423q0 -282 -127.5 -422.5t-355.5 -140.5t-355.5 139.5zM772 235q69 91 69 305q0 218 -69 309.5t-203 91.5q-133 0 -202 -90.5t-69 -305.5q0 -218 68.5 -309.5t202.5 -91.5
t203 91z" />
    <glyph glyph-name="p" unicode="p" horiz-adv-x="1159" 
d="M141 1088h177l14 -120h11q50 64 126 100.5t170 36.5q125 0 222 -55t154.5 -176t57.5 -310q0 -290 -142.5 -436.5t-421.5 -146.5q-66 0 -160 12v-433h-208v1528zM775.5 240.5q86.5 95.5 86.5 306.5q0 210 -73 296.5t-204 86.5q-69 0 -131.5 -28.5t-104.5 -86.5v-652
q34 -8 78 -13t85 -5q177 0 263.5 95.5z" />
    <glyph glyph-name="q" unicode="q" horiz-adv-x="1159" 
d="M810 109h-11q-51 -60 -126 -94t-169 -34q-120 0 -213.5 55.5t-149 176.5t-55.5 308q0 292 143.5 438t427.5 146q92 0 187.5 -14t173.5 -39v-1492h-208v549zM704.5 183q62.5 27 105.5 80v658q-82 20 -171 20q-170 0 -255.5 -96t-85.5 -306t72.5 -296.5t203.5 -86.5
q68 0 130.5 27z" />
    <glyph glyph-name="r" unicode="r" horiz-adv-x="751" 
d="M141 1088h173l16 -145h12q51 77 133 117t176 40q45 0 88 -8v-191q-45 7 -99 7q-82 0 -162.5 -36t-128.5 -102v-770h-208v1088z" />
    <glyph glyph-name="s" unicode="s" horiz-adv-x="923" 
d="M104 25v162q156 -47 313 -47q128 0 187.5 41t59.5 119q0 64 -33.5 97.5t-113.5 50.5l-156 31q-147 29 -213.5 103t-66.5 198q0 97 50 170.5t152 114t253 40.5q142 0 266 -33v-162q-127 35 -261 35q-140 0 -202 -43.5t-62 -116.5q0 -58 32.5 -93t110.5 -52l156 -30
q149 -31 217 -102.5t68 -198.5q0 -102 -51 -176t-150.5 -113.5t-240.5 -39.5q-171 0 -315 45z" />
    <glyph glyph-name="t" unicode="t" horiz-adv-x="777" 
d="M756 173v-172q-93 -20 -178 -20q-370 0 -370 376v563h-196v168h196l36 392h172v-392h326v-168h-326v-530q0 -127 51 -180t161 -53q54 0 128 16z" />
    <glyph glyph-name="u" unicode="u" horiz-adv-x="1153" 
d="M225 76.5q-95 94.5 -95 301.5v710h208v-698q0 -120 52.5 -172.5t148.5 -52.5q72 0 144 31.5t121 94.5v797h208v-1088h-174l-15 117h-11q-65 -67 -149 -101t-178 -34q-165 0 -260 94.5z" />
    <glyph glyph-name="v" unicode="v" horiz-adv-x="1089" 
d="M871 1088h207l-401 -1088h-265l-401 1088h219l321 -901z" />
    <glyph glyph-name="w" unicode="w" horiz-adv-x="1726" 
d="M1479 1088h193l-310 -1088h-238l-259 885l-262 -885h-238l-311 1088h201l240 -867l254 867h238l249 -862z" />
    <glyph glyph-name="x" unicode="x" horiz-adv-x="1046" 
d="M646 551l393 -551h-233l-285 401l-284 -401h-229l391 548l-383 540h233l277 -389l275 389h227z" />
    <glyph glyph-name="y" unicode="y" horiz-adv-x="1089" 
d="M871 1088h207l-564 -1528h-206l164 440h-60l-401 1088h219l317 -912z" />
    <glyph glyph-name="z" unicode="z" horiz-adv-x="945" 
d="M320 168h573v-168h-830v130l561 790h-550v168h807v-130z" />
    <glyph glyph-name="braceleft" unicode="{" horiz-adv-x="717" 
d="M386 711q-40 -61 -128 -85q88 -24 128 -85.5t40 -164.5v-473q0 -100 50 -145.5t154 -45.5h121v-160q-69 -12 -149 -12q-190 0 -287 91.5t-97 270.5v484q0 78 -39.5 117t-114.5 39h-36v168h36q75 0 114.5 39t39.5 117v408q0 179 97 270.5t287 91.5q80 0 149 -12v-160h-121
q-104 0 -154 -45.5t-50 -145.5v-398q0 -103 -40 -164z" />
    <glyph glyph-name="bar" unicode="|" horiz-adv-x="506" 
d="M158 -440v2056h190v-2056h-190z" />
    <glyph glyph-name="braceright" unicode="}" horiz-adv-x="717" 
d="M689 710v-168h-36q-154 0 -154 -156v-484q0 -179 -97 -270.5t-287 -91.5q-80 0 -150 12v160h122q104 0 154 45.5t50 145.5v473q0 103 40.5 164.5t127.5 85.5q-87 24 -127.5 85t-40.5 164v398q0 100 -50 145.5t-154 45.5h-122v160q70 12 150 12q190 0 287 -91.5t97 -270.5
v-408q0 -156 154 -156h36z" />
    <glyph glyph-name="asciitilde" unicode="~" horiz-adv-x="1082" 
d="M630.5 633q-45.5 16 -111.5 48q-56 27 -91.5 40t-71.5 13q-63 0 -115.5 -26.5t-101.5 -82.5v176q80 95 217 95q50 0 95.5 -16t111.5 -48q56 -27 91.5 -40t71.5 -13q63 0 115.5 26.5t101.5 82.5v-176q-80 -95 -217 -95q-50 0 -95.5 16z" />
    <glyph glyph-name="uni00A0" unicode="&#xa0;" horiz-adv-x="493" 
 />
    <glyph glyph-name="exclamdown" unicode="&#xa1;" horiz-adv-x="530" 
d="M368.5 1064.5q39.5 -37.5 39.5 -98.5q0 -62 -39 -99.5t-104 -37.5t-104 37t-39 100t39 99.5t104 36.5q64 0 103.5 -37.5zM201 676h130l44 -525v-531h-221v531z" />
    <glyph glyph-name="cent" unicode="&#xa2;" horiz-adv-x="906" 
d="M455 893.5q-77 -38.5 -115 -123t-38 -223.5q0 -210 79.5 -301.5t242.5 -91.5q103 0 235 42v-172q-93 -32 -194 -41v-223h-180v227q-399 56 -399 556q0 482 399 550v235h180v-224q97 -3 194 -26v-172q-109 26 -204 26q-123 0 -200 -38.5z" />
    <glyph glyph-name="sterling" unicode="&#xa3;" horiz-adv-x="1290" 
d="M1221 174v-174h-1146v174h213v495h-213v162h213v199q0 234 141.5 351.5t422.5 117.5q86 0 171.5 -11.5t155.5 -31.5v-177q-73 21 -155 32.5t-161 11.5q-130 0 -210.5 -29t-119.5 -91.5t-39 -165.5v-206h504v-162h-504v-495h727z" />
    <glyph glyph-name="currency" unicode="&#xa4;" 
d="M981 461l107 -104l-112 -112l-104 107l-78 96q-85 -59 -201 -59q-115 0 -201 58l-78 -95l-103 -107l-113 112l107 104l98 80q-52 87 -52 199q0 111 52 198l-98 81l-108 104l112 112l104 -107l80 -97q86 58 200 58q113 0 201 -58l79 97l104 107l112 -112l-108 -104
l-98 -81q53 -84 53 -198q0 -113 -53 -199zM702 542q47 27 73.5 77.5t26.5 120.5q0 100 -55.5 162.5t-151.5 62.5q-62 0 -110 -27t-74.5 -78t-26.5 -120t26.5 -120t74 -78t108.5 -27q62 0 109 27z" />
    <glyph glyph-name="yen" unicode="&#xa5;" horiz-adv-x="1239" 
d="M1254 1480l-457 -720h245v-134h-316v-204h316v-134h-316v-288h-211v288h-316v134h316v204h-316v134h243l-462 720h229l416 -648l415 648h214z" />
    <glyph glyph-name="brokenbar" unicode="&#xa6;" horiz-adv-x="506" 
d="M158 836v780h190v-780h-190zM158 -440v780h190v-780h-190z" />
    <glyph glyph-name="section" unicode="&#xa7;" horiz-adv-x="1042" 
d="M829 489q68 -68 68 -183q0 -101 -50.5 -174t-151 -112.5t-246.5 -39.5q-161 0 -305 42v154q150 -42 305 -42q135 0 195.5 40.5t60.5 118.5q0 64 -34 98.5t-113 51.5l-177 36q-137 29 -203.5 101.5t-66.5 194.5q0 64 26 118.5t75 95.5q-71 70 -71 184q0 97 49.5 170
t152.5 113.5t258 40.5q137 0 258 -29v-154q-65 16 -122.5 23t-122.5 7q-150 0 -215 -43.5t-65 -116.5q0 -58 33 -93.5t110 -52.5l180 -35q141 -30 207.5 -101t66.5 -194q0 -131 -102 -219zM619 587q46 -10 78 -21q30 27 44.5 58t14.5 70q0 68 -37 106t-123 57l-177 36
q-39 8 -77 21q-56 -56 -56 -129q0 -64 36 -104t120 -58z" />
    <glyph glyph-name="dieresis" unicode="&#xa8;" horiz-adv-x="1088" 
d="M227 1334q-33 31 -33 86q0 56 33 87.5t91 31.5t91 -32t33 -87t-33 -86t-91 -31t-91 31zM679.5 1334q-32.5 31 -32.5 86q0 56 32.5 87.5t90.5 31.5t91 -31.5t33 -87.5q0 -55 -33 -86t-91 -31t-90.5 31z" />
    <glyph glyph-name="copyright" unicode="&#xa9;" horiz-adv-x="1690" 
d="M454 73q-169 95 -262 267.5t-93 399.5t93 399.5t262 267.5t391 95t391.5 -95t262.5 -267.5t93 -399.5t-93 -399.5t-262.5 -267.5t-391.5 -95t-391 95zM1172.5 181.5q139.5 78.5 214.5 222.5t75 336t-75 336t-214.5 222.5t-327.5 78.5t-327.5 -78.5t-214.5 -222.5
t-75 -336t75 -336t214.5 -222.5t327.5 -78.5t327.5 78.5zM677 371q-92 47 -142 139t-50 223q0 130 51 222t147.5 140.5t230.5 48.5q104 0 192 -26v-139q-98 24 -180 24q-138 0 -208.5 -66.5t-70.5 -200.5q0 -135 68.5 -203t192.5 -68q89 0 198 35v-139q-90 -37 -213 -37
q-124 0 -216 47z" />
    <glyph glyph-name="ordfeminine" unicode="&#xaa;" horiz-adv-x="888" 
d="M618.5 1463.5q83.5 -32.5 125 -107.5t41.5 -201v-545h-161l-15 94h-10q-43 -53 -110.5 -81.5t-146.5 -28.5q-88 0 -151.5 30.5t-97 86t-33.5 129.5q0 121 82.5 186t262.5 78l188 17v55q0 64 -23 101t-71.5 53t-129.5 16q-57 0 -121 -9.5t-124 -28.5v149q61 19 134.5 29
t143.5 10q133 0 216.5 -32.5zM506 752q49 20 87 61v200l-164 -15q-93 -9 -135 -42t-42 -94q0 -64 38.5 -97t115.5 -33q51 0 100 20z" />
    <glyph glyph-name="guillemotleft" unicode="&#xab;" horiz-adv-x="1075" 
d="M358 136l-254 428l254 428h213l-254 -428l254 -428h-213zM798 136l-254 428l254 428h213l-254 -428l254 -428h-213z" />
    <glyph glyph-name="logicalnot" unicode="&#xac;" horiz-adv-x="1333" 
d="M1030 195v483h-891v164h1064v-647h-173z" />
    <glyph glyph-name="uni00AD" unicode="&#xad;" horiz-adv-x="858" 
d="M139 477v173h580v-173h-580z" />
    <glyph glyph-name="registered" unicode="&#xae;" horiz-adv-x="1483" 
d="M1058.5 1420q138.5 -78 215.5 -218t77 -320t-77 -319.5t-215.5 -217t-317.5 -77.5t-317.5 77.5t-215.5 217t-77 319.5t77 320t215.5 218t317.5 78t317.5 -78zM1006 433q114 63 176 179t62 270t-62 270.5t-176 180t-265 63.5t-264.5 -63.5t-175.5 -180t-62 -270.5t62 -270
t175.5 -179t264.5 -63t265 63zM854 826l155 -226h-118l-145 210h-16h-94l-3 -210h-105v592h202q125 0 188.5 -49t63.5 -143q0 -135 -128 -174zM747 900q67 0 99 24.5t32 75.5q0 102 -131 102h-111v-202h111z" />
    <glyph glyph-name="macron" unicode="&#xaf;" horiz-adv-x="1088" 
d="M220 1355v134h648v-134h-648z" />
    <glyph glyph-name="degree" unicode="&#xb0;" horiz-adv-x="977" 
d="M304.5 834q-81.5 46 -127.5 127t-46 182q0 102 46 183t127.5 126.5t184.5 45.5q102 0 183.5 -45.5t127.5 -126.5t46 -183q0 -101 -46 -182t-127.5 -127t-183.5 -46q-103 0 -184.5 46zM601 948q49 27 77 77.5t28 117.5q0 68 -28 118t-77 77t-112 27t-112 -27t-77 -77
t-28 -118q0 -67 28 -117.5t77 -77.5t112 -27t112 27z" />
    <glyph glyph-name="plusminus" unicode="&#xb1;" horiz-adv-x="1082" 
d="M455 348v321h-316v165h316v321h172v-321h316v-165h-316v-321h-172zM139 0v165h804v-165h-804z" />
    <glyph glyph-name="uni00B2" unicode="&#xb2;" horiz-adv-x="808" 
d="M726 6v-142h-639v91l290 361q71 89 101.5 149.5t30.5 116.5q0 81 -50 118.5t-157 37.5q-126 0 -227 -39v140q49 18 114.5 28t134.5 10q175 0 265 -68.5t90 -211.5q-1 -79 -37 -156t-120 -180l-206 -255h410z" />
    <glyph glyph-name="uni00B3" unicode="&#xb3;" horiz-adv-x="808" 
d="M671.5 299.5q54.5 -62.5 54.5 -161.5q0 -137 -100.5 -212t-295.5 -75q-140 0 -260 36v133q60 -19 126.5 -29t126.5 -10q241 0 241 168q0 161 -228 161h-147v132h102q118 0 178 41t60 118q0 146 -209 146q-59 0 -118.5 -9.5t-110.5 -29.5v133q50 17 117 26.5t131 9.5
q173 0 263 -67.5t90 -193.5q0 -85 -47 -145.5t-130 -87.5q102 -21 156.5 -83.5z" />
    <glyph glyph-name="acute" unicode="&#xb4;" horiz-adv-x="1088" 
d="M449 1247l219 369h223l-252 -369h-190z" />
    <glyph glyph-name="uni00B5" unicode="&#xb5;" horiz-adv-x="1153" 
d="M1012 1088v-1088h-174l-15 117h-11q-58 -67 -132 -101t-157 -34q-117 0 -185 61v-483h-208v1528h208v-698q0 -120 52.5 -172.5t148.5 -52.5q72 0 144 31.5t121 94.5v797h208z" />
    <glyph glyph-name="paragraph" unicode="&#xb6;" horiz-adv-x="1258" 
d="M658 474q-63 -6 -124 -6q-450 0 -450 515q0 264 112.5 388.5t343.5 124.5q144 0 275 -16v-1480h-157v474zM944 0v1480h156v-1480h-156z" />
    <glyph glyph-name="periodcentered" unicode="&#xb7;" horiz-adv-x="490" 
d="M141 459.5q-39 36.5 -39 99.5t39 100t104 37t104 -37.5t39 -99.5q0 -61 -39.5 -98.5t-103.5 -37.5q-65 0 -104 36.5z" />
    <glyph glyph-name="cedilla" unicode="&#xb8;" horiz-adv-x="1088" 
d="M723.5 -151.5q40.5 -41.5 40.5 -108.5q0 -77 -56.5 -120.5t-163.5 -43.5q-47 0 -92.5 9t-81.5 25v94q79 -36 167 -36q55 0 82 19.5t27 60.5q0 81 -111 81h-40v191h111v-119q77 -11 117.5 -52.5z" />
    <glyph glyph-name="uni00B9" unicode="&#xb9;" horiz-adv-x="808" 
d="M531 6h212v-142h-606v142h224v665l-224 -153v156l284 194h110v-862z" />
    <glyph glyph-name="ordmasculine" unicode="&#xba;" horiz-adv-x="962" 
d="M176 708.5q-109 114.5 -109 337.5q0 224 109 337t305 113t305.5 -114t109.5 -336t-109.5 -337t-305.5 -115t-305 114.5zM644 813.5q57 69.5 57 232.5t-56.5 232t-163.5 69q-106 0 -162.5 -69t-56.5 -232t56.5 -232.5t162.5 -69.5t163 69.5z" />
    <glyph glyph-name="guillemotright" unicode="&#xbb;" horiz-adv-x="1075" 
d="M64 136l254 428l-254 428h213l254 -428l-254 -428h-213zM504 136l254 428l-254 428h213l254 -428l-254 -428h-213z" />
    <glyph glyph-name="onequarter" unicode="&#xbc;" horiz-adv-x="1920" 
d="M531 758h212v-142h-606v142h224v665l-224 -153v156l284 194h110v-862zM473 -136l797 1752h176l-796 -1752h-177zM1896 218v-133h-133v-221h-151v221h-471v94l346 685h162l-325 -646h288l31 308h120v-308h133z" />
    <glyph glyph-name="onehalf" unicode="&#xbd;" horiz-adv-x="1920" 
d="M531 758h212v-142h-606v142h224v665l-224 -153v156l284 194h110v-862zM473 -136l797 1752h176l-796 -1752h-177zM1838 6v-142h-639v91l290 361q71 89 101.5 149.5t30.5 116.5q0 81 -50 118.5t-157 37.5q-126 0 -227 -39v140q49 18 114.5 28t134.5 10q175 0 265 -68.5
t90 -211.5q-1 -79 -37 -156t-120 -180l-206 -255h410z" />
    <glyph glyph-name="threequarters" unicode="&#xbe;" horiz-adv-x="1920" 
d="M671.5 1051.5q54.5 -62.5 54.5 -161.5q0 -137 -100.5 -212t-295.5 -75q-140 0 -260 36v133q60 -19 126.5 -29t126.5 -10q241 0 241 168q0 161 -228 161h-147v132h102q118 0 178 41t60 118q0 146 -209 146q-59 0 -118.5 -9.5t-110.5 -29.5v133q50 17 117 26.5t131 9.5
q173 0 263 -67.5t90 -193.5q0 -85 -47 -145.5t-130 -87.5q102 -21 156.5 -83.5zM473 -136l797 1752h176l-796 -1752h-177zM1896 218v-133h-133v-221h-151v221h-471v94l346 685h162l-325 -646h288l31 308h120v-308h133z" />
    <glyph glyph-name="questiondown" unicode="&#xbf;" horiz-adv-x="929" 
d="M616 1066q39 -36 39 -95q0 -61 -38.5 -96.5t-104.5 -35.5q-65 0 -103.5 36t-38.5 96q0 58 39 94.5t103 36.5q65 0 104 -36zM614 302q-134 -37 -211 -81.5t-110 -99t-33 -128.5q0 -109 77 -166.5t230 -57.5q173 0 326 55v-170q-71 -25 -163.5 -39.5t-183.5 -14.5
q-239 0 -364.5 98.5t-125.5 278.5q0 156 89 258t285 172l18 289h130z" />
    <glyph glyph-name="Agrave" unicode="&#xc0;" horiz-adv-x="1380" 
d="M1144 0l-154 453h-603l-154 -453h-209l514 1480h303l515 -1480h-212zM446 628h484l-242 711zM596 1604l-213 290h222l179 -290h-188z" />
    <glyph glyph-name="Aacute" unicode="&#xc1;" horiz-adv-x="1380" 
d="M1144 0l-154 453h-603l-154 -453h-209l514 1480h303l515 -1480h-212zM446 628h484l-242 711zM595 1604l179 290h222l-212 -290h-189z" />
    <glyph glyph-name="Acircumflex" unicode="&#xc2;" horiz-adv-x="1380" 
d="M1144 0l-154 453h-603l-154 -453h-209l514 1480h303l515 -1480h-212zM446 628h484l-242 711zM1030 1604h-170l-170 205l-170 -205h-170l248 290h185z" />
    <glyph glyph-name="Atilde" unicode="&#xc3;" horiz-adv-x="1380" 
d="M1144 0l-154 453h-603l-154 -453h-209l514 1480h303l515 -1480h-212zM446 628h484l-242 711zM769 1663q-37 10 -95 30q-46 18 -79.5 27t-67.5 9q-55 0 -97 -17t-83 -54v133q34 34 78.5 51t104.5 17q44 0 83.5 -10.5t92.5 -30.5q51 -19 82 -27.5t65 -8.5q55 0 97 17t83 54
v-133q-34 -34 -78.5 -50.5t-104.5 -16.5q-44 0 -81 10z" />
    <glyph glyph-name="Adieresis" unicode="&#xc4;" horiz-adv-x="1380" 
d="M1144 0l-154 453h-603l-154 -453h-209l514 1480h303l515 -1480h-212zM446 628h484l-242 711zM357 1671q-32 29 -32 80t32 80.5t91 29.5t91.5 -29.5t32.5 -80.5t-32.5 -80t-91.5 -29t-91 29zM840.5 1671q-32.5 29 -32.5 80t32.5 80.5t91.5 29.5t91 -29.5t32 -80.5t-32 -80
t-91 -29t-91.5 29z" />
    <glyph glyph-name="Aring" unicode="&#xc5;" horiz-adv-x="1380" 
d="M1144 0l-154 453h-603l-154 -453h-209l514 1480h303l515 -1480h-212zM446 628h484l-242 711zM589 1511.5q-46 25.5 -72 70.5t-26 102t26 102t72 70.5t103 25.5t103 -25.5t72 -70.5t26 -102t-26 -102t-72 -70.5t-103 -25.5t-103 25.5zM771 1602.5q30 30.5 30 81.5
t-30 81.5t-79 30.5t-79 -30.5t-30 -81.5t30 -81.5t79 -30.5t79 30.5z" />
    <glyph glyph-name="AE" unicode="&#xc6;" horiz-adv-x="1894" 
d="M1147 175h675v-175h-871l-32 453h-527l-158 -453h-210l521 1480h1267v-175h-748l34 -459h615v-175h-602zM452 628h455l-48 677h-171z" />
    <glyph glyph-name="Ccedilla" unicode="&#xc7;" horiz-adv-x="1177" 
d="M546 1261.5q-112 -57.5 -169 -185t-57 -335.5q0 -214 57.5 -341.5t166.5 -183t273 -55.5q80 0 156.5 12.5t160.5 40.5v-180q-156 -53 -335 -53h-28v-78q86 -8 133 -49.5t47 -111.5q0 -80 -61 -123t-176 -43q-109 0 -196 35v94q93 -37 187 -37q63 0 95 19t32 61
q0 81 -129 81h-43v160q-273 34 -417 214t-144 534q0 387 184.5 574.5t531.5 187.5q164 0 319 -41v-180q-146 41 -307 41q-169 0 -281 -57.5z" />
    <glyph glyph-name="Egrave" unicode="&#xc8;" horiz-adv-x="1193" 
d="M367 175h753v-175h-962v1480h952v-175h-743v-459h644v-175h-644v-496zM562 1604l-213 290h222l179 -290h-188z" />
    <glyph glyph-name="Eacute" unicode="&#xc9;" horiz-adv-x="1193" 
d="M367 175h753v-175h-962v1480h952v-175h-743v-459h644v-175h-644v-496zM561 1604l179 290h222l-212 -290h-189z" />
    <glyph glyph-name="Ecircumflex" unicode="&#xca;" horiz-adv-x="1193" 
d="M367 175h753v-175h-962v1480h952v-175h-743v-459h644v-175h-644v-496zM996 1604h-170l-170 205l-170 -205h-170l248 290h185z" />
    <glyph glyph-name="Edieresis" unicode="&#xcb;" horiz-adv-x="1193" 
d="M367 175h753v-175h-962v1480h952v-175h-743v-459h644v-175h-644v-496zM323 1671q-32 29 -32 80t32 80.5t91 29.5t91.5 -29.5t32.5 -80.5t-32.5 -80t-91.5 -29t-91 29zM806.5 1671q-32.5 29 -32.5 80t32.5 80.5t91.5 29.5t91 -29.5t32 -80.5t-32 -80t-91 -29t-91.5 29z
" />
    <glyph glyph-name="Igrave" unicode="&#xcc;" horiz-adv-x="528" 
d="M158 0v1480h212v-1480h-212zM170 1604l-213 290h222l179 -290h-188z" />
    <glyph glyph-name="Iacute" unicode="&#xcd;" horiz-adv-x="528" 
d="M158 0v1480h212v-1480h-212zM169 1604l179 290h222l-212 -290h-189z" />
    <glyph glyph-name="Icircumflex" unicode="&#xce;" horiz-adv-x="528" 
d="M158 0v1480h212v-1480h-212zM604 1604h-170l-170 205l-170 -205h-170l248 290h185z" />
    <glyph glyph-name="Idieresis" unicode="&#xcf;" horiz-adv-x="528" 
d="M158 0v1480h212v-1480h-212zM-69 1671q-32 29 -32 80t32 80.5t91 29.5t91.5 -29.5t32.5 -80.5t-32.5 -80t-91.5 -29t-91 29zM414.5 1671q-32.5 29 -32.5 80t32.5 80.5t91.5 29.5t91 -29.5t32 -80.5t-32 -80t-91 -29t-91.5 29z" />
    <glyph glyph-name="Eth" unicode="&#xd0;" horiz-adv-x="1429" 
d="M1140 1309q191 -186 191 -569q0 -389 -199.5 -571t-605.5 -182q-184 0 -368 22v681h-155v143h155v620q96 20 203.5 31t207.5 11q380 0 571 -186zM875.5 223q118.5 59 178 186t59.5 332q0 302 -131 440t-401 138q-96 0 -211 -18v-468h313v-143h-313v-515q88 -11 204 -11
q183 0 301.5 59z" />
    <glyph glyph-name="Ntilde" unicode="&#xd1;" horiz-adv-x="1491" 
d="M1133 1480h200v-1480h-215l-760 1157v-1157h-200v1480h215l760 -1157v1157zM825 1663q-37 10 -95 30q-46 18 -79.5 27t-67.5 9q-55 0 -97 -17t-83 -54v133q34 34 78.5 51t104.5 17q44 0 83.5 -10.5t92.5 -30.5q51 -19 82 -27.5t65 -8.5q55 0 97 17t83 54v-133
q-34 -34 -78.5 -50.5t-104.5 -16.5q-44 0 -81 10z" />
    <glyph glyph-name="Ograve" unicode="&#xd2;" horiz-adv-x="1476" 
d="M398 62q-143 81 -221 250.5t-78 427.5t78.5 427.5t221.5 250.5t339 81q197 0 340 -81t221 -250.5t78 -427.5t-78.5 -427.5t-221.5 -250.5t-339 -81q-197 0 -340 81zM1050 294.5q109 136.5 109 439.5q0 311 -109.5 449.5t-311.5 138.5t-311.5 -136t-109.5 -440
q0 -312 109 -450t312 -138t312 136.5zM644 1604l-213 290h222l179 -290h-188z" />
    <glyph glyph-name="Oacute" unicode="&#xd3;" horiz-adv-x="1476" 
d="M398 62q-143 81 -221 250.5t-78 427.5t78.5 427.5t221.5 250.5t339 81q197 0 340 -81t221 -250.5t78 -427.5t-78.5 -427.5t-221.5 -250.5t-339 -81q-197 0 -340 81zM1050 294.5q109 136.5 109 439.5q0 311 -109.5 449.5t-311.5 138.5t-311.5 -136t-109.5 -440
q0 -312 109 -450t312 -138t312 136.5zM643 1604l179 290h222l-212 -290h-189z" />
    <glyph glyph-name="Ocircumflex" unicode="&#xd4;" horiz-adv-x="1476" 
d="M398 62q-143 81 -221 250.5t-78 427.5t78.5 427.5t221.5 250.5t339 81q197 0 340 -81t221 -250.5t78 -427.5t-78.5 -427.5t-221.5 -250.5t-339 -81q-197 0 -340 81zM1050 294.5q109 136.5 109 439.5q0 311 -109.5 449.5t-311.5 138.5t-311.5 -136t-109.5 -440
q0 -312 109 -450t312 -138t312 136.5zM1078 1604h-170l-170 205l-170 -205h-170l248 290h185z" />
    <glyph glyph-name="Otilde" unicode="&#xd5;" horiz-adv-x="1476" 
d="M398 62q-143 81 -221 250.5t-78 427.5t78.5 427.5t221.5 250.5t339 81q197 0 340 -81t221 -250.5t78 -427.5t-78.5 -427.5t-221.5 -250.5t-339 -81q-197 0 -340 81zM1050 294.5q109 136.5 109 439.5q0 311 -109.5 449.5t-311.5 138.5t-311.5 -136t-109.5 -440
q0 -312 109 -450t312 -138t312 136.5zM817 1663q-37 10 -95 30q-46 18 -79.5 27t-67.5 9q-55 0 -97 -17t-83 -54v133q34 34 78.5 51t104.5 17q44 0 83.5 -10.5t92.5 -30.5q51 -19 82 -27.5t65 -8.5q55 0 97 17t83 54v-133q-34 -34 -78.5 -50.5t-104.5 -16.5q-44 0 -81 10z
" />
    <glyph glyph-name="Odieresis" unicode="&#xd6;" horiz-adv-x="1476" 
d="M398 62q-143 81 -221 250.5t-78 427.5t78.5 427.5t221.5 250.5t339 81q197 0 340 -81t221 -250.5t78 -427.5t-78.5 -427.5t-221.5 -250.5t-339 -81q-197 0 -340 81zM1050 294.5q109 136.5 109 439.5q0 311 -109.5 449.5t-311.5 138.5t-311.5 -136t-109.5 -440
q0 -312 109 -450t312 -138t312 136.5zM405 1671q-32 29 -32 80t32 80.5t91 29.5t91.5 -29.5t32.5 -80.5t-32.5 -80t-91.5 -29t-91 29zM888.5 1671q-32.5 29 -32.5 80t32.5 80.5t91.5 29.5t91 -29.5t32 -80.5t-32 -80t-91 -29t-91.5 29z" />
    <glyph glyph-name="multiply" unicode="&#xd7;" horiz-adv-x="1011" 
d="M224 363l-116 116l282 281l-282 281l116 116l282 -281l281 281l116 -116l-282 -281l282 -281l-116 -116l-281 281z" />
    <glyph glyph-name="Oslash" unicode="&#xd8;" horiz-adv-x="1476" 
d="M1377 740q0 -258 -78.5 -427.5t-221.5 -250.5t-339 -81q-247 0 -402 123l-104 -138l-98 74l115 152q-150 194 -150 548q0 258 78.5 427.5t221.5 250.5t339 81q247 0 401 -123l104 138l98 -74l-114 -152q150 -194 150 -548zM382 370l638 848q-101 104 -282 104
q-202 0 -311.5 -136t-109.5 -440q0 -237 65 -376zM1050 294.5q109 136.5 109 439.5q0 238 -66 376l-638 -848q101 -104 283 -104q203 0 312 136.5z" />
    <glyph glyph-name="Ugrave" unicode="&#xd9;" horiz-adv-x="1440" 
d="M289.5 125.5q-138.5 144.5 -138.5 450.5v904h211v-926q0 -206 87 -300t273 -94t273 94t87 300v926h207v-904q0 -306 -137 -450.5t-430 -144.5q-294 0 -432.5 144.5zM628 1604l-213 290h222l179 -290h-188z" />
    <glyph glyph-name="Uacute" unicode="&#xda;" horiz-adv-x="1440" 
d="M289.5 125.5q-138.5 144.5 -138.5 450.5v904h211v-926q0 -206 87 -300t273 -94t273 94t87 300v926h207v-904q0 -306 -137 -450.5t-430 -144.5q-294 0 -432.5 144.5zM627 1604l179 290h222l-212 -290h-189z" />
    <glyph glyph-name="Ucircumflex" unicode="&#xdb;" horiz-adv-x="1440" 
d="M289.5 125.5q-138.5 144.5 -138.5 450.5v904h211v-926q0 -206 87 -300t273 -94t273 94t87 300v926h207v-904q0 -306 -137 -450.5t-430 -144.5q-294 0 -432.5 144.5zM1062 1604h-170l-170 205l-170 -205h-170l248 290h185z" />
    <glyph glyph-name="Udieresis" unicode="&#xdc;" horiz-adv-x="1440" 
d="M289.5 125.5q-138.5 144.5 -138.5 450.5v904h211v-926q0 -206 87 -300t273 -94t273 94t87 300v926h207v-904q0 -306 -137 -450.5t-430 -144.5q-294 0 -432.5 144.5zM389 1671q-32 29 -32 80t32 80.5t91 29.5t91.5 -29.5t32.5 -80.5t-32.5 -80t-91.5 -29t-91 29z
M872.5 1671q-32.5 29 -32.5 80t32.5 80.5t91.5 29.5t91 -29.5t32 -80.5t-32 -80t-91 -29t-91.5 29z" />
    <glyph glyph-name="Yacute" unicode="&#xdd;" horiz-adv-x="1208" 
d="M1236 1480l-525 -832v-648h-212v647l-537 833h229l419 -648l412 648h214zM509 1604l179 290h222l-212 -290h-189z" />
    <glyph glyph-name="Thorn" unicode="&#xde;" horiz-adv-x="1268" 
d="M158 1481h212v-221q94 15 192 15q306 0 459 -125.5t153 -388.5q0 -515 -623 -515q-72 0 -181 7v-253h-212v1481zM867.5 495.5q98.5 83.5 98.5 262.5q0 182 -95.5 266t-294.5 84q-109 0 -206 -17v-668q93 -11 183 -11q216 0 314.5 83.5z" />
    <glyph glyph-name="germandbls" unicode="&#xdf;" horiz-adv-x="1442" 
d="M1311.5 507.5q67.5 -70.5 67.5 -198.5q0 -102 -51.5 -176t-152.5 -113.5t-247 -39.5q-164 0 -305 41v162q151 -43 304 -43q134 0 195 40.5t61 119.5q0 64 -33.5 97.5t-113.5 50.5l-156 31q-147 30 -214 103.5t-67 196.5q0 97 49.5 169t149.5 111.5t247 39.5q28 0 44 -1
q4 32 4 71q0 165 -85 239.5t-233 74.5q-175 0 -263 -95t-88 -300v-1088h-208v916h-196v172h196v1q0 177 64.5 299.5t187 185t294.5 62.5q146 0 255 -51t170.5 -158.5t61.5 -271.5q0 -104 -30 -222q-70 12 -150 12q-146 0 -209.5 -43.5t-63.5 -116.5q0 -58 33 -93t110 -52
l156 -30q149 -32 216.5 -102.5z" />
    <glyph glyph-name="agrave" unicode="&#xe0;" horiz-adv-x="1055" 
d="M732.5 1066q96.5 -39 144.5 -129t48 -244v-693h-173l-15 118h-12q-51 -66 -131 -101t-175 -35q-104 0 -179.5 36.5t-116 105t-40.5 160.5q0 148 99 229t313 99l226 23v69q0 91 -28.5 142t-87 72.5t-154.5 21.5q-67 0 -144.5 -11.5t-149.5 -35.5v164q70 23 158 35.5
t168 12.5q153 0 249.5 -39zM609 162.5q63 27.5 112 85.5v257l-209 -21q-116 -12 -168.5 -56t-52.5 -124q0 -83 47.5 -126t140.5 -43q67 0 130 27.5zM429 1247l-252 369h223l219 -369h-190z" />
    <glyph glyph-name="aacute" unicode="&#xe1;" horiz-adv-x="1055" 
d="M732.5 1066q96.5 -39 144.5 -129t48 -244v-693h-173l-15 118h-12q-51 -66 -131 -101t-175 -35q-104 0 -179.5 36.5t-116 105t-40.5 160.5q0 148 99 229t313 99l226 23v69q0 91 -28.5 142t-87 72.5t-154.5 21.5q-67 0 -144.5 -11.5t-149.5 -35.5v164q70 23 158 35.5
t168 12.5q153 0 249.5 -39zM609 162.5q63 27.5 112 85.5v257l-209 -21q-116 -12 -168.5 -56t-52.5 -124q0 -83 47.5 -126t140.5 -43q67 0 130 27.5zM429 1247l219 369h223l-252 -369h-190z" />
    <glyph glyph-name="acircumflex" unicode="&#xe2;" horiz-adv-x="1055" 
d="M732.5 1066q96.5 -39 144.5 -129t48 -244v-693h-173l-15 118h-12q-51 -66 -131 -101t-175 -35q-104 0 -179.5 36.5t-116 105t-40.5 160.5q0 148 99 229t313 99l226 23v69q0 91 -28.5 142t-87 72.5t-154.5 21.5q-67 0 -144.5 -11.5t-149.5 -35.5v164q70 23 158 35.5
t168 12.5q153 0 249.5 -39zM609 162.5q63 27.5 112 85.5v257l-209 -21q-116 -12 -168.5 -56t-52.5 -124q0 -83 47.5 -126t140.5 -43q67 0 130 27.5zM840 1247h-158l-158 266l-158 -266h-158l226 369h180z" />
    <glyph glyph-name="atilde" unicode="&#xe3;" horiz-adv-x="1055" 
d="M732.5 1066q96.5 -39 144.5 -129t48 -244v-693h-173l-15 118h-12q-51 -66 -131 -101t-175 -35q-104 0 -179.5 36.5t-116 105t-40.5 160.5q0 148 99 229t313 99l226 23v69q0 91 -28.5 142t-87 72.5t-154.5 21.5q-67 0 -144.5 -11.5t-149.5 -35.5v164q70 23 158 35.5
t168 12.5q153 0 249.5 -39zM609 162.5q63 27.5 112 85.5v257l-209 -21q-116 -12 -168.5 -56t-52.5 -124q0 -83 47.5 -126t140.5 -43q67 0 130 27.5zM595 1339q-37 12 -87 34q-45 20 -75 29.5t-60 9.5q-50 0 -91.5 -19t-81.5 -60v141q67 70 176 70q40 0 77 -11.5t88 -33.5
q46 -20 75 -29.5t59 -9.5q51 0 92 18.5t81 59.5v-141q-67 -70 -176 -70q-40 0 -77 12z" />
    <glyph glyph-name="adieresis" unicode="&#xe4;" horiz-adv-x="1055" 
d="M732.5 1066q96.5 -39 144.5 -129t48 -244v-693h-173l-15 118h-12q-51 -66 -131 -101t-175 -35q-104 0 -179.5 36.5t-116 105t-40.5 160.5q0 148 99 229t313 99l226 23v69q0 91 -28.5 142t-87 72.5t-154.5 21.5q-67 0 -144.5 -11.5t-149.5 -35.5v164q70 23 158 35.5
t168 12.5q153 0 249.5 -39zM609 162.5q63 27.5 112 85.5v257l-209 -21q-116 -12 -168.5 -56t-52.5 -124q0 -83 47.5 -126t140.5 -43q67 0 130 27.5zM207 1334q-33 31 -33 86q0 56 33 87.5t91 31.5t91 -32t33 -87t-33 -86t-91 -31t-91 31zM659.5 1334q-32.5 31 -32.5 86
q0 56 32.5 87.5t90.5 31.5t91 -31.5t33 -87.5q0 -55 -33 -86t-91 -31t-90.5 31z" />
    <glyph glyph-name="aring" unicode="&#xe5;" horiz-adv-x="1055" 
d="M732.5 1066q96.5 -39 144.5 -129t48 -244v-693h-173l-15 118h-12q-51 -66 -131 -101t-175 -35q-104 0 -179.5 36.5t-116 105t-40.5 160.5q0 148 99 229t313 99l226 23v69q0 91 -28.5 142t-87 72.5t-154.5 21.5q-67 0 -144.5 -11.5t-149.5 -35.5v164q70 23 158 35.5
t168 12.5q153 0 249.5 -39zM609 162.5q63 27.5 112 85.5v257l-209 -21q-116 -12 -168.5 -56t-52.5 -124q0 -83 47.5 -126t140.5 -43q67 0 130 27.5zM421 1267.5q-46 25.5 -72 70.5t-26 102t26 102t72 70.5t103 25.5t103 -25.5t72 -70.5t26 -102t-26 -102t-72 -70.5
t-103 -25.5t-103 25.5zM603 1358.5q30 30.5 30 81.5t-30 81.5t-79 30.5t-79 -30.5t-30 -81.5t30 -81.5t79 -30.5t79 30.5z" />
    <glyph glyph-name="ae" unicode="&#xe6;" horiz-adv-x="1674" 
d="M1602 479h-676q4 -122 42 -195t113.5 -106t195.5 -33q115 0 270 41v-164q-155 -42 -296 -42q-157 0 -265 44.5t-171 137.5q-81 -98 -175.5 -139t-203.5 -41q-111 0 -190 36.5t-121 104.5t-42 162q0 152 105 239t327 87h208v94q0 90 -29.5 141.5t-88.5 72.5t-154 21
q-66 0 -143.5 -11.5t-149.5 -35.5v164q73 23 156.5 35.5t161.5 12.5q143 0 234 -39t137 -125q54 81 138 122.5t193 41.5q203 0 313.5 -141.5t110.5 -423.5v-61zM990.5 881q-61.5 -82 -65.5 -270h481q-4 189 -63.5 270.5t-174.5 81.5q-116 0 -177.5 -82zM757 283
q-28 89 -32 200h-195q-126 0 -182.5 -48t-56.5 -133q0 -81 48.5 -123.5t142.5 -42.5q168 0 275 147z" />
    <glyph glyph-name="ccedilla" unicode="&#xe7;" horiz-adv-x="900" 
d="M456.5 893.5q-77.5 -38.5 -116 -123t-38.5 -223.5q0 -210 79.5 -301.5t242.5 -91.5q103 0 235 42v-172q-126 -44 -267 -44h-2v-79q77 -11 117.5 -52.5t40.5 -108.5q0 -77 -56.5 -120.5t-163.5 -43.5q-47 0 -92.5 9t-81.5 25v94q79 -36 167 -36q55 0 82 19.5t27 60.5
q0 81 -111 81h-40v159q-393 59 -393 555q0 288 138.5 425t406.5 137q123 0 228 -27v-172q-106 26 -202 26q-123 0 -200.5 -38.5z" />
    <glyph glyph-name="egrave" unicode="&#xe8;" horiz-adv-x="1053" 
d="M981 479h-684q4 -122 42.5 -195t114.5 -106t199 -33q117 0 273 41v-164q-158 -42 -299 -42q-275 0 -408 135t-133 430q0 276 120.5 418t339.5 142q212 0 323.5 -141.5t111.5 -424.5v-60zM362.5 880.5q-62.5 -81.5 -66.5 -269.5h489q-4 188 -63.5 269.5t-177.5 81.5
q-119 0 -181.5 -81.5zM448 1247l-252 369h223l219 -369h-190z" />
    <glyph glyph-name="eacute" unicode="&#xe9;" horiz-adv-x="1053" 
d="M981 479h-684q4 -122 42.5 -195t114.5 -106t199 -33q117 0 273 41v-164q-158 -42 -299 -42q-275 0 -408 135t-133 430q0 276 120.5 418t339.5 142q212 0 323.5 -141.5t111.5 -424.5v-60zM362.5 880.5q-62.5 -81.5 -66.5 -269.5h489q-4 188 -63.5 269.5t-177.5 81.5
q-119 0 -181.5 -81.5zM448 1247l219 369h223l-252 -369h-190z" />
    <glyph glyph-name="ecircumflex" unicode="&#xea;" horiz-adv-x="1053" 
d="M981 479h-684q4 -122 42.5 -195t114.5 -106t199 -33q117 0 273 41v-164q-158 -42 -299 -42q-275 0 -408 135t-133 430q0 276 120.5 418t339.5 142q212 0 323.5 -141.5t111.5 -424.5v-60zM362.5 880.5q-62.5 -81.5 -66.5 -269.5h489q-4 188 -63.5 269.5t-177.5 81.5
q-119 0 -181.5 -81.5zM859 1247h-158l-158 266l-158 -266h-158l226 369h180z" />
    <glyph glyph-name="edieresis" unicode="&#xeb;" horiz-adv-x="1053" 
d="M981 479h-684q4 -122 42.5 -195t114.5 -106t199 -33q117 0 273 41v-164q-158 -42 -299 -42q-275 0 -408 135t-133 430q0 276 120.5 418t339.5 142q212 0 323.5 -141.5t111.5 -424.5v-60zM362.5 880.5q-62.5 -81.5 -66.5 -269.5h489q-4 188 -63.5 269.5t-177.5 81.5
q-119 0 -181.5 -81.5zM226 1334q-33 31 -33 86q0 56 33 87.5t91 31.5t91 -32t33 -87t-33 -86t-91 -31t-91 31zM678.5 1334q-32.5 31 -32.5 86q0 56 32.5 87.5t90.5 31.5t91 -31.5t33 -87.5q0 -55 -33 -86t-91 -31t-90.5 31z" />
    <glyph glyph-name="igrave" unicode="&#xec;" horiz-adv-x="491" 
d="M141 0v1088h209v-1088h-209zM151 1247l-252 369h223l219 -369h-190z" />
    <glyph glyph-name="iacute" unicode="&#xed;" horiz-adv-x="491" 
d="M141 0v1088h209v-1088h-209zM151 1247l219 369h223l-252 -369h-190z" />
    <glyph glyph-name="icircumflex" unicode="&#xee;" horiz-adv-x="491" 
d="M141 0v1088h209v-1088h-209zM562 1247h-158l-158 266l-158 -266h-158l226 369h180z" />
    <glyph glyph-name="idieresis" unicode="&#xef;" horiz-adv-x="491" 
d="M141 0v1088h209v-1088h-209zM-71 1334q-33 31 -33 86q0 56 33 87.5t91 31.5t91 -32t33 -87t-33 -86t-91 -31t-91 31zM381.5 1334q-32.5 31 -32.5 86q0 56 32.5 87.5t90.5 31.5t91 -31.5t33 -87.5q0 -55 -33 -86t-91 -31t-90.5 31z" />
    <glyph glyph-name="eth" unicode="&#xf0;" horiz-adv-x="1138" 
d="M989 965q63 -190 63 -375q-1 -310 -126.5 -460t-355.5 -150q-229 0 -356.5 139t-127.5 423q0 282 124.5 420.5t342.5 138.5q117 0 201 -53q-52 123 -134 236l-421 -73l-23 123l354 62q-105 117 -242 220h251q102 -75 193 -185l270 47l23 -123l-209 -36q110 -164 173 -354
zM771 236.5q70 93.5 70 302.5q0 218 -69 309.5t-203 91.5q-133 0 -202 -90.5t-69 -305.5q0 -218 68.5 -309.5t203.5 -91.5q131 0 201 93.5z" />
    <glyph glyph-name="ntilde" unicode="&#xf1;" horiz-adv-x="1163" 
d="M141 1088h174l15 -120h11q65 66 151.5 101.5t183.5 35.5q166 0 261 -95.5t95 -302.5v-707h-208v696q0 121 -52.5 173.5t-152.5 52.5q-73 0 -146.5 -31.5t-123.5 -95.5v-795h-208v1088zM658 1339q-37 12 -87 34q-45 20 -75 29.5t-60 9.5q-50 0 -91.5 -19t-81.5 -60v141
q67 70 176 70q40 0 77 -11.5t88 -33.5q46 -20 75 -29.5t59 -9.5q51 0 92 18.5t81 59.5v-141q-67 -70 -176 -70q-40 0 -77 12z" />
    <glyph glyph-name="ograve" unicode="&#xf2;" horiz-adv-x="1138" 
d="M213.5 119.5q-127.5 139.5 -127.5 422.5q0 284 126.5 423.5t356.5 139.5t356.5 -139t126.5 -423q0 -282 -127.5 -422.5t-355.5 -140.5t-355.5 139.5zM772 235q69 91 69 305q0 218 -69 309.5t-203 91.5q-133 0 -202 -90.5t-69 -305.5q0 -218 68.5 -309.5t202.5 -91.5
t203 91zM474 1247l-252 369h223l219 -369h-190z" />
    <glyph glyph-name="oacute" unicode="&#xf3;" horiz-adv-x="1138" 
d="M213.5 119.5q-127.5 139.5 -127.5 422.5q0 284 126.5 423.5t356.5 139.5t356.5 -139t126.5 -423q0 -282 -127.5 -422.5t-355.5 -140.5t-355.5 139.5zM772 235q69 91 69 305q0 218 -69 309.5t-203 91.5q-133 0 -202 -90.5t-69 -305.5q0 -218 68.5 -309.5t202.5 -91.5
t203 91zM474 1247l219 369h223l-252 -369h-190z" />
    <glyph glyph-name="ocircumflex" unicode="&#xf4;" horiz-adv-x="1138" 
d="M213.5 119.5q-127.5 139.5 -127.5 422.5q0 284 126.5 423.5t356.5 139.5t356.5 -139t126.5 -423q0 -282 -127.5 -422.5t-355.5 -140.5t-355.5 139.5zM772 235q69 91 69 305q0 218 -69 309.5t-203 91.5q-133 0 -202 -90.5t-69 -305.5q0 -218 68.5 -309.5t202.5 -91.5
t203 91zM885 1247h-158l-158 266l-158 -266h-158l226 369h180z" />
    <glyph glyph-name="otilde" unicode="&#xf5;" horiz-adv-x="1138" 
d="M213.5 119.5q-127.5 139.5 -127.5 422.5q0 284 126.5 423.5t356.5 139.5t356.5 -139t126.5 -423q0 -282 -127.5 -422.5t-355.5 -140.5t-355.5 139.5zM772 235q69 91 69 305q0 218 -69 309.5t-203 91.5q-133 0 -202 -90.5t-69 -305.5q0 -218 68.5 -309.5t202.5 -91.5
t203 91zM640 1339q-37 12 -87 34q-45 20 -75 29.5t-60 9.5q-50 0 -91.5 -19t-81.5 -60v141q67 70 176 70q40 0 77 -11.5t88 -33.5q46 -20 75 -29.5t59 -9.5q51 0 92 18.5t81 59.5v-141q-67 -70 -176 -70q-40 0 -77 12z" />
    <glyph glyph-name="odieresis" unicode="&#xf6;" horiz-adv-x="1138" 
d="M213.5 119.5q-127.5 139.5 -127.5 422.5q0 284 126.5 423.5t356.5 139.5t356.5 -139t126.5 -423q0 -282 -127.5 -422.5t-355.5 -140.5t-355.5 139.5zM772 235q69 91 69 305q0 218 -69 309.5t-203 91.5q-133 0 -202 -90.5t-69 -305.5q0 -218 68.5 -309.5t202.5 -91.5
t203 91zM252 1334q-33 31 -33 86q0 56 33 87.5t91 31.5t91 -32t33 -87t-33 -86t-91 -31t-91 31zM704.5 1334q-32.5 31 -32.5 86q0 56 32.5 87.5t90.5 31.5t91 -31.5t33 -87.5q0 -55 -33 -86t-91 -31t-90.5 31z" />
    <glyph glyph-name="divide" unicode="&#xf7;" horiz-adv-x="1082" 
d="M445 1038q-36 34 -36 91q0 58 35.5 92.5t96.5 34.5t96.5 -34.5t35.5 -92.5q0 -57 -36.5 -91t-95.5 -34q-60 0 -96 34zM139 678v164h804v-164h-804zM445 298q-36 34 -36 91q0 58 35.5 92.5t96.5 34.5t96.5 -34.5t35.5 -92.5q0 -57 -36.5 -91t-95.5 -34q-60 0 -96 34z" />
    <glyph glyph-name="oslash" unicode="&#xf8;" horiz-adv-x="1138" 
d="M1052 543q0 -282 -127.5 -422.5t-355.5 -140.5q-166 0 -279 73l-66 -92l-96 70l74 102q-116 142 -116 409q0 284 126.5 423.5t356.5 139.5q166 0 277 -71l67 93l96 -70l-74 -102q117 -142 117 -412zM362.5 852q-70.5 -91 -70.5 -307q0 -155 37 -249l419 587
q-64 60 -179 60q-136 0 -206.5 -91zM776 233q70 91 70 307q0 159 -38 252l-419 -588q65 -62 180 -62q137 0 207 91z" />
    <glyph glyph-name="ugrave" unicode="&#xf9;" horiz-adv-x="1153" 
d="M225 76.5q-95 94.5 -95 301.5v710h208v-698q0 -120 52.5 -172.5t148.5 -52.5q72 0 144 31.5t121 94.5v797h208v-1088h-174l-15 117h-11q-65 -67 -149 -101t-178 -34q-165 0 -260 94.5zM477 1247l-252 369h223l219 -369h-190z" />
    <glyph glyph-name="uacute" unicode="&#xfa;" horiz-adv-x="1153" 
d="M225 76.5q-95 94.5 -95 301.5v710h208v-698q0 -120 52.5 -172.5t148.5 -52.5q72 0 144 31.5t121 94.5v797h208v-1088h-174l-15 117h-11q-65 -67 -149 -101t-178 -34q-165 0 -260 94.5zM477 1247l219 369h223l-252 -369h-190z" />
    <glyph glyph-name="ucircumflex" unicode="&#xfb;" horiz-adv-x="1153" 
d="M225 76.5q-95 94.5 -95 301.5v710h208v-698q0 -120 52.5 -172.5t148.5 -52.5q72 0 144 31.5t121 94.5v797h208v-1088h-174l-15 117h-11q-65 -67 -149 -101t-178 -34q-165 0 -260 94.5zM888 1247h-158l-158 266l-158 -266h-158l226 369h180z" />
    <glyph glyph-name="udieresis" unicode="&#xfc;" horiz-adv-x="1153" 
d="M225 76.5q-95 94.5 -95 301.5v710h208v-698q0 -120 52.5 -172.5t148.5 -52.5q72 0 144 31.5t121 94.5v797h208v-1088h-174l-15 117h-11q-65 -67 -149 -101t-178 -34q-165 0 -260 94.5zM255 1334q-33 31 -33 86q0 56 33 87.5t91 31.5t91 -32t33 -87t-33 -86t-91 -31
t-91 31zM707.5 1334q-32.5 31 -32.5 86q0 56 32.5 87.5t90.5 31.5t91 -31.5t33 -87.5q0 -55 -33 -86t-91 -31t-90.5 31z" />
    <glyph glyph-name="yacute" unicode="&#xfd;" horiz-adv-x="1089" 
d="M871 1088h207l-564 -1528h-206l164 440h-60l-401 1088h219l317 -912zM451 1247l219 369h223l-252 -369h-190z" />
    <glyph glyph-name="thorn" unicode="&#xfe;" horiz-adv-x="1159" 
d="M141 1616h208v-641h11q51 61 126.5 95.5t169.5 34.5q119 0 213 -56t149 -177t55 -308q0 -290 -142.5 -436.5t-421.5 -146.5q-66 0 -160 12v-433h-208v2056zM775.5 240.5q86.5 95.5 86.5 306.5q0 210 -73 296t-204 86q-69 0 -131.5 -28t-104.5 -83v-655q34 -8 78 -13
t85 -5q177 0 263.5 95.5z" />
    <glyph glyph-name="ydieresis" unicode="&#xff;" horiz-adv-x="1089" 
d="M871 1088h207l-564 -1528h-206l164 440h-60l-401 1088h219l317 -912zM229 1334q-33 31 -33 86q0 56 33 87.5t91 31.5t91 -32t33 -87t-33 -86t-91 -31t-91 31zM681.5 1334q-32.5 31 -32.5 86q0 56 32.5 87.5t90.5 31.5t91 -31.5t33 -87.5q0 -55 -33 -86t-91 -31t-90.5 31z
" />
    <glyph glyph-name="Amacron" unicode="&#x100;" horiz-adv-x="1380" 
d="M1144 0l-154 453h-603l-154 -453h-209l514 1480h303l515 -1480h-212zM446 628h484l-242 711zM365 1683v133h650v-133h-650z" />
    <glyph glyph-name="amacron" unicode="&#x101;" horiz-adv-x="1055" 
d="M732.5 1066q96.5 -39 144.5 -129t48 -244v-693h-173l-15 118h-12q-51 -66 -131 -101t-175 -35q-104 0 -179.5 36.5t-116 105t-40.5 160.5q0 148 99 229t313 99l226 23v69q0 91 -28.5 142t-87 72.5t-154.5 21.5q-67 0 -144.5 -11.5t-149.5 -35.5v164q70 23 158 35.5
t168 12.5q153 0 249.5 -39zM609 162.5q63 27.5 112 85.5v257l-209 -21q-116 -12 -168.5 -56t-52.5 -124q0 -83 47.5 -126t140.5 -43q67 0 130 27.5zM200 1355v134h648v-134h-648z" />
    <glyph glyph-name="Abreve" unicode="&#x102;" horiz-adv-x="1380" 
d="M1144 0l-154 453h-603l-154 -453h-209l514 1480h303l515 -1480h-212zM446 628h484l-242 711zM451 1682q-86 71 -99 195h135q12 -77 59.5 -114.5t144.5 -37.5t144 37.5t58 114.5h135q-13 -125 -97.5 -195.5t-239.5 -70.5q-154 0 -240 71z" />
    <glyph glyph-name="abreve" unicode="&#x103;" horiz-adv-x="1055" 
d="M732.5 1066q96.5 -39 144.5 -129t48 -244v-693h-173l-15 118h-12q-51 -66 -131 -101t-175 -35q-104 0 -179.5 36.5t-116 105t-40.5 160.5q0 148 99 229t313 99l226 23v69q0 91 -28.5 142t-87 72.5t-154.5 21.5q-67 0 -144.5 -11.5t-149.5 -35.5v164q70 23 158 35.5
t168 12.5q153 0 249.5 -39zM609 162.5q63 27.5 112 85.5v257l-209 -21q-116 -12 -168.5 -56t-52.5 -124q0 -83 47.5 -126t140.5 -43q67 0 130 27.5zM295.5 1343.5q-83.5 86.5 -90.5 247.5h134q7 -108 52.5 -163t133.5 -55t133 54.5t51 163.5h134q-7 -162 -89.5 -248
t-228.5 -86t-229.5 86.5z" />
    <glyph glyph-name="Aogonek" unicode="&#x104;" horiz-adv-x="1380" 
d="M1356.5 -321q36.5 8 83.5 27v-94q-86 -36 -177 -36q-123 0 -186.5 50t-63.5 141q0 69 37 126t120 107h-26l-154 453h-603l-154 -453h-209l514 1480h303l515 -1480q-121 -53 -168.5 -105.5t-47.5 -114.5q0 -53 36 -81t109 -28q35 0 71.5 8zM446 628h484l-242 711z" />
    <glyph glyph-name="aogonek" unicode="&#x105;" horiz-adv-x="1055" 
d="M994 -292v-95q-74 -37 -162 -37q-110 0 -170 51t-60 140q0 69 35.5 127t114.5 108l-15 116h-12q-51 -66 -131 -101t-175 -35q-104 0 -179.5 36.5t-116 105t-40.5 160.5q0 148 99 229t313 99l226 23v69q0 91 -28.5 142t-87 72.5t-154.5 21.5q-67 0 -144.5 -11.5
t-149.5 -35.5v164q70 23 158 35.5t168 12.5q153 0 249.5 -39t144.5 -129t48 -244v-693q-107 -53 -151.5 -105t-44.5 -115q0 -51 32.5 -80t92.5 -29q67 0 140 37zM609 162.5q63 27.5 112 85.5v257l-209 -21q-116 -12 -168.5 -56t-52.5 -124q0 -83 47.5 -126t140.5 -43
q67 0 130 27.5z" />
    <glyph glyph-name="Cacute" unicode="&#x106;" horiz-adv-x="1177" 
d="M279.5 161q-180.5 180 -180.5 576q0 387 184.5 574.5t531.5 187.5q164 0 319 -41v-180q-146 41 -307 41q-169 0 -281 -57.5t-169 -185t-57 -335.5q0 -214 57.5 -341.5t166.5 -183t273 -55.5q80 0 156.5 12.5t160.5 40.5v-180q-156 -53 -335 -53q-339 0 -519.5 180z
M622 1604l179 290h222l-212 -290h-189z" />
    <glyph glyph-name="cacute" unicode="&#x107;" horiz-adv-x="900" 
d="M86 543q0 288 138.5 425t406.5 137q123 0 228 -27v-172q-106 26 -202 26q-123 0 -200.5 -38.5t-116 -123t-38.5 -223.5q0 -210 79.5 -301.5t242.5 -91.5q103 0 235 42v-172q-126 -44 -267 -44q-506 0 -506 563zM425 1247l219 369h223l-252 -369h-190z" />
    <glyph glyph-name="Ccircumflex" unicode="&#x108;" horiz-adv-x="1177" 
d="M279.5 161q-180.5 180 -180.5 576q0 387 184.5 574.5t531.5 187.5q164 0 319 -41v-180q-146 41 -307 41q-169 0 -281 -57.5t-169 -185t-57 -335.5q0 -214 57.5 -341.5t166.5 -183t273 -55.5q80 0 156.5 12.5t160.5 40.5v-180q-156 -53 -335 -53q-339 0 -519.5 180z
M1057 1604h-170l-170 205l-170 -205h-170l248 290h185z" />
    <glyph glyph-name="ccircumflex" unicode="&#x109;" horiz-adv-x="900" 
d="M86 543q0 288 138.5 425t406.5 137q123 0 228 -27v-172q-106 26 -202 26q-123 0 -200.5 -38.5t-116 -123t-38.5 -223.5q0 -210 79.5 -301.5t242.5 -91.5q103 0 235 42v-172q-126 -44 -267 -44q-506 0 -506 563zM836 1247h-158l-158 266l-158 -266h-158l226 369h180z" />
    <glyph glyph-name="Cdotaccent" unicode="&#x10a;" horiz-adv-x="1177" 
d="M279.5 161q-180.5 180 -180.5 576q0 387 184.5 574.5t531.5 187.5q164 0 319 -41v-180q-146 41 -307 41q-169 0 -281 -57.5t-169 -185t-57 -335.5q0 -214 57.5 -341.5t166.5 -183t273 -55.5q80 0 156.5 12.5t160.5 40.5v-180q-156 -53 -335 -53q-339 0 -519.5 180z
M615.5 1671q-35.5 29 -35.5 80q0 52 35.5 81t101.5 29t101.5 -29t35.5 -81q0 -51 -35.5 -80t-101.5 -29t-101.5 29z" />
    <glyph glyph-name="cdotaccent" unicode="&#x10b;" horiz-adv-x="900" 
d="M86 543q0 288 138.5 425t406.5 137q123 0 228 -27v-172q-106 26 -202 26q-123 0 -200.5 -38.5t-116 -123t-38.5 -223.5q0 -210 79.5 -301.5t242.5 -91.5q103 0 235 42v-172q-126 -44 -267 -44q-506 0 -506 563zM418 1331q-35 31 -35 89t35 90t102 32t102 -32t35 -90
t-35 -89t-102 -31t-102 31z" />
    <glyph glyph-name="Ccaron" unicode="&#x10c;" horiz-adv-x="1177" 
d="M279.5 161q-180.5 180 -180.5 576q0 387 184.5 574.5t531.5 187.5q164 0 319 -41v-180q-146 41 -307 41q-169 0 -281 -57.5t-169 -185t-57 -335.5q0 -214 57.5 -341.5t166.5 -183t273 -55.5q80 0 156.5 12.5t160.5 40.5v-180q-156 -53 -335 -53q-339 0 -519.5 180z
M887 1894h170l-247 -290h-185l-248 290h170l170 -205z" />
    <glyph glyph-name="ccaron" unicode="&#x10d;" horiz-adv-x="900" 
d="M86 543q0 288 138.5 425t406.5 137q123 0 228 -27v-172q-106 26 -202 26q-123 0 -200.5 -38.5t-116 -123t-38.5 -223.5q0 -210 79.5 -301.5t242.5 -91.5q103 0 235 42v-172q-126 -44 -267 -44q-506 0 -506 563zM680 1616h159l-229 -369h-180l-229 369h159l160 -267z" />
    <glyph glyph-name="Dcaron" unicode="&#x10e;" horiz-adv-x="1429" 
d="M158 9v1444q96 20 203.5 31t207.5 11q380 0 571 -186t191 -569q0 -389 -199.5 -571t-605.5 -182q-184 0 -368 22zM875.5 223q118.5 59 178 186t59.5 332q0 302 -131 440t-401 138q-96 0 -211 -18v-1126q88 -11 204 -11q183 0 301.5 59zM815 1894h170l-247 -290h-185
l-248 290h170l170 -205z" />
    <glyph glyph-name="dcaron" unicode="&#x10f;" horiz-adv-x="1159" 
d="M297.5 37q-97.5 56 -154.5 177t-57 308q0 290 142.5 436.5t421.5 146.5q73 0 160 -13v524h208v-1616h-176l-14 117h-12q-50 -63 -126 -99.5t-170 -36.5q-125 0 -222.5 56zM705.5 184.5q62.5 28.5 104.5 86.5v652q-76 17 -163 17q-177 0 -263 -95t-86 -306
q0 -210 72 -296.5t204 -86.5q69 0 131.5 28.5zM1126 1616h147q0 -114 -13.5 -228t-40.5 -208h-117q24 184 24 436z" />
    <glyph glyph-name="Dcroat" unicode="&#x110;" horiz-adv-x="1429" 
d="M1140 1309q191 -186 191 -569q0 -389 -199.5 -571t-605.5 -182q-184 0 -368 22v681h-155v143h155v620q96 20 203.5 31t207.5 11q380 0 571 -186zM875.5 223q118.5 59 178 186t59.5 332q0 302 -131 440t-401 138q-96 0 -211 -18v-468h313v-143h-313v-515q88 -11 204 -11
q183 0 301.5 59z" />
    <glyph glyph-name="dcroat" unicode="&#x111;" horiz-adv-x="1159" 
d="M1153 1285h-135v-1285h-176l-14 117h-12q-50 -63 -126 -99.5t-170 -36.5q-125 0 -222.5 56t-154.5 177t-57 308q0 290 142.5 436.5t421.5 146.5q73 0 160 -13v193h-347v140h347v191h208v-191h135v-140zM810 923q-76 17 -163 17q-177 0 -263 -95t-86 -306
q0 -210 72 -296.5t204 -86.5q69 0 131.5 28.5t104.5 86.5v652z" />
    <glyph glyph-name="Emacron" unicode="&#x112;" horiz-adv-x="1193" 
d="M367 175h753v-175h-962v1480h952v-175h-743v-459h644v-175h-644v-496zM331 1683v133h650v-133h-650z" />
    <glyph glyph-name="emacron" unicode="&#x113;" horiz-adv-x="1053" 
d="M981 479h-684q4 -122 42.5 -195t114.5 -106t199 -33q117 0 273 41v-164q-158 -42 -299 -42q-275 0 -408 135t-133 430q0 276 120.5 418t339.5 142q212 0 323.5 -141.5t111.5 -424.5v-60zM362.5 880.5q-62.5 -81.5 -66.5 -269.5h489q-4 188 -63.5 269.5t-177.5 81.5
q-119 0 -181.5 -81.5zM219 1355v134h648v-134h-648z" />
    <glyph glyph-name="Ebreve" unicode="&#x114;" horiz-adv-x="1193" 
d="M367 175h753v-175h-962v1480h952v-175h-743v-459h644v-175h-644v-496zM417 1682q-86 71 -99 195h135q12 -77 59.5 -114.5t144.5 -37.5t144 37.5t58 114.5h135q-13 -125 -97.5 -195.5t-239.5 -70.5q-154 0 -240 71z" />
    <glyph glyph-name="ebreve" unicode="&#x115;" horiz-adv-x="1053" 
d="M981 479h-684q4 -122 42.5 -195t114.5 -106t199 -33q117 0 273 41v-164q-158 -42 -299 -42q-275 0 -408 135t-133 430q0 276 120.5 418t339.5 142q212 0 323.5 -141.5t111.5 -424.5v-60zM362.5 880.5q-62.5 -81.5 -66.5 -269.5h489q-4 188 -63.5 269.5t-177.5 81.5
q-119 0 -181.5 -81.5zM314.5 1343.5q-83.5 86.5 -90.5 247.5h134q7 -108 52.5 -163t133.5 -55t133 54.5t51 163.5h134q-7 -162 -89.5 -248t-228.5 -86t-229.5 86.5z" />
    <glyph glyph-name="Edotaccent" unicode="&#x116;" horiz-adv-x="1193" 
d="M367 175h753v-175h-962v1480h952v-175h-743v-459h644v-175h-644v-496zM554.5 1671q-35.5 29 -35.5 80q0 52 35.5 81t101.5 29t101.5 -29t35.5 -81q0 -51 -35.5 -80t-101.5 -29t-101.5 29z" />
    <glyph glyph-name="edotaccent" unicode="&#x117;" horiz-adv-x="1053" 
d="M981 479h-684q4 -122 42.5 -195t114.5 -106t199 -33q117 0 273 41v-164q-158 -42 -299 -42q-275 0 -408 135t-133 430q0 276 120.5 418t339.5 142q212 0 323.5 -141.5t111.5 -424.5v-60zM362.5 880.5q-62.5 -81.5 -66.5 -269.5h489q-4 188 -63.5 269.5t-177.5 81.5
q-119 0 -181.5 -81.5zM441 1331q-35 31 -35 89t35 90t102 32t102 -32t35 -90t-35 -89t-102 -31t-102 31z" />
    <glyph glyph-name="Eogonek" unicode="&#x118;" horiz-adv-x="1193" 
d="M1037.5 -321q36.5 8 83.5 27v-94q-86 -36 -177 -36q-123 0 -186.5 50t-63.5 141q0 69 37 126t120 107h-693v1480h952v-175h-743v-459h644v-175h-644v-496h753v-175h-83q-121 -53 -168.5 -105.5t-47.5 -114.5q0 -53 36 -81t109 -28q35 0 71.5 8z" />
    <glyph glyph-name="eogonek" unicode="&#x119;" horiz-adv-x="1053" 
d="M981 479h-684q4 -122 42.5 -195t114.5 -106t199 -33q117 0 273 41v-164q-148 -50 -206.5 -111.5t-58.5 -130.5q0 -51 32.5 -80t92.5 -29q67 0 140 37v-95q-74 -37 -162 -37q-110 0 -170 51t-60 140q0 132 124 213h-31q-275 0 -408 135t-133 430q0 276 120.5 418
t339.5 142q212 0 323.5 -141.5t111.5 -424.5v-60zM362.5 876.5q-62.5 -81.5 -66.5 -269.5h489q-4 188 -63.5 269.5t-177.5 81.5q-119 0 -181.5 -81.5z" />
    <glyph glyph-name="Ecaron" unicode="&#x11a;" horiz-adv-x="1193" 
d="M367 175h753v-175h-962v1480h952v-175h-743v-459h644v-175h-644v-496zM826 1894h170l-247 -290h-185l-248 290h170l170 -205z" />
    <glyph glyph-name="ecaron" unicode="&#x11b;" horiz-adv-x="1053" 
d="M981 479h-684q4 -122 42.5 -195t114.5 -106t199 -33q117 0 273 41v-164q-158 -42 -299 -42q-275 0 -408 135t-133 430q0 276 120.5 418t339.5 142q212 0 323.5 -141.5t111.5 -424.5v-60zM362.5 880.5q-62.5 -81.5 -66.5 -269.5h489q-4 188 -63.5 269.5t-177.5 81.5
q-119 0 -181.5 -81.5zM703 1616h159l-229 -369h-180l-229 369h159l160 -267z" />
    <glyph glyph-name="Gcircumflex" unicode="&#x11c;" horiz-adv-x="1371" 
d="M1227 720v-704q-180 -30 -343 -30q-393 0 -589 183t-196 568q-1 387 196.5 574.5t562.5 187.5q168 0 333 -42v-180q-157 42 -317 42q-182 0 -304.5 -58t-186 -186.5t-63.5 -338.5q0 -201 61 -327t182 -185t306 -59q82 0 160 8v547h198zM1103 1604h-170l-170 205
l-170 -205h-170l248 290h185z" />
    <glyph glyph-name="gcircumflex" unicode="&#x11d;" horiz-adv-x="1159" 
d="M321 -448q-88 12 -163 35v170q168 -51 319 -51q116 0 189 31t108.5 100t35.5 184v95h-11q-51 -60 -126 -94t-169 -34q-118 0 -212 55.5t-150 175t-56 303.5q0 289 143.5 435.5t427.5 147.5q92 0 187.5 -14t173.5 -39v-996q0 -182 -58 -296t-174 -167t-295 -53
q-82 0 -170 12zM704.5 189q62.5 27 105.5 80v652q-82 20 -170 20q-171 0 -256.5 -95.5t-85.5 -304.5q0 -208 72 -293.5t204 -85.5q68 0 130.5 27zM917 1247h-158l-158 266l-158 -266h-158l226 369h180z" />
    <glyph glyph-name="Gbreve" unicode="&#x11e;" horiz-adv-x="1371" 
d="M1227 720v-704q-180 -30 -343 -30q-393 0 -589 183t-196 568q-1 387 196.5 574.5t562.5 187.5q168 0 333 -42v-180q-157 42 -317 42q-182 0 -304.5 -58t-186 -186.5t-63.5 -338.5q0 -201 61 -327t182 -185t306 -59q82 0 160 8v547h198zM524 1682q-86 71 -99 195h135
q12 -77 59.5 -114.5t144.5 -37.5t144 37.5t58 114.5h135q-13 -125 -97.5 -195.5t-239.5 -70.5q-154 0 -240 71z" />
    <glyph glyph-name="gbreve" unicode="&#x11f;" horiz-adv-x="1159" 
d="M321 -448q-88 12 -163 35v170q168 -51 319 -51q116 0 189 31t108.5 100t35.5 184v95h-11q-51 -60 -126 -94t-169 -34q-118 0 -212 55.5t-150 175t-56 303.5q0 289 143.5 435.5t427.5 147.5q92 0 187.5 -14t173.5 -39v-996q0 -182 -58 -296t-174 -167t-295 -53
q-82 0 -170 12zM704.5 189q62.5 27 105.5 80v652q-82 20 -170 20q-171 0 -256.5 -95.5t-85.5 -304.5q0 -208 72 -293.5t204 -85.5q68 0 130.5 27zM372.5 1343.5q-83.5 86.5 -90.5 247.5h134q7 -108 52.5 -163t133.5 -55t133 54.5t51 163.5h134q-7 -162 -89.5 -248
t-228.5 -86t-229.5 86.5z" />
    <glyph glyph-name="Gdotaccent" unicode="&#x120;" horiz-adv-x="1371" 
d="M1227 720v-704q-180 -30 -343 -30q-393 0 -589 183t-196 568q-1 387 196.5 574.5t562.5 187.5q168 0 333 -42v-180q-157 42 -317 42q-182 0 -304.5 -58t-186 -186.5t-63.5 -338.5q0 -201 61 -327t182 -185t306 -59q82 0 160 8v547h198zM661.5 1671q-35.5 29 -35.5 80
q0 52 35.5 81t101.5 29t101.5 -29t35.5 -81q0 -51 -35.5 -80t-101.5 -29t-101.5 29z" />
    <glyph glyph-name="gdotaccent" unicode="&#x121;" horiz-adv-x="1159" 
d="M321 -448q-88 12 -163 35v170q168 -51 319 -51q116 0 189 31t108.5 100t35.5 184v95h-11q-51 -60 -126 -94t-169 -34q-118 0 -212 55.5t-150 175t-56 303.5q0 289 143.5 435.5t427.5 147.5q92 0 187.5 -14t173.5 -39v-996q0 -182 -58 -296t-174 -167t-295 -53
q-82 0 -170 12zM704.5 189q62.5 27 105.5 80v652q-82 20 -170 20q-171 0 -256.5 -95.5t-85.5 -304.5q0 -208 72 -293.5t204 -85.5q68 0 130.5 27zM499 1331q-35 31 -35 89t35 90t102 32t102 -32t35 -90t-35 -89t-102 -31t-102 31z" />
    <glyph glyph-name="Gcommaaccent" unicode="&#x122;" horiz-adv-x="1371" 
d="M1227 720v-704q-180 -30 -343 -30q-393 0 -589 183t-196 568q-1 387 196.5 574.5t562.5 187.5q168 0 333 -42v-180q-157 42 -317 42q-182 0 -304.5 -58t-186 -186.5t-63.5 -338.5q0 -201 61 -327t182 -185t306 -59q82 0 160 8v547h198zM890 -274q0 -46 -17 -101t-46 -101
h-130q37 79 46 142q-53 4 -80 28t-27 63q0 42 32 66.5t93 24.5q129 0 129 -122z" />
    <glyph glyph-name="gcommaaccent" unicode="&#x123;" horiz-adv-x="1159" 
d="M321 -448q-88 12 -163 35v170q168 -51 319 -51q116 0 189 31t108.5 100t35.5 184v95h-11q-51 -60 -126 -94t-169 -34q-118 0 -212 55.5t-150 175t-56 303.5q0 289 143.5 435.5t427.5 147.5q92 0 187.5 -14t173.5 -39v-996q0 -182 -58 -296t-174 -167t-295 -53
q-82 0 -170 12zM704.5 189q62.5 27 105.5 80v652q-82 20 -170 20q-171 0 -256.5 -95.5t-85.5 -304.5q0 -208 72 -293.5t204 -85.5q68 0 130.5 27zM701 1455q27 -24 27 -63q0 -42 -32 -66.5t-93 -24.5q-129 0 -129 122q0 46 17 101.5t46 100.5h130q-37 -79 -46 -142
q53 -4 80 -28z" />
    <glyph glyph-name="Hcircumflex" unicode="&#x124;" horiz-adv-x="1469" 
d="M158 0v1480h212v-627h729v627h212v-1480h-212v664h-729v-664h-212zM1075 1604h-170l-170 205l-170 -205h-170l248 290h185z" />
    <glyph glyph-name="hcircumflex" unicode="&#x125;" horiz-adv-x="1163" 
d="M141 1616h208v-646h11q63 67 145.5 101t180.5 34q159 0 252.5 -95t93.5 -302v-708h-208v696q0 121 -53 173t-152 52q-75 0 -147.5 -31.5t-122.5 -95.5v-794h-208v1616zM927 1700h-170l-170 205l-170 -205h-170l248 290h185z" />
    <glyph glyph-name="Hbar" unicode="&#x126;" horiz-adv-x="1469" 
d="M1466 1237v-138h-155v-1099h-212v664h-729v-664h-212v1099h-155v138h155v243h212v-243h729v243h212v-243h155zM1099 853v246h-729v-246h729z" />
    <glyph glyph-name="hbar" unicode="&#x127;" horiz-adv-x="1163" 
d="M938.5 1010q93.5 -95 93.5 -302v-708h-208v696q0 121 -53 173t-152 52q-75 0 -147.5 -31.5t-122.5 -95.5v-794h-208v1284h-134v140h134v192h208v-192h348v-140h-348v-314h11q63 67 145.5 101t180.5 34q159 0 252.5 -95z" />
    <glyph glyph-name="Itilde" unicode="&#x128;" horiz-adv-x="528" 
d="M158 0v1480h212v-1480h-212zM343 1663q-37 10 -95 30q-46 18 -79.5 27t-67.5 9q-55 0 -97 -17t-83 -54v133q34 34 78.5 51t104.5 17q44 0 83.5 -10.5t92.5 -30.5q51 -19 82 -27.5t65 -8.5q55 0 97 17t83 54v-133q-34 -34 -78.5 -50.5t-104.5 -16.5q-44 0 -81 10z" />
    <glyph glyph-name="itilde" unicode="&#x129;" horiz-adv-x="491" 
d="M141 0v1088h209v-1088h-209zM317 1339q-37 12 -87 34q-45 20 -75 29.5t-60 9.5q-50 0 -91.5 -19t-81.5 -60v141q67 70 176 70q40 0 77 -11.5t88 -33.5q46 -20 75 -29.5t59 -9.5q51 0 92 18.5t81 59.5v-141q-67 -70 -176 -70q-40 0 -77 12z" />
    <glyph glyph-name="Imacron" unicode="&#x12a;" horiz-adv-x="528" 
d="M158 0v1480h212v-1480h-212zM-61 1683v133h650v-133h-650z" />
    <glyph glyph-name="imacron" unicode="&#x12b;" horiz-adv-x="491" 
d="M141 0v1088h209v-1088h-209zM-78 1355v134h648v-134h-648z" />
    <glyph glyph-name="Ibreve" unicode="&#x12c;" horiz-adv-x="528" 
d="M158 0v1480h212v-1480h-212zM25 1682q-86 71 -99 195h135q12 -77 59.5 -114.5t144.5 -37.5t144 37.5t58 114.5h135q-13 -125 -97.5 -195.5t-239.5 -70.5q-154 0 -240 71z" />
    <glyph glyph-name="ibreve" unicode="&#x12d;" horiz-adv-x="491" 
d="M141 0v1088h209v-1088h-209zM17.5 1343.5q-83.5 86.5 -90.5 247.5h134q7 -108 52.5 -163t133.5 -55t133 54.5t51 163.5h134q-7 -162 -89.5 -248t-228.5 -86t-229.5 86.5z" />
    <glyph glyph-name="Iogonek" unicode="&#x12e;" horiz-adv-x="528" 
d="M370.5 -321q36.5 8 83.5 27v-94q-86 -36 -177 -36q-123 0 -186.5 50t-63.5 141q0 69 37 126t120 107h-26v1480h212v-1480q-121 -53 -168.5 -105.5t-47.5 -114.5q0 -53 36 -81t109 -28q35 0 71.5 8z" />
    <glyph glyph-name="iogonek" unicode="&#x12f;" horiz-adv-x="491" 
d="M144 1331q-35 31 -35 89t35 90t102 32t102 -32t35 -90t-35 -89t-102 -31t-102 31zM419 -292v-95q-74 -37 -162 -37q-110 0 -170 51t-60 140q0 69 35 126t112 107h-33v1088h209v-1088q-107 -53 -151.5 -105t-44.5 -115q0 -51 32.5 -80t92.5 -29q67 0 140 37z" />
    <glyph glyph-name="Idotaccent" unicode="&#x130;" horiz-adv-x="528" 
d="M158 0v1480h212v-1480h-212zM162.5 1671q-35.5 29 -35.5 80q0 52 35.5 81t101.5 29t101.5 -29t35.5 -81q0 -51 -35.5 -80t-101.5 -29t-101.5 29z" />
    <glyph glyph-name="dotlessi" unicode="&#x131;" horiz-adv-x="491" 
d="M141 0v1088h209v-1088h-209z" />
    <glyph glyph-name="Jcircumflex" unicode="&#x134;" horiz-adv-x="528" 
d="M-14 -253q93 126 133 251.5t40 294.5v1187h211v-1200q-5 -184 -61 -329.5t-185 -295.5zM604 1604h-170l-170 205l-170 -205h-170l248 290h185z" />
    <glyph glyph-name="jcircumflex" unicode="&#x135;" horiz-adv-x="491" 
d="M-31 -374q93 125 132.5 250.5t39.5 295.5v916h209v-906q0 -193 -56.5 -344t-187.5 -304zM560 1251h-158l-158 266l-158 -266h-158l226 369h180z" />
    <glyph glyph-name="Kcommaaccent" unicode="&#x136;" horiz-adv-x="1265" 
d="M1060 0l-492 664h-198v-664h-212v1480h212v-627h200l455 627h228l-521 -717l563 -763h-235zM788 -274q0 -46 -17 -101t-46 -101h-130q37 79 46 142q-53 4 -80 28t-27 63q0 42 32 66.5t93 24.5q129 0 129 -122z" />
    <glyph glyph-name="kcommaaccent" unicode="&#x137;" horiz-adv-x="1080" 
d="M874 0l-356 472h-169v-472h-208v1616h208v-973h167l328 445h227l-383 -527l417 -561h-231zM704 -274q0 -46 -17 -101t-46 -101h-130q37 79 46 142q-53 4 -80 28t-27 63q0 42 32 66.5t93 24.5q129 0 129 -122z" />
    <glyph glyph-name="kgreenlandic" unicode="&#x138;" horiz-adv-x="1080" 
d="M874 0l-356 472h-169v-472h-208v1088h208v-445h167l328 445h227l-383 -527l417 -561h-231z" />
    <glyph glyph-name="Lacute" unicode="&#x139;" horiz-adv-x="1094" 
d="M158 0v1480h212v-1299h713v-181h-925zM171 1604l179 290h222l-212 -290h-189z" />
    <glyph glyph-name="lacute" unicode="&#x13a;" horiz-adv-x="491" 
d="M141 0v1616h208v-1616h-208zM151 1700l179 290h222l-212 -290h-189z" />
    <glyph glyph-name="Lcommaaccent" unicode="&#x13b;" horiz-adv-x="1094" 
d="M158 0v1480h212v-1299h713v-181h-925zM748 -274q0 -46 -17 -101t-46 -101h-130q37 79 46 142q-53 4 -80 28t-27 63q0 42 32 66.5t93 24.5q129 0 129 -122z" />
    <glyph glyph-name="lcommaaccent" unicode="&#x13c;" horiz-adv-x="491" 
d="M141 0v1616h208v-1616h-208zM372 -274q0 -46 -17 -101t-46 -101h-130q37 79 46 142q-53 4 -80 28t-27 63q0 42 32 66.5t93 24.5q129 0 129 -122z" />
    <glyph glyph-name="Lcaron" unicode="&#x13d;" horiz-adv-x="1094" 
d="M158 0v1480h212v-1299h713v-181h-925zM711 1354q5 112 5 262h147q0 -282 -54 -476h-117q14 102 19 214z" />
    <glyph glyph-name="lcaron" unicode="&#x13e;" horiz-adv-x="491" 
d="M141 0v1616h208v-1616h-208zM458 1616h147q0 -114 -13.5 -228t-40.5 -208h-117q24 184 24 436z" />
    <glyph glyph-name="Ldot" unicode="&#x13f;" horiz-adv-x="1094" 
d="M158 0v1480h212v-1299h713v-181h-925zM699 738q-35 31 -35 89t35 90t102 32t102.5 -32t35.5 -90t-35 -89t-103 -31q-67 0 -102 31z" />
    <glyph glyph-name="ldot" unicode="&#x140;" horiz-adv-x="663" 
d="M141 0v1616h208v-1616h-208zM467.5 703.5q-35.5 31.5 -35.5 89.5t35.5 90t102.5 32t102 -32t35 -90t-35 -89.5t-102 -31.5t-102.5 31.5z" />
    <glyph glyph-name="Lslash" unicode="&#x141;" horiz-adv-x="1094" 
d="M370 181h713v-181h-925v645l-114 -76l-71 124l185 124v663h212v-521l271 181l71 -124l-342 -229v-606z" />
    <glyph glyph-name="lslash" unicode="&#x142;" horiz-adv-x="491" 
d="M521 811l-172 -112v-699h-208v564l-100 -65l-68 118l168 109v890h208v-754l103 67z" />
    <glyph glyph-name="Nacute" unicode="&#x143;" horiz-adv-x="1491" 
d="M1133 1480h200v-1480h-215l-760 1157v-1157h-200v1480h215l760 -1157v1157zM651 1604l179 290h222l-212 -290h-189z" />
    <glyph glyph-name="nacute" unicode="&#x144;" horiz-adv-x="1163" 
d="M141 1088h174l15 -120h11q65 66 151.5 101.5t183.5 35.5q166 0 261 -95.5t95 -302.5v-707h-208v696q0 121 -52.5 173.5t-152.5 52.5q-73 0 -146.5 -31.5t-123.5 -95.5v-795h-208v1088zM492 1247l219 369h223l-252 -369h-190z" />
    <glyph glyph-name="Ncommaaccent" unicode="&#x145;" horiz-adv-x="1491" 
d="M1133 1480h200v-1480h-215l-760 1157v-1157h-200v1480h215l760 -1157v1157zM873 -274q0 -46 -17 -101t-46 -101h-130q37 79 46 142q-53 4 -80 28t-27 63q0 42 32 66.5t93 24.5q129 0 129 -122z" />
    <glyph glyph-name="ncommaaccent" unicode="&#x146;" horiz-adv-x="1163" 
d="M141 1088h174l15 -120h11q65 66 151.5 101.5t183.5 35.5q166 0 261 -95.5t95 -302.5v-707h-208v696q0 121 -52.5 173.5t-152.5 52.5q-73 0 -146.5 -31.5t-123.5 -95.5v-795h-208v1088zM714 -274q0 -46 -17 -101t-46 -101h-130q37 79 46 142q-53 4 -80 28t-27 63
q0 42 32 66.5t93 24.5q129 0 129 -122z" />
    <glyph glyph-name="Ncaron" unicode="&#x147;" horiz-adv-x="1491" 
d="M1133 1480h200v-1480h-215l-760 1157v-1157h-200v1480h215l760 -1157v1157zM916 1894h170l-247 -290h-185l-248 290h170l170 -205z" />
    <glyph glyph-name="ncaron" unicode="&#x148;" horiz-adv-x="1163" 
d="M141 1088h174l15 -120h11q65 66 151.5 101.5t183.5 35.5q166 0 261 -95.5t95 -302.5v-707h-208v696q0 121 -52.5 173.5t-152.5 52.5q-73 0 -146.5 -31.5t-123.5 -95.5v-795h-208v1088zM747 1616h159l-229 -369h-180l-229 369h159l160 -267z" />
    <glyph glyph-name="napostrophe" unicode="&#x149;" horiz-adv-x="1163" 
d="M141 1088h174l15 -120h11q65 66 151.5 101.5t183.5 35.5q166 0 261 -95.5t95 -302.5v-707h-208v696q0 121 -52.5 173.5t-152.5 52.5q-73 0 -146.5 -31.5t-123.5 -95.5v-795h-208v1088zM266 1503q0 -46 -17 -101.5t-46 -100.5h-130q37 79 46 142q-53 4 -80 28t-27 63
q0 42 32 66.5t93 24.5q129 0 129 -122z" />
    <glyph glyph-name="Eng" unicode="&#x14a;" horiz-adv-x="1491" 
d="M1333 1480v-1282q0 -204 -56.5 -357t-187.5 -307l-137 92q69 91 109.5 179t57.5 189l-761 1162v-1156h-200v1480h215l760 -1155v1155h200z" />
    <glyph glyph-name="eng" unicode="&#x14b;" horiz-adv-x="1163" 
d="M652 -374q93 125 132.5 250.5t39.5 295.5v526q0 122 -53 174t-152 52q-74 0 -147 -32t-123 -95v-797h-208v1088h174l15 -120h11q66 68 151.5 102.5t184.5 34.5q166 0 260.5 -95t94.5 -302v-550q-5 -184 -60 -329t-183 -295z" />
    <glyph glyph-name="Omacron" unicode="&#x14c;" horiz-adv-x="1476" 
d="M398 62q-143 81 -221 250.5t-78 427.5t78.5 427.5t221.5 250.5t339 81q197 0 340 -81t221 -250.5t78 -427.5t-78.5 -427.5t-221.5 -250.5t-339 -81q-197 0 -340 81zM1050 294.5q109 136.5 109 439.5q0 311 -109.5 449.5t-311.5 138.5t-311.5 -136t-109.5 -440
q0 -312 109 -450t312 -138t312 136.5zM413 1683v133h650v-133h-650z" />
    <glyph glyph-name="omacron" unicode="&#x14d;" horiz-adv-x="1138" 
d="M213.5 119.5q-127.5 139.5 -127.5 422.5q0 284 126.5 423.5t356.5 139.5t356.5 -139t126.5 -423q0 -282 -127.5 -422.5t-355.5 -140.5t-355.5 139.5zM772 235q69 91 69 305q0 218 -69 309.5t-203 91.5q-133 0 -202 -90.5t-69 -305.5q0 -218 68.5 -309.5t202.5 -91.5
t203 91zM245 1355v134h648v-134h-648z" />
    <glyph glyph-name="Obreve" unicode="&#x14e;" horiz-adv-x="1476" 
d="M398 62q-143 81 -221 250.5t-78 427.5t78.5 427.5t221.5 250.5t339 81q197 0 340 -81t221 -250.5t78 -427.5t-78.5 -427.5t-221.5 -250.5t-339 -81q-197 0 -340 81zM1050 294.5q109 136.5 109 439.5q0 311 -109.5 449.5t-311.5 138.5t-311.5 -136t-109.5 -440
q0 -312 109 -450t312 -138t312 136.5zM499 1682q-86 71 -99 195h135q12 -77 59.5 -114.5t144.5 -37.5t144 37.5t58 114.5h135q-13 -125 -97.5 -195.5t-239.5 -70.5q-154 0 -240 71z" />
    <glyph glyph-name="obreve" unicode="&#x14f;" horiz-adv-x="1138" 
d="M213.5 119.5q-127.5 139.5 -127.5 422.5q0 284 126.5 423.5t356.5 139.5t356.5 -139t126.5 -423q0 -282 -127.5 -422.5t-355.5 -140.5t-355.5 139.5zM772 235q69 91 69 305q0 218 -69 309.5t-203 91.5q-133 0 -202 -90.5t-69 -305.5q0 -218 68.5 -309.5t202.5 -91.5
t203 91zM340.5 1343.5q-83.5 86.5 -90.5 247.5h134q7 -108 52.5 -163t133.5 -55t133 54.5t51 163.5h134q-7 -162 -89.5 -248t-228.5 -86t-229.5 86.5z" />
    <glyph glyph-name="Ohungarumlaut" unicode="&#x150;" horiz-adv-x="1476" 
d="M398 62q-143 81 -221 250.5t-78 427.5t78.5 427.5t221.5 250.5t339 81q197 0 340 -81t221 -250.5t78 -427.5t-78.5 -427.5t-221.5 -250.5t-339 -81q-197 0 -340 81zM1050 294.5q109 136.5 109 439.5q0 311 -109.5 449.5t-311.5 138.5t-311.5 -136t-109.5 -440
q0 -312 109 -450t312 -138t312 136.5zM479 1604l131 290h172l-143 -290h-160zM837 1604l132 290h171l-143 -290h-160z" />
    <glyph glyph-name="ohungarumlaut" unicode="&#x151;" horiz-adv-x="1138" 
d="M213.5 119.5q-127.5 139.5 -127.5 422.5q0 284 126.5 423.5t356.5 139.5t356.5 -139t126.5 -423q0 -282 -127.5 -422.5t-355.5 -140.5t-355.5 139.5zM772 235q69 91 69 305q0 218 -69 309.5t-203 91.5q-133 0 -202 -90.5t-69 -305.5q0 -218 68.5 -309.5t202.5 -91.5
t203 91zM312 1247l143 369h170l-155 -369h-158zM668 1247l143 369h170l-155 -369h-158z" />
    <glyph glyph-name="OE" unicode="&#x152;" horiz-adv-x="2039" 
d="M1967 175v-175h-778q-31 0 -77 -2t-68 -3q-110 -6 -167 -6q-390 0 -584 182.5t-194 568.5q0 381 195 567t574 186q73 0 167 -7q102 -6 146 -6h776v-175h-711v-459h612v-175h-612v-496h721zM1037 1306q-99 10 -202 10q-262 0 -390.5 -138t-128.5 -439q0 -300 130.5 -436.5
t394.5 -136.5q121 0 196 8v1132z" />
    <glyph glyph-name="oe" unicode="&#x153;" horiz-adv-x="1796" 
d="M1724 479h-676q4 -122 42 -195t113 -106t195 -33q117 0 270 41v-164q-155 -42 -295 -42q-162 0 -271 49t-169 151q-56 -99 -150.5 -149.5t-223.5 -50.5q-221 0 -347 139.5t-126 422.5t125 423t348 140q134 0 230.5 -53t151.5 -159q52 105 143.5 158.5t215.5 53.5
q203 0 313.5 -141.5t110.5 -423.5v-61zM1112.5 881q-61.5 -82 -65.5 -270h480q-4 189 -63 270.5t-174 81.5q-116 0 -177.5 -82zM767.5 235q68.5 91 68.5 305q0 218 -68.5 309.5t-200.5 91.5t-200.5 -90.5t-68.5 -305.5q0 -218 68.5 -309.5t200.5 -91.5t200.5 91z" />
    <glyph glyph-name="Racute" unicode="&#x154;" horiz-adv-x="1329" 
d="M1053 0l-434 591q-20 -1 -61 -1q-82 0 -192 7v-597h-208v1453q213 43 415 43q303 0 450.5 -109.5t147.5 -339.5q1 -167 -87 -274.5t-257 -151.5l460 -621h-234zM366 764q107 -9 195 -9q213 0 311.5 70t98.5 220q0 102 -40 165.5t-123.5 93t-216.5 29.5q-64 0 -115.5 -5
t-109.5 -15v-549zM549 1604l179 290h222l-212 -290h-189z" />
    <glyph glyph-name="racute" unicode="&#x155;" horiz-adv-x="751" 
d="M141 1088h173l16 -145h12q51 77 133 117t176 40q45 0 88 -8v-191q-45 7 -99 7q-82 0 -162.5 -36t-128.5 -102v-770h-208v1088zM338 1247l219 369h223l-252 -369h-190z" />
    <glyph glyph-name="Rcommaaccent" unicode="&#x156;" horiz-adv-x="1329" 
d="M1053 0l-434 591q-20 -1 -61 -1q-82 0 -192 7v-597h-208v1453q213 43 415 43q303 0 450.5 -109.5t147.5 -339.5q1 -167 -87 -274.5t-257 -151.5l460 -621h-234zM366 764q107 -9 195 -9q213 0 311.5 70t98.5 220q0 102 -40 165.5t-123.5 93t-216.5 29.5q-64 0 -115.5 -5
t-109.5 -15v-549zM823 -274q0 -46 -17 -101t-46 -101h-130q37 79 46 142q-53 4 -80 28t-27 63q0 42 32 66.5t93 24.5q129 0 129 -122z" />
    <glyph glyph-name="rcommaaccent" unicode="&#x157;" horiz-adv-x="751" 
d="M141 1088h173l16 -145h12q51 77 133 117t176 40q45 0 88 -8v-191q-45 7 -99 7q-82 0 -162.5 -36t-128.5 -102v-770h-208v1088zM373 -274q0 -46 -17 -101t-46 -101h-130q37 79 46 142q-53 4 -80 28t-27 63q0 42 32 66.5t93 24.5q129 0 129 -122z" />
    <glyph glyph-name="Rcaron" unicode="&#x158;" horiz-adv-x="1329" 
d="M1053 0l-434 591q-20 -1 -61 -1q-82 0 -192 7v-597h-208v1453q213 43 415 43q303 0 450.5 -109.5t147.5 -339.5q1 -167 -87 -274.5t-257 -151.5l460 -621h-234zM366 764q107 -9 195 -9q213 0 311.5 70t98.5 220q0 102 -40 165.5t-123.5 93t-216.5 29.5q-64 0 -115.5 -5
t-109.5 -15v-549zM814 1894h170l-247 -290h-185l-248 290h170l170 -205z" />
    <glyph glyph-name="rcaron" unicode="&#x159;" horiz-adv-x="751" 
d="M141 1088h173l16 -145h12q51 77 133 117t176 40q45 0 88 -8v-191q-45 7 -99 7q-82 0 -162.5 -36t-128.5 -102v-770h-208v1088zM593 1616h159l-229 -369h-180l-229 369h159l160 -267z" />
    <glyph glyph-name="Sacute" unicode="&#x15a;" horiz-adv-x="1090" 
d="M280.5 -3.5q-98.5 15.5 -185.5 45.5v178q92 -31 191 -47t189 -16q335 0 335 241q0 67 -26.5 111.5t-84.5 75.5t-160 58l-90 23q-192 49 -286.5 148.5t-94.5 261.5q0 133 62 227.5t186 145t306 50.5q90 0 176 -11.5t156 -33.5v-177q-152 46 -323 46q-351 0 -351 -235
q0 -65 23.5 -108.5t77.5 -74t148 -55.5l89 -23q209 -53 306.5 -152.5t97.5 -262.5q0 -135 -64.5 -232t-187.5 -148t-296 -51q-95 0 -193.5 15.5zM459 1604l179 290h222l-212 -290h-189z" />
    <glyph glyph-name="sacute" unicode="&#x15b;" horiz-adv-x="923" 
d="M104 25v162q156 -47 313 -47q128 0 187.5 41t59.5 119q0 64 -33.5 97.5t-113.5 50.5l-156 31q-147 29 -213.5 103t-66.5 198q0 97 50 170.5t152 114t253 40.5q142 0 266 -33v-162q-127 35 -261 35q-140 0 -202 -43.5t-62 -116.5q0 -58 32.5 -93t110.5 -52l156 -30
q149 -31 217 -102.5t68 -198.5q0 -102 -51 -176t-150.5 -113.5t-240.5 -39.5q-171 0 -315 45zM371 1247l219 369h223l-252 -369h-190z" />
    <glyph glyph-name="Scircumflex" unicode="&#x15c;" horiz-adv-x="1090" 
d="M280.5 -3.5q-98.5 15.5 -185.5 45.5v178q92 -31 191 -47t189 -16q335 0 335 241q0 67 -26.5 111.5t-84.5 75.5t-160 58l-90 23q-192 49 -286.5 148.5t-94.5 261.5q0 133 62 227.5t186 145t306 50.5q90 0 176 -11.5t156 -33.5v-177q-152 46 -323 46q-351 0 -351 -235
q0 -65 23.5 -108.5t77.5 -74t148 -55.5l89 -23q209 -53 306.5 -152.5t97.5 -262.5q0 -135 -64.5 -232t-187.5 -148t-296 -51q-95 0 -193.5 15.5zM894 1604h-170l-170 205l-170 -205h-170l248 290h185z" />
    <glyph glyph-name="scircumflex" unicode="&#x15d;" horiz-adv-x="923" 
d="M104 25v162q156 -47 313 -47q128 0 187.5 41t59.5 119q0 64 -33.5 97.5t-113.5 50.5l-156 31q-147 29 -213.5 103t-66.5 198q0 97 50 170.5t152 114t253 40.5q142 0 266 -33v-162q-127 35 -261 35q-140 0 -202 -43.5t-62 -116.5q0 -58 32.5 -93t110.5 -52l156 -30
q149 -31 217 -102.5t68 -198.5q0 -102 -51 -176t-150.5 -113.5t-240.5 -39.5q-171 0 -315 45zM782 1247h-158l-158 266l-158 -266h-158l226 369h180z" />
    <glyph glyph-name="Scedilla" unicode="&#x15e;" horiz-adv-x="1090" 
d="M912 124.5q-110 -109.5 -313 -135.5v-86q86 -8 133 -49.5t47 -111.5q0 -80 -61 -123t-176 -43q-109 0 -196 35v94q93 -37 187 -37q63 0 95 19t32 61q0 81 -129 81h-43v152h-14q-95 0 -193.5 15.5t-185.5 45.5v178q92 -31 191 -47t189 -16q335 0 335 241q0 67 -26.5 111.5
t-84.5 75.5t-160 58l-90 23q-192 49 -286.5 148.5t-94.5 261.5q0 133 62 227.5t186 145t306 50.5q90 0 176 -11.5t156 -33.5v-177q-152 46 -323 46q-351 0 -351 -235q0 -65 23.5 -108.5t77.5 -74t148 -55.5l89 -23q209 -53 306.5 -152.5t97.5 -262.5q0 -178 -110 -287.5z
" />
    <glyph glyph-name="scedilla" unicode="&#x15f;" horiz-adv-x="923" 
d="M775 92.5q-86 -83.5 -247 -105.5v-86q77 -11 117.5 -52.5t40.5 -108.5q0 -77 -56.5 -120.5t-163.5 -43.5q-47 0 -92.5 9t-81.5 25v94q79 -36 167 -36q55 0 82 19.5t27 60.5q0 81 -111 81h-40v151q-170 0 -313 45v162q156 -47 313 -47q128 0 187.5 41t59.5 119
q0 64 -33.5 97.5t-113.5 50.5l-156 31q-147 29 -213.5 103t-66.5 198q0 97 50 170.5t152 114t253 40.5q142 0 266 -33v-162q-127 35 -261 35q-140 0 -202 -43.5t-62 -116.5q0 -58 32.5 -93t110.5 -52l156 -30q149 -31 217 -102.5t68 -198.5q0 -133 -86 -216.5z" />
    <glyph glyph-name="Scaron" unicode="&#x160;" horiz-adv-x="1090" 
d="M280.5 -3.5q-98.5 15.5 -185.5 45.5v178q92 -31 191 -47t189 -16q335 0 335 241q0 67 -26.5 111.5t-84.5 75.5t-160 58l-90 23q-192 49 -286.5 148.5t-94.5 261.5q0 133 62 227.5t186 145t306 50.5q90 0 176 -11.5t156 -33.5v-177q-152 46 -323 46q-351 0 -351 -235
q0 -65 23.5 -108.5t77.5 -74t148 -55.5l89 -23q209 -53 306.5 -152.5t97.5 -262.5q0 -135 -64.5 -232t-187.5 -148t-296 -51q-95 0 -193.5 15.5zM724 1894h170l-247 -290h-185l-248 290h170l170 -205z" />
    <glyph glyph-name="scaron" unicode="&#x161;" horiz-adv-x="923" 
d="M104 25v162q156 -47 313 -47q128 0 187.5 41t59.5 119q0 64 -33.5 97.5t-113.5 50.5l-156 31q-147 29 -213.5 103t-66.5 198q0 97 50 170.5t152 114t253 40.5q142 0 266 -33v-162q-127 35 -261 35q-140 0 -202 -43.5t-62 -116.5q0 -58 32.5 -93t110.5 -52l156 -30
q149 -31 217 -102.5t68 -198.5q0 -102 -51 -176t-150.5 -113.5t-240.5 -39.5q-171 0 -315 45zM626 1616h159l-229 -369h-180l-229 369h159l160 -267z" />
    <glyph glyph-name="uni0162" unicode="&#x162;" horiz-adv-x="1208" 
d="M649 0v-97q86 -8 133 -49.5t47 -111.5q0 -80 -61 -123t-176 -43q-109 0 -196 35v94q93 -37 187 -37q63 0 95 19t32 61q0 81 -129 81h-43v171h-40v1299h-485v181h1182v-181h-485v-1299h-61z" />
    <glyph glyph-name="uni0163" unicode="&#x163;" horiz-adv-x="777" 
d="M544 -18v-81q77 -11 117.5 -52.5t40.5 -108.5q0 -77 -56.5 -120.5t-163.5 -43.5q-47 0 -92.5 9t-81.5 25v94q79 -36 167 -36q55 0 82 19.5t27 60.5q0 81 -111 81h-40v170q-225 64 -225 358v563h-196v168h196l36 392h172v-392h326v-168h-326v-530q0 -127 51 -180t161 -53
q54 0 128 16v-172q-93 -20 -178 -20q-23 0 -34 1z" />
    <glyph glyph-name="Tcaron" unicode="&#x164;" horiz-adv-x="1208" 
d="M498 0v1299h-485v181h1182v-181h-485v-1299h-212zM774 1894h170l-247 -290h-185l-248 290h170l170 -205z" />
    <glyph glyph-name="tcaron" unicode="&#x165;" horiz-adv-x="777" 
d="M756 173v-172q-93 -20 -178 -20q-370 0 -370 376v563h-196v168h196l36 392h172v-392h326v-168h-326v-530q0 -127 51 -180t161 -53q54 0 128 16zM578 1616h147q0 -114 -13.5 -228t-40.5 -208h-117q24 184 24 436z" />
    <glyph glyph-name="Tbar" unicode="&#x166;" horiz-adv-x="1208" 
d="M1195 1299h-485v-468h317v-142h-317v-689h-212v689h-316v142h316v468h-485v181h1182v-181z" />
    <glyph glyph-name="tbar" unicode="&#x167;" horiz-adv-x="777" 
d="M756 173v-172q-93 -20 -178 -20q-370 0 -370 376v194h-139v136h139v233h-196v168h196l36 392h172v-392h326v-168h-326v-233h277v-136h-277v-161q0 -127 51 -180t161 -53q54 0 128 16z" />
    <glyph glyph-name="Utilde" unicode="&#x168;" horiz-adv-x="1440" 
d="M289.5 125.5q-138.5 144.5 -138.5 450.5v904h211v-926q0 -206 87 -300t273 -94t273 94t87 300v926h207v-904q0 -306 -137 -450.5t-430 -144.5q-294 0 -432.5 144.5zM801 1663q-37 10 -95 30q-46 18 -79.5 27t-67.5 9q-55 0 -97 -17t-83 -54v133q34 34 78.5 51t104.5 17
q44 0 83.5 -10.5t92.5 -30.5q51 -19 82 -27.5t65 -8.5q55 0 97 17t83 54v-133q-34 -34 -78.5 -50.5t-104.5 -16.5q-44 0 -81 10z" />
    <glyph glyph-name="utilde" unicode="&#x169;" horiz-adv-x="1153" 
d="M225 76.5q-95 94.5 -95 301.5v710h208v-698q0 -120 52.5 -172.5t148.5 -52.5q72 0 144 31.5t121 94.5v797h208v-1088h-174l-15 117h-11q-65 -67 -149 -101t-178 -34q-165 0 -260 94.5zM643 1339q-37 12 -87 34q-45 20 -75 29.5t-60 9.5q-50 0 -91.5 -19t-81.5 -60v141
q67 70 176 70q40 0 77 -11.5t88 -33.5q46 -20 75 -29.5t59 -9.5q51 0 92 18.5t81 59.5v-141q-67 -70 -176 -70q-40 0 -77 12z" />
    <glyph glyph-name="Umacron" unicode="&#x16a;" horiz-adv-x="1440" 
d="M289.5 125.5q-138.5 144.5 -138.5 450.5v904h211v-926q0 -206 87 -300t273 -94t273 94t87 300v926h207v-904q0 -306 -137 -450.5t-430 -144.5q-294 0 -432.5 144.5zM397 1683v133h650v-133h-650z" />
    <glyph glyph-name="umacron" unicode="&#x16b;" horiz-adv-x="1153" 
d="M225 76.5q-95 94.5 -95 301.5v710h208v-698q0 -120 52.5 -172.5t148.5 -52.5q72 0 144 31.5t121 94.5v797h208v-1088h-174l-15 117h-11q-65 -67 -149 -101t-178 -34q-165 0 -260 94.5zM248 1355v134h648v-134h-648z" />
    <glyph glyph-name="Ubreve" unicode="&#x16c;" horiz-adv-x="1440" 
d="M289.5 125.5q-138.5 144.5 -138.5 450.5v904h211v-926q0 -206 87 -300t273 -94t273 94t87 300v926h207v-904q0 -306 -137 -450.5t-430 -144.5q-294 0 -432.5 144.5zM483 1682q-86 71 -99 195h135q12 -77 59.5 -114.5t144.5 -37.5t144 37.5t58 114.5h135
q-13 -125 -97.5 -195.5t-239.5 -70.5q-154 0 -240 71z" />
    <glyph glyph-name="ubreve" unicode="&#x16d;" horiz-adv-x="1153" 
d="M225 76.5q-95 94.5 -95 301.5v710h208v-698q0 -120 52.5 -172.5t148.5 -52.5q72 0 144 31.5t121 94.5v797h208v-1088h-174l-15 117h-11q-65 -67 -149 -101t-178 -34q-165 0 -260 94.5zM343.5 1343.5q-83.5 86.5 -90.5 247.5h134q7 -108 52.5 -163t133.5 -55t133 54.5
t51 163.5h134q-7 -162 -89.5 -248t-228.5 -86t-229.5 86.5z" />
    <glyph glyph-name="Uring" unicode="&#x16e;" horiz-adv-x="1440" 
d="M289.5 125.5q-138.5 144.5 -138.5 450.5v904h211v-926q0 -206 87 -300t273 -94t273 94t87 300v926h207v-904q0 -306 -137 -450.5t-430 -144.5q-294 0 -432.5 144.5zM619 1620.5q-46 25.5 -72 70.5t-26 102t26 102t72 70.5t103 25.5t103 -25.5t72 -70.5t26 -102t-26 -102
t-72 -70.5t-103 -25.5t-103 25.5zM801 1711.5q30 30.5 30 81.5t-30 81.5t-79 30.5t-79 -30.5t-30 -81.5t30 -81.5t79 -30.5t79 30.5z" />
    <glyph glyph-name="uring" unicode="&#x16f;" horiz-adv-x="1153" 
d="M225 76.5q-95 94.5 -95 301.5v710h208v-698q0 -120 52.5 -172.5t148.5 -52.5q72 0 144 31.5t121 94.5v797h208v-1088h-174l-15 117h-11q-65 -67 -149 -101t-178 -34q-165 0 -260 94.5zM469 1267.5q-46 25.5 -72 70.5t-26 102t26 102t72 70.5t103 25.5t103 -25.5t72 -70.5
t26 -102t-26 -102t-72 -70.5t-103 -25.5t-103 25.5zM651 1358.5q30 30.5 30 81.5t-30 81.5t-79 30.5t-79 -30.5t-30 -81.5t30 -81.5t79 -30.5t79 30.5z" />
    <glyph glyph-name="Uhungarumlaut" unicode="&#x170;" horiz-adv-x="1440" 
d="M289.5 125.5q-138.5 144.5 -138.5 450.5v904h211v-926q0 -206 87 -300t273 -94t273 94t87 300v926h207v-904q0 -306 -137 -450.5t-430 -144.5q-294 0 -432.5 144.5zM463 1604l131 290h172l-143 -290h-160zM821 1604l132 290h171l-143 -290h-160z" />
    <glyph glyph-name="uhungarumlaut" unicode="&#x171;" horiz-adv-x="1153" 
d="M225 76.5q-95 94.5 -95 301.5v710h208v-698q0 -120 52.5 -172.5t148.5 -52.5q72 0 144 31.5t121 94.5v797h208v-1088h-174l-15 117h-11q-65 -67 -149 -101t-178 -34q-165 0 -260 94.5zM315 1247l143 369h170l-155 -369h-158zM671 1247l143 369h170l-155 -369h-158z" />
    <glyph glyph-name="Uogonek" unicode="&#x172;" horiz-adv-x="1440" 
d="M1289 1480v-904q0 -233 -80.5 -373t-251.5 -192q-147 -46 -207 -103t-60 -125q0 -111 145 -111q35 0 71.5 8t83.5 27v-94q-88 -36 -178 -36q-123 0 -186 50.5t-63 143.5q0 129 132 210q-280 7 -412 151.5t-132 443.5v904h211v-926q0 -206 87 -300t273 -94t273 94t87 300
v926h207z" />
    <glyph glyph-name="uogonek" unicode="&#x173;" horiz-adv-x="1153" 
d="M1081 -292v-95q-74 -37 -162 -37q-110 0 -170 51t-60 140q0 69 35.5 126.5t113.5 107.5l-15 116h-11q-65 -67 -149 -101t-178 -34q-165 0 -260 94.5t-95 301.5v710h208v-698q0 -120 52.5 -172.5t148.5 -52.5q72 0 144 31.5t121 94.5v797h208v-1088q-107 -53 -151.5 -105
t-44.5 -115q0 -51 32.5 -80t92.5 -29q67 0 140 37z" />
    <glyph glyph-name="Wcircumflex" unicode="&#x174;" horiz-adv-x="2162" 
d="M1912 1480h202l-408 -1480h-275l-347 1248l-354 -1248h-274l-409 1480h216l344 -1287l358 1287h242l354 -1294zM1422 1604h-170l-170 205l-170 -205h-170l248 290h185z" />
    <glyph glyph-name="wcircumflex" unicode="&#x175;" horiz-adv-x="1726" 
d="M1479 1088h193l-310 -1088h-238l-259 885l-262 -885h-238l-311 1088h201l240 -867l254 867h238l249 -862zM1181 1247h-158l-158 266l-158 -266h-158l226 369h180z" />
    <glyph glyph-name="Ycircumflex" unicode="&#x176;" horiz-adv-x="1208" 
d="M1236 1480l-525 -832v-648h-212v647l-537 833h229l419 -648l412 648h214zM944 1604h-170l-170 205l-170 -205h-170l248 290h185z" />
    <glyph glyph-name="ycircumflex" unicode="&#x177;" horiz-adv-x="1089" 
d="M871 1088h207l-564 -1528h-206l164 440h-60l-401 1088h219l317 -912zM862 1247h-158l-158 266l-158 -266h-158l226 369h180z" />
    <glyph glyph-name="Ydieresis" unicode="&#x178;" horiz-adv-x="1208" 
d="M1236 1480l-525 -832v-648h-212v647l-537 833h229l419 -648l412 648h214zM271 1671q-32 29 -32 80t32 80.5t91 29.5t91.5 -29.5t32.5 -80.5t-32.5 -80t-91.5 -29t-91 29zM754.5 1671q-32.5 29 -32.5 80t32.5 80.5t91.5 29.5t91 -29.5t32 -80.5t-32 -80t-91 -29t-91.5 29z
" />
    <glyph glyph-name="Zacute" unicode="&#x179;" horiz-adv-x="1179" 
d="M336 180h782v-180h-1058v117l771 1183h-760v180h1036v-117zM495 1604l179 290h222l-212 -290h-189z" />
    <glyph glyph-name="zacute" unicode="&#x17a;" horiz-adv-x="945" 
d="M320 168h573v-168h-830v130l561 790h-550v168h807v-130zM383 1247l219 369h223l-252 -369h-190z" />
    <glyph glyph-name="Zdotaccent" unicode="&#x17b;" horiz-adv-x="1179" 
d="M336 180h782v-180h-1058v117l771 1183h-760v180h1036v-117zM488.5 1671q-35.5 29 -35.5 80q0 52 35.5 81t101.5 29t101.5 -29t35.5 -81q0 -51 -35.5 -80t-101.5 -29t-101.5 29z" />
    <glyph glyph-name="zdotaccent" unicode="&#x17c;" horiz-adv-x="945" 
d="M320 168h573v-168h-830v130l561 790h-550v168h807v-130zM376 1331q-35 31 -35 89t35 90t102 32t102 -32t35 -90t-35 -89t-102 -31t-102 31z" />
    <glyph glyph-name="Zcaron" unicode="&#x17d;" horiz-adv-x="1179" 
d="M336 180h782v-180h-1058v117l771 1183h-760v180h1036v-117zM760 1894h170l-247 -290h-185l-248 290h170l170 -205z" />
    <glyph glyph-name="zcaron" unicode="&#x17e;" horiz-adv-x="945" 
d="M320 168h573v-168h-830v130l561 790h-550v168h807v-130zM638 1616h159l-229 -369h-180l-229 369h159l160 -267z" />
    <glyph glyph-name="uni018F" unicode="&#x18f;" horiz-adv-x="1465" 
d="M1168.5 1313.5q197.5 -185.5 197.5 -582.5q0 -254 -78 -421.5t-219 -248t-334 -80.5q-199 0 -343.5 79.5t-223.5 246.5t-79 422v84h1063q-12 188 -81 300t-193 161.5t-310 49.5q-96 0 -199.5 -11.5t-193.5 -35.5v176q191 46 409 46q387 0 584.5 -185.5zM1034.5 267.5
q105.5 115.5 118.5 384.5h-845q8 -182 59.5 -292t143 -159t225.5 -49q193 0 298.5 115.5z" />
    <glyph glyph-name="florin" unicode="&#x192;" horiz-adv-x="743" 
d="M481.5 1413q-58.5 -52 -58.5 -167v-158h326v-170h-326v-976q0 -195 -108.5 -298.5t-315.5 -103.5q-84 0 -152 12v170q69 -11 127 -11q124 0 183 52.5t59 166.5v988h-196v170h196v146q0 195 108.5 298.5t315.5 103.5q84 0 152 -12v-170q-69 11 -127 11q-125 0 -183.5 -52z
" />
    <glyph glyph-name="Ohorn" unicode="&#x1a0;" horiz-adv-x="1476" 
d="M1319 1119.5q58 -156.5 58 -379.5q0 -385 -169.5 -572t-469.5 -187q-197 0 -340 81t-221 250.5t-78 427.5t78.5 427.5t221.5 250.5t339 81q57 0 155 -12q10 -1 56.5 -6t91.5 -5q94 0 143 38.5t49 120.5q0 34 -5 66.5t-16 74.5h149q13 -37 18 -71.5t5 -78.5
q0 -113 -61 -179t-172 -81q110 -90 168 -246.5zM1050 294.5q109 136.5 109 439.5q0 311 -109.5 449.5t-311.5 138.5t-311.5 -136t-109.5 -440q0 -312 109 -450t312 -138t312 136.5z" />
    <glyph glyph-name="ohorn" unicode="&#x1a1;" horiz-adv-x="1138" 
d="M1052 543q0 -282 -127.5 -422.5t-355.5 -140.5t-355.5 139.5t-127.5 422.5q0 285 127 424t360 139q47 0 113 -6q52 -4 68 -4q188 0 188 161q0 64 -21 140h143q12 -37 17 -72t5 -77q0 -103 -49.5 -167t-139.5 -87q155 -140 155 -450zM772 235q69 91 69 305
q0 218 -69 309.5t-203 91.5q-133 0 -202 -90.5t-69 -305.5q0 -218 68.5 -309.5t202.5 -91.5t203 91z" />
    <glyph glyph-name="Uhorn" unicode="&#x1af;" horiz-adv-x="1442" 
d="M289.5 125.5q-138.5 144.5 -138.5 450.5v904h211v-926q0 -206 87 -300t273 -94t273 94t87 300v926h73q94 0 143 36.5t49 118.5q0 65 -21 141h150q13 -37 18 -71.5t5 -78.5q0 -105 -55.5 -168t-154.5 -78v-804q0 -306 -137 -450.5t-430 -144.5q-294 0 -432.5 144.5z" />
    <glyph glyph-name="uhorn" unicode="&#x1b0;" horiz-adv-x="1181" 
d="M1164.5 1067q-54.5 -66 -152.5 -85v-982h-174l-15 117h-11q-65 -67 -149 -101t-178 -34q-165 0 -260 94.5t-95 301.5v710h208v-698q0 -120 52.5 -172.5t148.5 -52.5q72 0 144 31.5t121 94.5v797h83q188 0 188 161q0 64 -21 140h142q13 -37 18 -71.5t5 -77.5
q0 -107 -54.5 -173z" />
    <glyph glyph-name="uni01C4" unicode="&#x1c4;" horiz-adv-x="2559" 
d="M158 9v1444q96 20 203.5 31t207.5 11q380 0 571 -186t191 -569q0 -389 -199.5 -571t-605.5 -182q-184 0 -368 22zM875.5 223q118.5 59 178 186t59.5 332q0 302 -131 440t-401 138q-96 0 -211 -18v-1126q88 -11 204 -11q183 0 301.5 59zM1716 180h782v-180h-1058v117
l771 1183h-760v180h1036v-117zM2140 1894h170l-247 -290h-185l-248 290h170l170 -205z" />
    <glyph glyph-name="uni01C5" unicode="&#x1c5;" horiz-adv-x="2374" 
d="M158 9v1444q96 20 203.5 31t207.5 11q380 0 571 -186t191 -569q0 -389 -199.5 -571t-605.5 -182q-184 0 -368 22zM875.5 223q118.5 59 178 186t59.5 332q0 302 -131 440t-401 138q-96 0 -211 -18v-1126q88 -11 204 -11q183 0 301.5 59zM1749 168h573v-168h-830v130
l561 790h-550v168h807v-130zM2077 1574h170l-247 -290h-185l-248 290h170l170 -205z" />
    <glyph glyph-name="uni01C6" unicode="&#x1c6;" horiz-adv-x="2104" 
d="M297.5 37q-97.5 56 -154.5 177t-57 308q0 290 142.5 436.5t421.5 146.5q73 0 160 -13v524h208v-1616h-176l-14 117h-12q-50 -63 -126 -99.5t-170 -36.5q-125 0 -222.5 56zM705.5 184.5q62.5 28.5 104.5 86.5v652q-76 17 -163 17q-177 0 -263 -95t-86 -306
q0 -210 72 -296.5t204 -86.5q69 0 131.5 28.5zM1479 168h573v-168h-830v130l561 790h-550v168h807v-130zM1797 1616h159l-229 -369h-180l-229 369h159l160 -267z" />
    <glyph glyph-name="uni01C7" unicode="&#x1c7;" horiz-adv-x="1622" 
d="M158 0v1480h212v-1299h713v-181h-925zM1080 -253q93 126 133 251.5t40 294.5v1187h211v-1200q-5 -184 -61 -329.5t-185 -295.5z" />
    <glyph glyph-name="uni01C8" unicode="&#x1c8;" horiz-adv-x="1585" 
d="M158 0v1480h212v-1299h713v-181h-925zM1063 -374q93 125 132.5 250.5t39.5 295.5v916h209v-906q0 -193 -56.5 -344t-187.5 -304zM1236 1335q-35 31 -35 89t35 90t102 32t102 -32t35 -90t-35 -89t-102 -31t-102 31z" />
    <glyph glyph-name="uni01C9" unicode="&#x1c9;" horiz-adv-x="982" 
d="M141 0v1616h208v-1616h-208zM460 -374q93 125 132.5 250.5t39.5 295.5v916h209v-906q0 -193 -56.5 -344t-187.5 -304zM633 1335q-35 31 -35 89t35 90t102 32t102 -32t35 -90t-35 -89t-102 -31t-102 31z" />
    <glyph glyph-name="uni01CA" unicode="&#x1ca;" horiz-adv-x="2019" 
d="M1133 1480h200v-1480h-215l-760 1157v-1157h-200v1480h215l760 -1157v1157zM1477 -253q93 126 133 251.5t40 294.5v1187h211v-1200q-5 -184 -61 -329.5t-185 -295.5z" />
    <glyph glyph-name="uni01CB" unicode="&#x1cb;" horiz-adv-x="1982" 
d="M1133 1480h200v-1480h-215l-760 1157v-1157h-200v1480h215l760 -1157v1157zM1460 -374q93 125 132.5 250.5t39.5 295.5v916h209v-906q0 -193 -56.5 -344t-187.5 -304zM1633 1335q-35 31 -35 89t35 90t102 32t102 -32t35 -90t-35 -89t-102 -31t-102 31z" />
    <glyph glyph-name="uni01CC" unicode="&#x1cc;" horiz-adv-x="1654" 
d="M141 1088h174l15 -120h11q65 66 151.5 101.5t183.5 35.5q166 0 261 -95.5t95 -302.5v-707h-208v696q0 121 -52.5 173.5t-152.5 52.5q-73 0 -146.5 -31.5t-123.5 -95.5v-795h-208v1088zM1132 -374q93 125 132.5 250.5t39.5 295.5v916h209v-906q0 -193 -56.5 -344
t-187.5 -304zM1305 1335q-35 31 -35 89t35 90t102 32t102 -32t35 -90t-35 -89t-102 -31t-102 31z" />
    <glyph glyph-name="Gcaron" unicode="&#x1e6;" horiz-adv-x="1371" 
d="M1227 720v-704q-180 -30 -343 -30q-393 0 -589 183t-196 568q-1 387 196.5 574.5t562.5 187.5q168 0 333 -42v-180q-157 42 -317 42q-182 0 -304.5 -58t-186 -186.5t-63.5 -338.5q0 -201 61 -327t182 -185t306 -59q82 0 160 8v547h198zM933 1894h170l-247 -290h-185
l-248 290h170l170 -205z" />
    <glyph glyph-name="gcaron" unicode="&#x1e7;" horiz-adv-x="1159" 
d="M321 -448q-88 12 -163 35v170q168 -51 319 -51q116 0 189 31t108.5 100t35.5 184v95h-11q-51 -60 -126 -94t-169 -34q-118 0 -212 55.5t-150 175t-56 303.5q0 289 143.5 435.5t427.5 147.5q92 0 187.5 -14t173.5 -39v-996q0 -182 -58 -296t-174 -167t-295 -53
q-82 0 -170 12zM704.5 189q62.5 27 105.5 80v652q-82 20 -170 20q-171 0 -256.5 -95.5t-85.5 -304.5q0 -208 72 -293.5t204 -85.5q68 0 130.5 27zM761 1616h159l-229 -369h-180l-229 369h159l160 -267z" />
    <glyph glyph-name="uni01EA" unicode="&#x1ea;" horiz-adv-x="1476" 
d="M768.5 -92.5q-59.5 -58.5 -59.5 -127.5q0 -53 36 -81t109 -28q68 0 156 35v-94q-88 -36 -178 -36q-122 0 -186.5 50.5t-64.5 140.5q0 64 32 117.5t103 96.5q-292 8 -454.5 195t-162.5 564q0 258 78.5 427.5t221.5 250.5t339 81t339 -80.5t221.5 -250t78.5 -428.5
q0 -309 -110 -486t-297 -239q-142 -49 -201.5 -107.5zM426 296q109 -138 312 -138t312 136.5t109 439.5q0 311 -109.5 449.5t-311.5 138.5t-311.5 -136t-109.5 -440q0 -312 109 -450z" />
    <glyph glyph-name="uni01EB" unicode="&#x1eb;" horiz-adv-x="1138" 
d="M568.5 -94q-51.5 -57 -51.5 -123q0 -54 33 -83t92 -29q64 0 128 30l12 -89q-75 -36 -162 -36q-109 0 -169.5 50.5t-60.5 140.5q0 133 125 215q-204 16 -316.5 155.5t-112.5 404.5q0 284 126.5 423.5t356.5 139.5t356.5 -139t126.5 -423q0 -222 -78.5 -354.5
t-225.5 -181.5q-128 -44 -179.5 -101zM366.5 235.5q68.5 -91.5 202.5 -91.5t203 91t69 305q0 218 -69 309.5t-203 91.5q-133 0 -202 -90.5t-69 -305.5q0 -218 68.5 -309.5z" />
    <glyph glyph-name="uni01F1" unicode="&#x1f1;" horiz-adv-x="2559" 
d="M158 9v1444q96 20 203.5 31t207.5 11q380 0 571 -186t191 -569q0 -389 -199.5 -571t-605.5 -182q-184 0 -368 22zM875.5 223q118.5 59 178 186t59.5 332q0 302 -131 440t-401 138q-96 0 -211 -18v-1126q88 -11 204 -11q183 0 301.5 59zM1716 180h782v-180h-1058v117
l771 1183h-760v180h1036v-117z" />
    <glyph glyph-name="uni01F2" unicode="&#x1f2;" horiz-adv-x="2374" 
d="M158 9v1444q96 20 203.5 31t207.5 11q380 0 571 -186t191 -569q0 -389 -199.5 -571t-605.5 -182q-184 0 -368 22zM875.5 223q118.5 59 178 186t59.5 332q0 302 -131 440t-401 138q-96 0 -211 -18v-1126q88 -11 204 -11q183 0 301.5 59zM1749 168h573v-168h-830v130
l561 790h-550v168h807v-130z" />
    <glyph glyph-name="uni01F3" unicode="&#x1f3;" horiz-adv-x="2104" 
d="M297.5 37q-97.5 56 -154.5 177t-57 308q0 290 142.5 436.5t421.5 146.5q73 0 160 -13v524h208v-1616h-176l-14 117h-12q-50 -63 -126 -99.5t-170 -36.5q-125 0 -222.5 56zM705.5 184.5q62.5 28.5 104.5 86.5v652q-76 17 -163 17q-177 0 -263 -95t-86 -306
q0 -210 72 -296.5t204 -86.5q69 0 131.5 28.5zM1479 168h573v-168h-830v130l561 790h-550v168h807v-130z" />
    <glyph glyph-name="uni01F4" unicode="&#x1f4;" horiz-adv-x="1371" 
d="M1227 720v-704q-180 -30 -343 -30q-393 0 -589 183t-196 568q-1 387 196.5 574.5t562.5 187.5q168 0 333 -42v-180q-157 42 -317 42q-182 0 -304.5 -58t-186 -186.5t-63.5 -338.5q0 -201 61 -327t182 -185t306 -59q82 0 160 8v547h198zM668 1604l179 290h222l-212 -290
h-189z" />
    <glyph glyph-name="uni01F5" unicode="&#x1f5;" horiz-adv-x="1159" 
d="M321 -448q-88 12 -163 35v170q168 -51 319 -51q116 0 189 31t108.5 100t35.5 184v95h-11q-51 -60 -126 -94t-169 -34q-118 0 -212 55.5t-150 175t-56 303.5q0 289 143.5 435.5t427.5 147.5q92 0 187.5 -14t173.5 -39v-996q0 -182 -58 -296t-174 -167t-295 -53
q-82 0 -170 12zM704.5 189q62.5 27 105.5 80v652q-82 20 -170 20q-171 0 -256.5 -95.5t-85.5 -304.5q0 -208 72 -293.5t204 -85.5q68 0 130.5 27zM506 1247l219 369h223l-252 -369h-190z" />
    <glyph glyph-name="Aringacute" unicode="&#x1fa;" horiz-adv-x="1380" 
d="M1144 0l-154 453h-603l-154 -453h-209l514 1480h303l515 -1480h-212zM446 628h484l-242 711zM860 1797q33 -49 33 -112q0 -57 -26 -102.5t-72 -71t-103 -25.5t-103 25.5t-72 71t-26 102.5q0 56 26 101.5t72 71t103 25.5q39 0 76 -13l117 128h166zM771 1602.5
q30 30.5 30 82.5q0 51 -30 81.5t-79 30.5t-79 -30.5t-30 -81.5q0 -52 30 -82.5t79 -30.5t79 30.5z" />
    <glyph glyph-name="aringacute" unicode="&#x1fb;" horiz-adv-x="1055" 
d="M732.5 1066q96.5 -39 144.5 -129t48 -244v-693h-173l-15 118h-12q-51 -66 -131 -101t-175 -35q-104 0 -179.5 36.5t-116 105t-40.5 160.5q0 148 99 229t313 99l226 23v69q0 91 -28.5 142t-87 72.5t-154.5 21.5q-67 0 -144.5 -11.5t-149.5 -35.5v164q70 23 158 35.5
t168 12.5q153 0 249.5 -39zM609 162.5q63 27.5 112 85.5v257l-209 -21q-116 -12 -168.5 -56t-52.5 -124q0 -83 47.5 -126t140.5 -43q67 0 130 27.5zM689 1557q36 -50 36 -117q0 -57 -26 -102t-72 -70.5t-103 -25.5t-103 25.5t-72 70.5t-26 102t26 102t72 70.5t103 25.5
q36 0 71 -11l124 153h165zM603 1358.5q30 30.5 30 81.5t-30 81.5t-79 30.5t-79 -30.5t-30 -81.5t30 -81.5t79 -30.5t79 30.5z" />
    <glyph glyph-name="AEacute" unicode="&#x1fc;" horiz-adv-x="1894" 
d="M1147 175h675v-175h-871l-32 453h-527l-158 -453h-210l521 1480h1267v-175h-748l34 -459h615v-175h-602zM452 628h455l-48 677h-171zM855 1604l179 290h222l-212 -290h-189z" />
    <glyph glyph-name="aeacute" unicode="&#x1fd;" horiz-adv-x="1674" 
d="M1602 479h-676q4 -122 42 -195t113.5 -106t195.5 -33q115 0 270 41v-164q-155 -42 -296 -42q-157 0 -265 44.5t-171 137.5q-81 -98 -175.5 -139t-203.5 -41q-111 0 -190 36.5t-121 104.5t-42 162q0 152 105 239t327 87h208v94q0 90 -29.5 141.5t-88.5 72.5t-154 21
q-66 0 -143.5 -11.5t-149.5 -35.5v164q73 23 156.5 35.5t161.5 12.5q143 0 234 -39t137 -125q54 81 138 122.5t193 41.5q203 0 313.5 -141.5t110.5 -423.5v-61zM990.5 881q-61.5 -82 -65.5 -270h481q-4 189 -63.5 270.5t-174.5 81.5q-116 0 -177.5 -82zM757 283
q-28 89 -32 200h-195q-126 0 -182.5 -48t-56.5 -133q0 -81 48.5 -123.5t142.5 -42.5q168 0 275 147zM732 1247l219 369h223l-252 -369h-190z" />
    <glyph glyph-name="Oslashacute" unicode="&#x1fe;" horiz-adv-x="1476" 
d="M1377 740q0 -258 -78.5 -427.5t-221.5 -250.5t-339 -81q-247 0 -402 123l-104 -138l-98 74l115 152q-150 194 -150 548q0 258 78.5 427.5t221.5 250.5t339 81q247 0 401 -123l104 138l98 -74l-114 -152q150 -194 150 -548zM382 370l638 848q-101 104 -282 104
q-202 0 -311.5 -136t-109.5 -440q0 -237 65 -376zM1050 294.5q109 136.5 109 439.5q0 238 -66 376l-638 -848q101 -104 283 -104q203 0 312 136.5zM640 1604l179 290h222l-212 -290h-189z" />
    <glyph glyph-name="oslashacute" unicode="&#x1ff;" horiz-adv-x="1138" 
d="M1052 543q0 -282 -127.5 -422.5t-355.5 -140.5q-166 0 -279 73l-66 -92l-96 70l74 102q-116 142 -116 409q0 284 126.5 423.5t356.5 139.5q166 0 277 -71l67 93l96 -70l-74 -102q117 -142 117 -412zM362.5 852q-70.5 -91 -70.5 -307q0 -155 37 -249l419 587
q-64 60 -179 60q-136 0 -206.5 -91zM776 233q70 91 70 307q0 159 -38 252l-419 -588q65 -62 180 -62q137 0 207 91zM470 1247l219 369h223l-252 -369h-190z" />
    <glyph glyph-name="uni0200" unicode="&#x200;" horiz-adv-x="1380" 
d="M1144 0l-154 453h-603l-154 -453h-209l514 1480h303l515 -1480h-212zM446 628h484l-242 711zM431 1604l-143 290h171l132 -290h-160zM789 1604l-143 290h172l131 -290h-160z" />
    <glyph glyph-name="uni0201" unicode="&#x201;" horiz-adv-x="1055" 
d="M732.5 1066q96.5 -39 144.5 -129t48 -244v-693h-173l-15 118h-12q-51 -66 -131 -101t-175 -35q-104 0 -179.5 36.5t-116 105t-40.5 160.5q0 148 99 229t313 99l226 23v69q0 91 -28.5 142t-87 72.5t-154.5 21.5q-67 0 -144.5 -11.5t-149.5 -35.5v164q70 23 158 35.5
t168 12.5q153 0 249.5 -39zM609 162.5q63 27.5 112 85.5v257l-209 -21q-116 -12 -168.5 -56t-52.5 -124q0 -83 47.5 -126t140.5 -43q67 0 130 27.5zM265 1247l-155 369h173l142 -369h-160zM623 1247l-155 369h173l142 -369h-160z" />
    <glyph glyph-name="uni0202" unicode="&#x202;" horiz-adv-x="1380" 
d="M1144 0l-154 453h-603l-154 -453h-209l514 1480h303l515 -1480h-212zM446 628h484l-242 711zM449.5 1816q84.5 70 239.5 70q154 0 240 -70.5t99 -194.5h-135q-12 77 -60 114.5t-144 37.5t-143.5 -37.5t-58.5 -114.5h-135q13 125 97.5 195z" />
    <glyph glyph-name="uni0203" unicode="&#x203;" horiz-adv-x="1055" 
d="M732.5 1066q96.5 -39 144.5 -129t48 -244v-693h-173l-15 118h-12q-51 -66 -131 -101t-175 -35q-104 0 -179.5 36.5t-116 105t-40.5 160.5q0 148 99 229t313 99l226 23v69q0 91 -28.5 142t-87 72.5t-154.5 21.5q-67 0 -144.5 -11.5t-149.5 -35.5v164q70 23 158 35.5
t168 12.5q153 0 249.5 -39zM609 162.5q63 27.5 112 85.5v257l-209 -21q-116 -12 -168.5 -56t-52.5 -124q0 -83 47.5 -126t140.5 -43q67 0 130 27.5zM294 1523.5q82 85.5 229 85.5q145 0 229 -86.5t91 -247.5h-134q-14 218 -186 218q-88 0 -133 -54.5t-51 -163.5h-134
q7 163 89 248.5z" />
    <glyph glyph-name="uni0204" unicode="&#x204;" horiz-adv-x="1193" 
d="M367 175h753v-175h-962v1480h952v-175h-743v-459h644v-175h-644v-496zM397 1604l-143 290h171l132 -290h-160zM755 1604l-143 290h172l131 -290h-160z" />
    <glyph glyph-name="uni0205" unicode="&#x205;" horiz-adv-x="1053" 
d="M981 479h-684q4 -122 42.5 -195t114.5 -106t199 -33q117 0 273 41v-164q-158 -42 -299 -42q-275 0 -408 135t-133 430q0 276 120.5 418t339.5 142q212 0 323.5 -141.5t111.5 -424.5v-60zM362.5 880.5q-62.5 -81.5 -66.5 -269.5h489q-4 188 -63.5 269.5t-177.5 81.5
q-119 0 -181.5 -81.5zM284 1247l-155 369h173l142 -369h-160zM642 1247l-155 369h173l142 -369h-160z" />
    <glyph glyph-name="uni0206" unicode="&#x206;" horiz-adv-x="1193" 
d="M367 175h753v-175h-962v1480h952v-175h-743v-459h644v-175h-644v-496zM415.5 1816q84.5 70 239.5 70q154 0 240 -70.5t99 -194.5h-135q-12 77 -60 114.5t-144 37.5t-143.5 -37.5t-58.5 -114.5h-135q13 125 97.5 195z" />
    <glyph glyph-name="uni0207" unicode="&#x207;" horiz-adv-x="1053" 
d="M981 479h-684q4 -122 42.5 -195t114.5 -106t199 -33q117 0 273 41v-164q-158 -42 -299 -42q-275 0 -408 135t-133 430q0 276 120.5 418t339.5 142q212 0 323.5 -141.5t111.5 -424.5v-60zM362.5 880.5q-62.5 -81.5 -66.5 -269.5h489q-4 188 -63.5 269.5t-177.5 81.5
q-119 0 -181.5 -81.5zM313 1523.5q82 85.5 229 85.5q145 0 229 -86.5t91 -247.5h-134q-14 218 -186 218q-88 0 -133 -54.5t-51 -163.5h-134q7 163 89 248.5z" />
    <glyph glyph-name="uni0208" unicode="&#x208;" horiz-adv-x="528" 
d="M158 0v1480h212v-1480h-212zM5 1604l-143 290h171l132 -290h-160zM363 1604l-143 290h172l131 -290h-160z" />
    <glyph glyph-name="uni0209" unicode="&#x209;" horiz-adv-x="491" 
d="M141 0v1088h209v-1088h-209zM-13 1247l-155 369h173l142 -369h-160zM345 1247l-155 369h173l142 -369h-160z" />
    <glyph glyph-name="uni020A" unicode="&#x20a;" horiz-adv-x="528" 
d="M158 0v1480h212v-1480h-212zM23.5 1816q84.5 70 239.5 70q154 0 240 -70.5t99 -194.5h-135q-12 77 -60 114.5t-144 37.5t-143.5 -37.5t-58.5 -114.5h-135q13 125 97.5 195z" />
    <glyph glyph-name="uni020B" unicode="&#x20b;" horiz-adv-x="491" 
d="M141 0v1088h209v-1088h-209zM16 1523.5q82 85.5 229 85.5q145 0 229 -86.5t91 -247.5h-134q-14 218 -186 218q-88 0 -133 -54.5t-51 -163.5h-134q7 163 89 248.5z" />
    <glyph glyph-name="uni020C" unicode="&#x20c;" horiz-adv-x="1476" 
d="M398 62q-143 81 -221 250.5t-78 427.5t78.5 427.5t221.5 250.5t339 81q197 0 340 -81t221 -250.5t78 -427.5t-78.5 -427.5t-221.5 -250.5t-339 -81q-197 0 -340 81zM1050 294.5q109 136.5 109 439.5q0 311 -109.5 449.5t-311.5 138.5t-311.5 -136t-109.5 -440
q0 -312 109 -450t312 -138t312 136.5zM479 1604l-143 290h171l132 -290h-160zM837 1604l-143 290h172l131 -290h-160z" />
    <glyph glyph-name="uni020D" unicode="&#x20d;" horiz-adv-x="1138" 
d="M213.5 119.5q-127.5 139.5 -127.5 422.5q0 284 126.5 423.5t356.5 139.5t356.5 -139t126.5 -423q0 -282 -127.5 -422.5t-355.5 -140.5t-355.5 139.5zM772 235q69 91 69 305q0 218 -69 309.5t-203 91.5q-133 0 -202 -90.5t-69 -305.5q0 -218 68.5 -309.5t202.5 -91.5
t203 91zM310 1247l-155 369h173l142 -369h-160zM668 1247l-155 369h173l142 -369h-160z" />
    <glyph glyph-name="uni020E" unicode="&#x20e;" horiz-adv-x="1476" 
d="M398 62q-143 81 -221 250.5t-78 427.5t78.5 427.5t221.5 250.5t339 81q197 0 340 -81t221 -250.5t78 -427.5t-78.5 -427.5t-221.5 -250.5t-339 -81q-197 0 -340 81zM1050 294.5q109 136.5 109 439.5q0 311 -109.5 449.5t-311.5 138.5t-311.5 -136t-109.5 -440
q0 -312 109 -450t312 -138t312 136.5zM497.5 1816q84.5 70 239.5 70q154 0 240 -70.5t99 -194.5h-135q-12 77 -60 114.5t-144 37.5t-143.5 -37.5t-58.5 -114.5h-135q13 125 97.5 195z" />
    <glyph glyph-name="uni020F" unicode="&#x20f;" horiz-adv-x="1138" 
d="M213.5 119.5q-127.5 139.5 -127.5 422.5q0 284 126.5 423.5t356.5 139.5t356.5 -139t126.5 -423q0 -282 -127.5 -422.5t-355.5 -140.5t-355.5 139.5zM772 235q69 91 69 305q0 218 -69 309.5t-203 91.5q-133 0 -202 -90.5t-69 -305.5q0 -218 68.5 -309.5t202.5 -91.5
t203 91zM339 1523.5q82 85.5 229 85.5q145 0 229 -86.5t91 -247.5h-134q-14 218 -186 218q-88 0 -133 -54.5t-51 -163.5h-134q7 163 89 248.5z" />
    <glyph glyph-name="uni0210" unicode="&#x210;" horiz-adv-x="1329" 
d="M1053 0l-434 591q-20 -1 -61 -1q-82 0 -192 7v-597h-208v1453q213 43 415 43q303 0 450.5 -109.5t147.5 -339.5q1 -167 -87 -274.5t-257 -151.5l460 -621h-234zM366 764q107 -9 195 -9q213 0 311.5 70t98.5 220q0 102 -40 165.5t-123.5 93t-216.5 29.5q-64 0 -115.5 -5
t-109.5 -15v-549zM385 1604l-143 290h171l132 -290h-160zM743 1604l-143 290h172l131 -290h-160z" />
    <glyph glyph-name="uni0211" unicode="&#x211;" horiz-adv-x="751" 
d="M141 1088h173l16 -145h12q51 77 133 117t176 40q45 0 88 -8v-191q-45 7 -99 7q-82 0 -162.5 -36t-128.5 -102v-770h-208v1088zM174 1247l-155 369h173l142 -369h-160zM532 1247l-155 369h173l142 -369h-160z" />
    <glyph glyph-name="uni0212" unicode="&#x212;" horiz-adv-x="1329" 
d="M1053 0l-434 591q-20 -1 -61 -1q-82 0 -192 7v-597h-208v1453q213 43 415 43q303 0 450.5 -109.5t147.5 -339.5q1 -167 -87 -274.5t-257 -151.5l460 -621h-234zM366 764q107 -9 195 -9q213 0 311.5 70t98.5 220q0 102 -40 165.5t-123.5 93t-216.5 29.5q-64 0 -115.5 -5
t-109.5 -15v-549zM403.5 1816q84.5 70 239.5 70q154 0 240 -70.5t99 -194.5h-135q-12 77 -60 114.5t-144 37.5t-143.5 -37.5t-58.5 -114.5h-135q13 125 97.5 195z" />
    <glyph glyph-name="uni0213" unicode="&#x213;" horiz-adv-x="751" 
d="M141 1088h173l16 -145h12q51 77 133 117t176 40q45 0 88 -8v-191q-45 7 -99 7q-82 0 -162.5 -36t-128.5 -102v-770h-208v1088zM203 1523.5q82 85.5 229 85.5q145 0 229 -86.5t91 -247.5h-134q-14 218 -186 218q-88 0 -133 -54.5t-51 -163.5h-134q7 163 89 248.5z" />
    <glyph glyph-name="uni0214" unicode="&#x214;" horiz-adv-x="1440" 
d="M289.5 125.5q-138.5 144.5 -138.5 450.5v904h211v-926q0 -206 87 -300t273 -94t273 94t87 300v926h207v-904q0 -306 -137 -450.5t-430 -144.5q-294 0 -432.5 144.5zM463 1604l-143 290h171l132 -290h-160zM821 1604l-143 290h172l131 -290h-160z" />
    <glyph glyph-name="uni0215" unicode="&#x215;" horiz-adv-x="1153" 
d="M225 76.5q-95 94.5 -95 301.5v710h208v-698q0 -120 52.5 -172.5t148.5 -52.5q72 0 144 31.5t121 94.5v797h208v-1088h-174l-15 117h-11q-65 -67 -149 -101t-178 -34q-165 0 -260 94.5zM313 1247l-155 369h173l142 -369h-160zM671 1247l-155 369h173l142 -369h-160z" />
    <glyph glyph-name="uni0216" unicode="&#x216;" horiz-adv-x="1440" 
d="M289.5 125.5q-138.5 144.5 -138.5 450.5v904h211v-926q0 -206 87 -300t273 -94t273 94t87 300v926h207v-904q0 -306 -137 -450.5t-430 -144.5q-294 0 -432.5 144.5zM481.5 1816q84.5 70 239.5 70q154 0 240 -70.5t99 -194.5h-135q-12 77 -60 114.5t-144 37.5
t-143.5 -37.5t-58.5 -114.5h-135q13 125 97.5 195z" />
    <glyph glyph-name="uni0217" unicode="&#x217;" horiz-adv-x="1153" 
d="M225 76.5q-95 94.5 -95 301.5v710h208v-698q0 -120 52.5 -172.5t148.5 -52.5q72 0 144 31.5t121 94.5v797h208v-1088h-174l-15 117h-11q-65 -67 -149 -101t-178 -34q-165 0 -260 94.5zM342 1523.5q82 85.5 229 85.5q145 0 229 -86.5t91 -247.5h-134q-14 218 -186 218
q-88 0 -133 -54.5t-51 -163.5h-134q7 163 89 248.5z" />
    <glyph glyph-name="Scommaaccent" unicode="&#x218;" horiz-adv-x="1090" 
d="M280.5 -3.5q-98.5 15.5 -185.5 45.5v178q92 -31 191 -47t189 -16q335 0 335 241q0 67 -26.5 111.5t-84.5 75.5t-160 58l-90 23q-192 49 -286.5 148.5t-94.5 261.5q0 133 62 227.5t186 145t306 50.5q90 0 176 -11.5t156 -33.5v-177q-152 46 -323 46q-351 0 -351 -235
q0 -65 23.5 -108.5t77.5 -74t148 -55.5l89 -23q209 -53 306.5 -152.5t97.5 -262.5q0 -135 -64.5 -232t-187.5 -148t-296 -51q-95 0 -193.5 15.5zM681 -274q0 -46 -17 -101t-46 -101h-130q37 79 46 142q-53 4 -80 28t-27 63q0 42 32 66.5t93 24.5q129 0 129 -122z" />
    <glyph glyph-name="scommaaccent" unicode="&#x219;" horiz-adv-x="923" 
d="M104 25v162q156 -47 313 -47q128 0 187.5 41t59.5 119q0 64 -33.5 97.5t-113.5 50.5l-156 31q-147 29 -213.5 103t-66.5 198q0 97 50 170.5t152 114t253 40.5q142 0 266 -33v-162q-127 35 -261 35q-140 0 -202 -43.5t-62 -116.5q0 -58 32.5 -93t110.5 -52l156 -30
q149 -31 217 -102.5t68 -198.5q0 -102 -51 -176t-150.5 -113.5t-240.5 -39.5q-171 0 -315 45zM593 -274q0 -46 -17 -101t-46 -101h-130q37 79 46 142q-53 4 -80 28t-27 63q0 42 32 66.5t93 24.5q129 0 129 -122z" />
    <glyph glyph-name="uni021A" unicode="&#x21a;" horiz-adv-x="1208" 
d="M498 0v1299h-485v181h1182v-181h-485v-1299h-212zM731 -274q0 -46 -17 -101t-46 -101h-130q37 79 46 142q-53 4 -80 28t-27 63q0 42 32 66.5t93 24.5q129 0 129 -122z" />
    <glyph glyph-name="uni021B" unicode="&#x21b;" horiz-adv-x="777" 
d="M756 173v-172q-93 -20 -178 -20q-370 0 -370 376v563h-196v168h196l36 392h172v-392h326v-168h-326v-530q0 -127 51 -180t161 -53q54 0 128 16zM609 -274q0 -46 -17 -101t-46 -101h-130q37 79 46 142q-53 4 -80 28t-27 63q0 42 32 66.5t93 24.5q129 0 129 -122z" />
    <glyph glyph-name="uni022A" unicode="&#x22a;" horiz-adv-x="1476" 
d="M398 62q-143 81 -221 250.5t-78 427.5t78.5 427.5t221.5 250.5t339 81q197 0 340 -81t221 -250.5t78 -427.5t-78.5 -427.5t-221.5 -250.5t-339 -81q-197 0 -340 81zM1050 294.5q109 136.5 109 439.5q0 311 -109.5 449.5t-311.5 138.5t-311.5 -136t-109.5 -440
q0 -312 109 -450t312 -138t312 136.5zM405 1671q-32 29 -32 80t32 80.5t91 29.5t91.5 -29.5t32.5 -80.5t-32.5 -80t-91.5 -29t-91 29zM888.5 1671q-32.5 29 -32.5 80t32.5 80.5t91.5 29.5t91 -29.5t32 -80.5t-32 -80t-91 -29t-91.5 29zM413 1979v133h650v-133h-650z" />
    <glyph glyph-name="uni022B" unicode="&#x22b;" horiz-adv-x="1138" 
d="M213.5 119.5q-127.5 139.5 -127.5 422.5q0 284 126.5 423.5t356.5 139.5t356.5 -139t126.5 -423q0 -282 -127.5 -422.5t-355.5 -140.5t-355.5 139.5zM772 235q69 91 69 305q0 218 -69 309.5t-203 91.5q-133 0 -202 -90.5t-69 -305.5q0 -218 68.5 -309.5t202.5 -91.5
t203 91zM252 1334q-33 31 -33 86q0 56 33 87.5t91 31.5t91 -32t33 -87t-33 -86t-91 -31t-91 31zM704.5 1334q-32.5 31 -32.5 86q0 56 32.5 87.5t90.5 31.5t91 -31.5t33 -87.5q0 -55 -33 -86t-91 -31t-90.5 31zM245 1679v134h648v-134h-648z" />
    <glyph glyph-name="uni022C" unicode="&#x22c;" horiz-adv-x="1476" 
d="M398 62q-143 81 -221 250.5t-78 427.5t78.5 427.5t221.5 250.5t339 81q197 0 340 -81t221 -250.5t78 -427.5t-78.5 -427.5t-221.5 -250.5t-339 -81q-197 0 -340 81zM1050 294.5q109 136.5 109 439.5q0 311 -109.5 449.5t-311.5 138.5t-311.5 -136t-109.5 -440
q0 -312 109 -450t312 -138t312 136.5zM817 1663q-37 10 -95 30q-46 18 -79.5 27t-67.5 9q-55 0 -97 -17t-83 -54v133q34 34 78.5 51t104.5 17q44 0 83.5 -10.5t92.5 -30.5q51 -19 82 -27.5t65 -8.5q55 0 97 17t83 54v-133q-34 -34 -78.5 -50.5t-104.5 -16.5q-44 0 -81 10z
M413 1979v133h650v-133h-650z" />
    <glyph glyph-name="uni022D" unicode="&#x22d;" horiz-adv-x="1138" 
d="M213.5 119.5q-127.5 139.5 -127.5 422.5q0 284 126.5 423.5t356.5 139.5t356.5 -139t126.5 -423q0 -282 -127.5 -422.5t-355.5 -140.5t-355.5 139.5zM772 235q69 91 69 305q0 218 -69 309.5t-203 91.5q-133 0 -202 -90.5t-69 -305.5q0 -218 68.5 -309.5t202.5 -91.5
t203 91zM640 1339q-37 12 -87 34q-45 20 -75 29.5t-60 9.5q-50 0 -91.5 -19t-81.5 -60v141q67 70 176 70q40 0 77 -11.5t88 -33.5q46 -20 75 -29.5t59 -9.5q51 0 92 18.5t81 59.5v-141q-67 -70 -176 -70q-40 0 -77 12zM245 1679v134h648v-134h-648z" />
    <glyph glyph-name="uni0230" unicode="&#x230;" horiz-adv-x="1476" 
d="M398 62q-143 81 -221 250.5t-78 427.5t78.5 427.5t221.5 250.5t339 81q197 0 340 -81t221 -250.5t78 -427.5t-78.5 -427.5t-221.5 -250.5t-339 -81q-197 0 -340 81zM1050 294.5q109 136.5 109 439.5q0 311 -109.5 449.5t-311.5 138.5t-311.5 -136t-109.5 -440
q0 -312 109 -450t312 -138t312 136.5zM636.5 1671q-35.5 29 -35.5 80q0 52 35.5 81t101.5 29t101.5 -29t35.5 -81q0 -51 -35.5 -80t-101.5 -29t-101.5 29zM413 1979v133h650v-133h-650z" />
    <glyph glyph-name="uni0231" unicode="&#x231;" horiz-adv-x="1138" 
d="M213.5 119.5q-127.5 139.5 -127.5 422.5q0 284 126.5 423.5t356.5 139.5t356.5 -139t126.5 -423q0 -282 -127.5 -422.5t-355.5 -140.5t-355.5 139.5zM772 235q69 91 69 305q0 218 -69 309.5t-203 91.5q-133 0 -202 -90.5t-69 -305.5q0 -218 68.5 -309.5t202.5 -91.5
t203 91zM467 1331q-35 31 -35 89t35 90t102 32t102 -32t35 -90t-35 -89t-102 -31t-102 31zM245 1681v134h648v-134h-648z" />
    <glyph glyph-name="uni0232" unicode="&#x232;" horiz-adv-x="1208" 
d="M1236 1480l-525 -832v-648h-212v647l-537 833h229l419 -648l412 648h214zM279 1683v133h650v-133h-650z" />
    <glyph glyph-name="uni0233" unicode="&#x233;" horiz-adv-x="1089" 
d="M871 1088h207l-564 -1528h-206l164 440h-60l-401 1088h219l317 -912zM222 1355v134h648v-134h-648z" />
    <glyph glyph-name="uni0237" unicode="&#x237;" horiz-adv-x="491" 
d="M-31 -374q93 125 132.5 250.5t39.5 295.5v916h209v-906q0 -193 -56.5 -344t-187.5 -304z" />
    <glyph glyph-name="uni0259" unicode="&#x259;" horiz-adv-x="1053" 
d="M834 973q133 -135 133 -430q0 -276 -120.5 -418t-339.5 -142q-212 0 -323.5 141.5t-111.5 424.5v60h684q-4 122 -42.5 195t-114.5 106t-199 33q-117 0 -273 -41v164q158 42 299 42q275 0 408 -135zM690.5 207.5q62.5 81.5 66.5 269.5h-489q4 -188 63.5 -269.5
t177.5 -81.5q119 0 181.5 81.5z" />
    <glyph glyph-name="uni02BB" unicode="&#x2bb;" horiz-adv-x="1088" 
d="M644 1455q27 -24 27 -63q0 -42 -32 -66.5t-93 -24.5q-129 0 -129 122q0 46 17 101.5t46 100.5h130q-37 -79 -46 -142q53 -4 80 -28z" />
    <glyph glyph-name="uni02BC" unicode="&#x2bc;" horiz-adv-x="1088" 
d="M798 1503q0 -46 -17 -101.5t-46 -100.5h-130q37 79 46 142q-53 4 -80 28t-27 63q0 42 32 66.5t93 24.5q129 0 129 -122z" />
    <glyph glyph-name="uni02BE" unicode="&#x2be;" horiz-adv-x="1088" 
d="M544 1328q49 0 79 30.5t30 81.5t-30 81.5t-79 30.5v86q57 0 103 -25.5t72 -70.5t26 -102t-26 -102t-72 -70.5t-103 -25.5v86z" />
    <glyph glyph-name="uni02BF" unicode="&#x2bf;" horiz-adv-x="1088" 
d="M441 1267.5q-46 25.5 -72 70.5t-26 102t26 102t72 70.5t103 25.5v-86q-49 0 -79 -30.5t-30 -81.5t30 -81.5t79 -30.5v-86q-57 0 -103 25.5z" />
    <glyph glyph-name="circumflex" unicode="&#x2c6;" horiz-adv-x="1088" 
d="M860 1247h-158l-158 266l-158 -266h-158l226 369h180z" />
    <glyph glyph-name="caron" unicode="&#x2c7;" horiz-adv-x="1088" 
d="M704 1616h159l-229 -369h-180l-229 369h159l160 -267z" />
    <glyph glyph-name="uni02C8" unicode="&#x2c8;" horiz-adv-x="1088" 
d="M490 1218v400h108v-400h-108z" />
    <glyph glyph-name="uni02C9" unicode="&#x2c9;" horiz-adv-x="1088" 
d="M220 1355v134h648v-134h-648z" />
    <glyph glyph-name="uni02CA" unicode="&#x2ca;" horiz-adv-x="1088" 
d="M444 1247l220 369h231l-251 -369h-200z" />
    <glyph glyph-name="uni02CB" unicode="&#x2cb;" horiz-adv-x="1088" 
d="M444 1247l-251 369h231l220 -369h-200z" />
    <glyph glyph-name="uni02CC" unicode="&#x2cc;" horiz-adv-x="1088" 
d="M490 -440v400h108v-400h-108z" />
    <glyph glyph-name="breve" unicode="&#x2d8;" horiz-adv-x="1088" 
d="M315.5 1343.5q-83.5 86.5 -90.5 247.5h134q7 -108 52.5 -163t133.5 -55t133 54.5t51 163.5h134q-7 -162 -89.5 -248t-228.5 -86t-229.5 86.5z" />
    <glyph glyph-name="dotaccent" unicode="&#x2d9;" horiz-adv-x="1088" 
d="M442 1331q-35 31 -35 89t35 90t102 32t102 -32t35 -90t-35 -89t-102 -31t-102 31z" />
    <glyph glyph-name="ring" unicode="&#x2da;" horiz-adv-x="1088" 
d="M441 1267.5q-46 25.5 -72 70.5t-26 102t26 102t72 70.5t103 25.5t103 -25.5t72 -70.5t26 -102t-26 -102t-72 -70.5t-103 -25.5t-103 25.5zM623 1358.5q30 30.5 30 81.5t-30 81.5t-79 30.5t-79 -30.5t-30 -81.5t30 -81.5t79 -30.5t79 30.5z" />
    <glyph glyph-name="ogonek" unicode="&#x2db;" horiz-adv-x="1088" 
d="M248 -373q-60 51 -60 140q0 90 61.5 161.5t201.5 132.5l60 -61q-107 -53 -151.5 -105t-44.5 -115q0 -51 32.5 -80t92.5 -29q67 0 140 37v-95q-74 -37 -162 -37q-110 0 -170 51z" />
    <glyph glyph-name="tilde" unicode="&#x2dc;" horiz-adv-x="1088" 
d="M615 1339q-37 12 -87 34q-45 20 -75 29.5t-60 9.5q-50 0 -91.5 -19t-81.5 -60v141q67 70 176 70q40 0 77 -11.5t88 -33.5q46 -20 75 -29.5t59 -9.5q51 0 92 18.5t81 59.5v-141q-67 -70 -176 -70q-40 0 -77 12z" />
    <glyph glyph-name="hungarumlaut" unicode="&#x2dd;" horiz-adv-x="1088" 
d="M287 1247l143 369h170l-155 -369h-158zM643 1247l143 369h170l-155 -369h-158z" />
    <glyph glyph-name="gravecomb" unicode="&#x300;" horiz-adv-x="0" 
d="M-639 1247l-252 369h223l219 -369h-190z" />
    <glyph glyph-name="acutecomb" unicode="&#x301;" horiz-adv-x="0" 
d="M-639 1247l219 369h223l-252 -369h-190z" />
    <glyph glyph-name="uni0302" unicode="&#x302;" horiz-adv-x="0" 
d="M-228 1247h-158l-158 266l-158 -266h-158l226 369h180z" />
    <glyph glyph-name="tildecomb" unicode="&#x303;" horiz-adv-x="0" 
d="M-473 1339q-37 12 -87 34q-45 20 -75 29.5t-60 9.5q-50 0 -91.5 -19t-81.5 -60v141q67 70 176 70q40 0 77 -11.5t88 -33.5q46 -20 75 -29.5t59 -9.5q51 0 92 18.5t81 59.5v-141q-67 -70 -176 -70q-40 0 -77 12z" />
    <glyph glyph-name="uni0304" unicode="&#x304;" horiz-adv-x="0" 
d="M-868 1355v134h648v-134h-648z" />
    <glyph glyph-name="uni0306" unicode="&#x306;" horiz-adv-x="0" 
d="M-772.5 1343.5q-83.5 86.5 -90.5 247.5h134q7 -108 52.5 -163t133.5 -55t133 54.5t51 163.5h134q-7 -162 -89.5 -248t-228.5 -86t-229.5 86.5z" />
    <glyph glyph-name="uni0307" unicode="&#x307;" horiz-adv-x="0" 
d="M-646 1331q-35 31 -35 89t35 90t102 32t102 -32t35 -90t-35 -89t-102 -31t-102 31z" />
    <glyph glyph-name="uni0308" unicode="&#x308;" horiz-adv-x="0" 
d="M-861 1334q-33 31 -33 86q0 56 33 87.5t91 31.5t91 -32t33 -87t-33 -86t-91 -31t-91 31zM-408.5 1334q-32.5 31 -32.5 86q0 56 32.5 87.5t90.5 31.5t91 -31.5t33 -87.5q0 -55 -33 -86t-91 -31t-90.5 31z" />
    <glyph glyph-name="hookabovecomb" unicode="&#x309;" horiz-adv-x="0" 
d="M-586.5 1314q14.5 28 33 45t48.5 39q31 23 44.5 38t13.5 36q0 32 -27 47t-85 15q-82 0 -160 -24v93q34 11 81.5 18t89.5 7q221 0 221 -144q0 -33 -11.5 -56.5t-27.5 -39t-44 -35.5q-37 -27 -55 -49t-20 -57h-117q1 39 15.5 67z" />
    <glyph glyph-name="uni030A" unicode="&#x30a;" horiz-adv-x="0" 
d="M-647 1267.5q-46 25.5 -72 70.5t-26 102t26 102t72 70.5t103 25.5t103 -25.5t72 -70.5t26 -102t-26 -102t-72 -70.5t-103 -25.5t-103 25.5zM-465 1358.5q30 30.5 30 81.5t-30 81.5t-79 30.5t-79 -30.5t-30 -81.5t30 -81.5t79 -30.5t79 30.5z" />
    <glyph glyph-name="uni030B" unicode="&#x30b;" horiz-adv-x="0" 
d="M-801 1247l143 369h170l-155 -369h-158zM-445 1247l143 369h170l-155 -369h-158z" />
    <glyph glyph-name="uni030C" unicode="&#x30c;" horiz-adv-x="0" 
d="M-384 1616h159l-229 -369h-180l-229 369h159l160 -267z" />
    <glyph glyph-name="uni030F" unicode="&#x30f;" horiz-adv-x="0" 
d="M-803 1247l-155 369h173l142 -369h-160zM-445 1247l-155 369h173l142 -369h-160z" />
    <glyph glyph-name="uni0311" unicode="&#x311;" horiz-adv-x="0" 
d="M-774 1523.5q82 85.5 229 85.5q145 0 229 -86.5t91 -247.5h-134q-14 218 -186 218q-88 0 -133 -54.5t-51 -163.5h-134q7 163 89 248.5z" />
    <glyph glyph-name="uni0312" unicode="&#x312;" horiz-adv-x="0" 
d="M-444 1455q27 -24 27 -63q0 -42 -32 -66.5t-93 -24.5q-129 0 -129 122q0 46 17 101.5t46 100.5h130q-37 -79 -46 -142q53 -4 80 -28z" />
    <glyph glyph-name="uni031B" unicode="&#x31b;" horiz-adv-x="0" 
d="M-623 1480h69q188 0 188 161q0 62 -20 140h142q12 -37 17 -72t5 -77q0 -130 -78 -198t-215 -68h-108v114z" />
    <glyph glyph-name="dotbelowcomb" unicode="&#x323;" horiz-adv-x="0" 
d="M-635 -354q-33 31 -33 85t33 85.5t91 31.5t91 -31.5t33 -85.5t-33 -85t-91 -31t-91 31z" />
    <glyph glyph-name="uni0324" unicode="&#x324;" horiz-adv-x="0" 
d="M-861 -357.5q-33 31.5 -33 86.5t33 87t91 32t91 -32t33 -87t-33 -86.5t-91 -31.5t-91 31.5zM-408.5 -357.5q-32.5 31.5 -32.5 86.5t33 87t90 32q58 0 91 -32t33 -87t-33 -86.5t-91 -31.5t-90.5 31.5z" />
    <glyph glyph-name="uni0326" unicode="&#x326;" horiz-adv-x="0" 
d="M-417 -274q0 -46 -17 -101t-46 -101h-130q37 79 46 142q-53 4 -80 28t-27 63q0 42 32 66.5t93 24.5q129 0 129 -122z" />
    <glyph glyph-name="uni0327" unicode="&#x327;" horiz-adv-x="0" 
d="M-364.5 -151.5q40.5 -41.5 40.5 -108.5q0 -77 -56.5 -120.5t-163.5 -43.5q-47 0 -92.5 9t-81.5 25v94q79 -36 167 -36q55 0 82 19.5t27 60.5q0 81 -111 81h-40v191h111v-119q77 -11 117.5 -52.5z" />
    <glyph glyph-name="uni0328" unicode="&#x328;" horiz-adv-x="0" 
d="M-840 -373q-60 51 -60 140q0 90 61.5 161.5t201.5 132.5l60 -61q-107 -53 -151.5 -105t-44.5 -115q0 -51 32.5 -80t92.5 -29q67 0 140 37v-95q-74 -37 -162 -37q-110 0 -170 51z" />
    <glyph glyph-name="uni032E" unicode="&#x32e;" horiz-adv-x="0" 
d="M-713 -398q-71 34 -109.5 97t-40.5 149h134q8 -164 186 -164t184 164h134q-3 -131 -86 -205.5t-232 -74.5q-99 0 -170 34z" />
    <glyph glyph-name="uni0331" unicode="&#x331;" horiz-adv-x="0" 
d="M-848 -335v133h608v-133h-608z" />
    <glyph glyph-name="uni0394" unicode="&#x394;" horiz-adv-x="1380" 
d="M841 1480l515 -1480h-1332l514 1480h303zM688 1340l-399 -1166h799z" />
    <glyph glyph-name="uni03A9" unicode="&#x3a9;" horiz-adv-x="1476" 
d="M1301.5 438q-75.5 -159 -219.5 -267h295v-171h-540v143q167 127 244.5 279.5t77.5 363.5q0 271 -108 403.5t-314 132.5q-205 0 -312.5 -132.5t-107.5 -403.5q0 -211 77.5 -363.5t243.5 -279.5v-143h-539v171h294q-144 108 -219 267t-75 362q0 225 76.5 382t220 237
t341.5 80q199 0 342.5 -80t220.5 -237t77 -382q0 -203 -75.5 -362z" />
    <glyph glyph-name="uni03BC" unicode="&#x3bc;" horiz-adv-x="1153" 
d="M1012 1088v-1088h-174l-15 117h-11q-58 -67 -132 -101t-157 -34q-117 0 -185 61v-483h-208v1528h208v-698q0 -120 52.5 -172.5t148.5 -52.5q72 0 144 31.5t121 94.5v797h208z" />
    <glyph glyph-name="pi" unicode="&#x3c0;" horiz-adv-x="1352" 
d="M1331 171v-171q-36 -8 -79 -13.5t-82 -5.5q-167 0 -253 85.5t-87 269.5l-2 584h-412v-921h-208v921h-196v168h1222v-168h-196v-551q0 -80 19 -126t58.5 -66t104.5 -20q47 0 111 14z" />
    <glyph glyph-name="uni1E08" unicode="&#x1e08;" horiz-adv-x="1177" 
d="M1023 1894l-212 -290h-189l179 290h222zM546 1261.5q-112 -57.5 -169 -185t-57 -335.5q0 -214 57.5 -341.5t166.5 -183t273 -55.5q80 0 156.5 12.5t160.5 40.5v-180q-156 -53 -335 -53h-28v-78q86 -8 133 -49.5t47 -111.5q0 -80 -61 -123t-176 -43q-109 0 -196 35v94
q93 -37 187 -37q63 0 95 19t32 61q0 81 -129 81h-43v160q-273 34 -417 214t-144 534q0 387 184.5 574.5t531.5 187.5q164 0 319 -41v-180q-146 41 -307 41q-169 0 -281 -57.5z" />
    <glyph glyph-name="uni1E09" unicode="&#x1e09;" horiz-adv-x="900" 
d="M867 1616l-252 -369h-190l219 369h223zM224.5 968q138.5 137 406.5 137q123 0 228 -27v-172q-106 26 -202 26q-123 0 -200.5 -38.5t-116 -123t-38.5 -223.5q0 -210 79.5 -301.5t242.5 -91.5q103 0 235 42v-172q-126 -44 -267 -44h-2v-79q77 -11 117.5 -52.5t40.5 -108.5
q0 -77 -56.5 -120.5t-163.5 -43.5q-47 0 -92.5 9t-81.5 25v94q79 -36 167 -36q55 0 82 19.5t27 60.5q0 81 -111 81h-40v159q-393 59 -393 555q0 288 138.5 425z" />
    <glyph glyph-name="uni1E0C" unicode="&#x1e0c;" horiz-adv-x="1429" 
d="M158 9v1444q96 20 203.5 31t207.5 11q380 0 571 -186t191 -569q0 -389 -199.5 -571t-605.5 -182q-184 0 -368 22zM875.5 223q118.5 59 178 186t59.5 332q0 302 -131 440t-401 138q-96 0 -211 -18v-1126q88 -11 204 -11q183 0 301.5 59zM551.5 -342.5
q-35.5 28.5 -35.5 80.5q0 51 36 80.5t101 29.5t101 -29.5t36 -80.5q0 -52 -35.5 -80.5t-101.5 -28.5t-101.5 28.5z" />
    <glyph glyph-name="uni1E0D" unicode="&#x1e0d;" horiz-adv-x="1159" 
d="M297.5 37q-97.5 56 -154.5 177t-57 308q0 290 142.5 436.5t421.5 146.5q73 0 160 -13v524h208v-1616h-176l-14 117h-12q-50 -63 -126 -99.5t-170 -36.5q-125 0 -222.5 56zM705.5 184.5q62.5 28.5 104.5 86.5v652q-76 17 -163 17q-177 0 -263 -95t-86 -306
q0 -210 72 -296.5t204 -86.5q69 0 131.5 28.5zM492 -354q-33 31 -33 85t33 85.5t91 31.5t91 -31.5t33 -85.5t-33 -85t-91 -31t-91 31z" />
    <glyph glyph-name="uni1E0E" unicode="&#x1e0e;" horiz-adv-x="1429" 
d="M158 9v1444q96 20 203.5 31t207.5 11q380 0 571 -186t191 -569q0 -389 -199.5 -571t-605.5 -182q-184 0 -368 22zM875.5 223q118.5 59 178 186t59.5 332q0 302 -131 440t-401 138q-96 0 -211 -18v-1126q88 -11 204 -11q183 0 301.5 59zM328 -325v134h650v-134h-650z" />
    <glyph glyph-name="uni1E0F" unicode="&#x1e0f;" horiz-adv-x="1159" 
d="M297.5 37q-97.5 56 -154.5 177t-57 308q0 290 142.5 436.5t421.5 146.5q73 0 160 -13v524h208v-1616h-176l-14 117h-12q-50 -63 -126 -99.5t-170 -36.5q-125 0 -222.5 56zM705.5 184.5q62.5 28.5 104.5 86.5v652q-76 17 -163 17q-177 0 -263 -95t-86 -306
q0 -210 72 -296.5t204 -86.5q69 0 131.5 28.5zM279 -335v133h608v-133h-608z" />
    <glyph glyph-name="uni1E14" unicode="&#x1e14;" horiz-adv-x="1193" 
d="M367 175h753v-175h-962v1480h952v-175h-743v-459h644v-175h-644v-496zM552 1924l-212 232h240l180 -232h-208zM331 1683v133h650v-133h-650z" />
    <glyph glyph-name="uni1E15" unicode="&#x1e15;" horiz-adv-x="1053" 
d="M981 479h-684q4 -122 42.5 -195t114.5 -106t199 -33q117 0 273 41v-164q-158 -42 -299 -42q-275 0 -408 135t-133 430q0 276 120.5 418t339.5 142q212 0 323.5 -141.5t111.5 -424.5v-60zM362.5 880.5q-62.5 -81.5 -66.5 -269.5h489q-4 188 -63.5 269.5t-177.5 81.5
q-119 0 -181.5 -81.5zM219 1355v134h648v-134h-648zM449 1630l-213 290h222l179 -290h-188z" />
    <glyph glyph-name="uni1E16" unicode="&#x1e16;" horiz-adv-x="1193" 
d="M367 175h753v-175h-962v1480h952v-175h-743v-459h644v-175h-644v-496zM552 1924l179 232h241l-212 -232h-208zM331 1683v133h650v-133h-650z" />
    <glyph glyph-name="uni1E17" unicode="&#x1e17;" horiz-adv-x="1053" 
d="M981 479h-684q4 -122 42.5 -195t114.5 -106t199 -33q117 0 273 41v-164q-158 -42 -299 -42q-275 0 -408 135t-133 430q0 276 120.5 418t339.5 142q212 0 323.5 -141.5t111.5 -424.5v-60zM362.5 880.5q-62.5 -81.5 -66.5 -269.5h489q-4 188 -63.5 269.5t-177.5 81.5
q-119 0 -181.5 -81.5zM219 1355v134h648v-134h-648zM448 1630l179 290h222l-212 -290h-189z" />
    <glyph glyph-name="uni1E1C" unicode="&#x1e1c;" horiz-adv-x="1193" 
d="M417 1682q-86 71 -99 195h135q12 -77 59.5 -114.5t144.5 -37.5t144 37.5t58 114.5h135q-13 -125 -97.5 -195.5t-239.5 -70.5q-154 0 -240 71zM703 0v-97q86 -8 133 -49.5t47 -111.5q0 -80 -61 -123t-176 -43q-109 0 -196 35v94q93 -37 187 -37q63 0 95 19t32 61
q0 81 -129 81h-43v171h-434v1480h952v-175h-743v-459h644v-175h-644v-496h753v-175h-417z" />
    <glyph glyph-name="uni1E1D" unicode="&#x1e1d;" horiz-adv-x="1053" 
d="M314.5 1343.5q-83.5 86.5 -90.5 247.5h134q7 -108 52.5 -163t133.5 -55t133 54.5t51 163.5h134q-7 -162 -89.5 -248t-228.5 -86t-229.5 86.5zM981 479h-684q4 -122 42.5 -195t114.5 -106t199 -33q117 0 273 41v-164q-158 -42 -299 -42h-22v-79q77 -11 117.5 -52.5
t40.5 -108.5q0 -77 -56.5 -120.5t-163.5 -43.5q-47 0 -92.5 9t-81.5 25v94q79 -36 167 -36q55 0 82 19.5t27 60.5q0 81 -111 81h-40v160q-206 30 -307 164.5t-101 391.5q0 276 120.5 418t339.5 142q212 0 323.5 -141.5t111.5 -424.5v-60zM362.5 880.5
q-62.5 -81.5 -66.5 -269.5h489q-4 188 -63.5 269.5t-177.5 81.5q-119 0 -181.5 -81.5z" />
    <glyph glyph-name="uni1E20" unicode="&#x1e20;" horiz-adv-x="1371" 
d="M1227 720v-704q-180 -30 -343 -30q-393 0 -589 183t-196 568q-1 387 196.5 574.5t562.5 187.5q168 0 333 -42v-180q-157 42 -317 42q-182 0 -304.5 -58t-186 -186.5t-63.5 -338.5q0 -201 61 -327t182 -185t306 -59q82 0 160 8v547h198zM438 1683v133h650v-133h-650z" />
    <glyph glyph-name="uni1E21" unicode="&#x1e21;" horiz-adv-x="1159" 
d="M321 -448q-88 12 -163 35v170q168 -51 319 -51q116 0 189 31t108.5 100t35.5 184v95h-11q-51 -60 -126 -94t-169 -34q-118 0 -212 55.5t-150 175t-56 303.5q0 289 143.5 435.5t427.5 147.5q92 0 187.5 -14t173.5 -39v-996q0 -182 -58 -296t-174 -167t-295 -53
q-82 0 -170 12zM704.5 189q62.5 27 105.5 80v652q-82 20 -170 20q-171 0 -256.5 -95.5t-85.5 -304.5q0 -208 72 -293.5t204 -85.5q68 0 130.5 27zM277 1355v134h648v-134h-648z" />
    <glyph glyph-name="uni1E24" unicode="&#x1e24;" horiz-adv-x="1469" 
d="M158 0v1480h212v-627h729v627h212v-1480h-212v664h-729v-664h-212zM633.5 -342.5q-35.5 28.5 -35.5 80.5q0 51 36 80.5t101 29.5t101 -29.5t36 -80.5q0 -52 -35.5 -80.5t-101.5 -28.5t-101.5 28.5z" />
    <glyph glyph-name="uni1E25" unicode="&#x1e25;" horiz-adv-x="1163" 
d="M141 1616h208v-646h11q63 67 145.5 101t180.5 34q159 0 252.5 -95t93.5 -302v-708h-208v696q0 121 -53 173t-152 52q-75 0 -147.5 -31.5t-122.5 -95.5v-794h-208v1616zM496 -354q-33 31 -33 85t33 85.5t91 31.5t91 -31.5t33 -85.5t-33 -85t-91 -31t-91 31z" />
    <glyph glyph-name="uni1E2A" unicode="&#x1e2a;" horiz-adv-x="1469" 
d="M158 0v1480h212v-627h729v627h212v-1480h-212v664h-729v-664h-212zM492 -347.5q-86 72.5 -95 197.5h135q7 -78 56 -117.5t148 -39.5t147.5 39.5t54.5 117.5h135q-8 -127 -93.5 -198.5t-243.5 -71.5t-244 72.5z" />
    <glyph glyph-name="uni1E2B" unicode="&#x1e2b;" horiz-adv-x="1163" 
d="M141 1616h208v-646h11q63 67 145.5 101t180.5 34q159 0 252.5 -95t93.5 -302v-708h-208v696q0 121 -53 173t-152 52q-75 0 -147.5 -31.5t-122.5 -95.5v-794h-208v1616zM418 -398q-71 34 -109.5 97t-40.5 149h134q8 -164 186 -164t184 164h134q-3 -131 -86 -205.5
t-232 -74.5q-99 0 -170 34z" />
    <glyph glyph-name="uni1E2E" unicode="&#x1e2e;" horiz-adv-x="528" 
d="M158 0v1480h212v-1480h-212zM160 1924l179 232h241l-212 -232h-208zM-69 1671q-32 29 -32 80t32 80.5t91 29.5t91.5 -29.5t32.5 -80.5t-32.5 -80t-91.5 -29t-91 29zM414.5 1671q-32.5 29 -32.5 80t32.5 80.5t91.5 29.5t91 -29.5t32 -80.5t-32 -80t-91 -29t-91.5 29z" />
    <glyph glyph-name="uni1E2F" unicode="&#x1e2f;" horiz-adv-x="491" 
d="M141 0v1088h209v-1088h-209zM-71 1334q-33 31 -33 86q0 56 33 87.5t91 31.5t91 -32t33 -87t-33 -86t-91 -31t-91 31zM381.5 1334q-32.5 31 -32.5 86q0 56 32.5 87.5t90.5 31.5t91 -31.5t33 -87.5q0 -55 -33 -86t-91 -31t-90.5 31zM204 1764l179 290h222l-212 -290h-189z
" />
    <glyph glyph-name="uni1E36" unicode="&#x1e36;" horiz-adv-x="1094" 
d="M158 0v1480h212v-1299h713v-181h-925zM519.5 -342.5q-35.5 28.5 -35.5 80.5q0 51 36 80.5t101 29.5t101 -29.5t36 -80.5q0 -52 -35.5 -80.5t-101.5 -28.5t-101.5 28.5z" />
    <glyph glyph-name="uni1E37" unicode="&#x1e37;" horiz-adv-x="491" 
d="M141 0v1616h208v-1616h-208zM154 -354q-33 31 -33 85t33 85.5t91 31.5t91 -31.5t33 -85.5t-33 -85t-91 -31t-91 31z" />
    <glyph glyph-name="uni1E3A" unicode="&#x1e3a;" horiz-adv-x="1094" 
d="M158 0v1480h212v-1299h713v-181h-925zM296 -325v134h650v-134h-650z" />
    <glyph glyph-name="uni1E3B" unicode="&#x1e3b;" horiz-adv-x="491" 
d="M141 0v1616h208v-1616h-208zM-59 -335v133h608v-133h-608z" />
    <glyph glyph-name="uni1E42" unicode="&#x1e42;" horiz-adv-x="1795" 
d="M1379 1480h254v-1480h-199v1181l-446 -973h-182l-446 959v-1167h-198v1480h254l485 -1058zM807.5 -342.5q-35.5 28.5 -35.5 80.5q0 51 36 80.5t101 29.5t101 -29.5t36 -80.5q0 -52 -35.5 -80.5t-101.5 -28.5t-101.5 28.5z" />
    <glyph glyph-name="uni1E43" unicode="&#x1e43;" horiz-adv-x="1726" 
d="M1505.5 1009.5q90.5 -95.5 90.5 -302.5v-707h-208v697q0 120 -49 172.5t-137 52.5q-63 0 -125.5 -28.5t-107.5 -89.5q5 -47 5 -91v-713h-204v697q0 121 -47 173t-134 52q-67 0 -131.5 -32.5t-108.5 -98.5v-791h-208v1088h174l15 -120h11q61 67 140.5 102t171.5 35
q93 0 163 -36.5t110 -114.5q71 78 157 114.5t176 36.5q156 0 246.5 -95.5zM782 -354q-33 31 -33 85t33 85.5t91 31.5t91 -31.5t33 -85.5t-33 -85t-91 -31t-91 31z" />
    <glyph glyph-name="uni1E44" unicode="&#x1e44;" horiz-adv-x="1491" 
d="M1133 1480h200v-1480h-215l-760 1157v-1157h-200v1480h215l760 -1157v1157zM644.5 1671q-35.5 29 -35.5 80q0 52 35.5 81t101.5 29t101.5 -29t35.5 -81q0 -51 -35.5 -80t-101.5 -29t-101.5 29z" />
    <glyph glyph-name="uni1E45" unicode="&#x1e45;" horiz-adv-x="1163" 
d="M141 1088h174l15 -120h11q65 66 151.5 101.5t183.5 35.5q166 0 261 -95.5t95 -302.5v-707h-208v696q0 121 -52.5 173.5t-152.5 52.5q-73 0 -146.5 -31.5t-123.5 -95.5v-795h-208v1088zM485 1331q-35 31 -35 89t35 90t102 32t102 -32t35 -90t-35 -89t-102 -31t-102 31z
" />
    <glyph glyph-name="uni1E46" unicode="&#x1e46;" horiz-adv-x="1491" 
d="M1133 1480h200v-1480h-215l-760 1157v-1157h-200v1480h215l760 -1157v1157zM644.5 -342.5q-35.5 28.5 -35.5 80.5q0 51 36 80.5t101 29.5t101 -29.5t36 -80.5q0 -52 -35.5 -80.5t-101.5 -28.5t-101.5 28.5z" />
    <glyph glyph-name="uni1E47" unicode="&#x1e47;" horiz-adv-x="1163" 
d="M141 1088h174l15 -120h11q65 66 151.5 101.5t183.5 35.5q166 0 261 -95.5t95 -302.5v-707h-208v696q0 121 -52.5 173.5t-152.5 52.5q-73 0 -146.5 -31.5t-123.5 -95.5v-795h-208v1088zM496 -354q-33 31 -33 85t33 85.5t91 31.5t91 -31.5t33 -85.5t-33 -85t-91 -31t-91 31
z" />
    <glyph glyph-name="uni1E48" unicode="&#x1e48;" horiz-adv-x="1491" 
d="M1133 1480h200v-1480h-215l-760 1157v-1157h-200v1480h215l760 -1157v1157zM421 -325v134h650v-134h-650z" />
    <glyph glyph-name="uni1E49" unicode="&#x1e49;" horiz-adv-x="1163" 
d="M141 1088h174l15 -120h11q65 66 151.5 101.5t183.5 35.5q166 0 261 -95.5t95 -302.5v-707h-208v696q0 121 -52.5 173.5t-152.5 52.5q-73 0 -146.5 -31.5t-123.5 -95.5v-795h-208v1088zM283 -335v133h608v-133h-608z" />
    <glyph glyph-name="uni1E4C" unicode="&#x1e4c;" horiz-adv-x="1476" 
d="M398 62q-143 81 -221 250.5t-78 427.5t78.5 427.5t221.5 250.5t339 81q197 0 340 -81t221 -250.5t78 -427.5t-78.5 -427.5t-221.5 -250.5t-339 -81q-197 0 -340 81zM1050 294.5q109 136.5 109 439.5q0 311 -109.5 449.5t-311.5 138.5t-311.5 -136t-109.5 -440
q0 -312 109 -450t312 -138t312 136.5zM634 1924l179 232h241l-212 -232h-208zM817 1663q-37 10 -95 30q-46 18 -79.5 27t-67.5 9q-55 0 -97 -17t-83 -54v133q34 34 78.5 51t104.5 17q44 0 83.5 -10.5t92.5 -30.5q51 -19 82 -27.5t65 -8.5q55 0 97 17t83 54v-133
q-34 -34 -78.5 -50.5t-104.5 -16.5q-44 0 -81 10z" />
    <glyph glyph-name="uni1E4D" unicode="&#x1e4d;" horiz-adv-x="1138" 
d="M213.5 119.5q-127.5 139.5 -127.5 422.5q0 284 126.5 423.5t356.5 139.5t356.5 -139t126.5 -423q0 -282 -127.5 -422.5t-355.5 -140.5t-355.5 139.5zM772 235q69 91 69 305q0 218 -69 309.5t-203 91.5q-133 0 -202 -90.5t-69 -305.5q0 -218 68.5 -309.5t202.5 -91.5
t203 91zM640 1339q-37 12 -87 34q-45 20 -75 29.5t-60 9.5q-50 0 -91.5 -19t-81.5 -60v141q67 70 176 70q40 0 77 -11.5t88 -33.5q46 -20 75 -29.5t59 -9.5q51 0 92 18.5t81 59.5v-141q-67 -70 -176 -70q-40 0 -77 12zM527 1764l179 290h222l-212 -290h-189z" />
    <glyph glyph-name="uni1E4E" unicode="&#x1e4e;" horiz-adv-x="1476" 
d="M398 62q-143 81 -221 250.5t-78 427.5t78.5 427.5t221.5 250.5t339 81q197 0 340 -81t221 -250.5t78 -427.5t-78.5 -427.5t-221.5 -250.5t-339 -81q-197 0 -340 81zM1050 294.5q109 136.5 109 439.5q0 311 -109.5 449.5t-311.5 138.5t-311.5 -136t-109.5 -440
q0 -312 109 -450t312 -138t312 136.5zM817 1663q-37 10 -95 30q-46 18 -79.5 27t-67.5 9q-55 0 -97 -17t-83 -54v133q34 34 78.5 51t104.5 17q44 0 83.5 -10.5t92.5 -30.5q51 -19 82 -27.5t65 -8.5q55 0 97 17t83 54v-133q-34 -34 -78.5 -50.5t-104.5 -16.5q-44 0 -81 10z
M405 1967q-32 29 -32 80t32 80.5t91 29.5t91.5 -29.5t32.5 -80.5t-32.5 -80t-91.5 -29t-91 29zM888.5 1967q-32.5 29 -32.5 80t32.5 80.5t91.5 29.5t91 -29.5t32 -80.5t-32 -80t-91 -29t-91.5 29z" />
    <glyph glyph-name="uni1E4F" unicode="&#x1e4f;" horiz-adv-x="1138" 
d="M213.5 119.5q-127.5 139.5 -127.5 422.5q0 284 126.5 423.5t356.5 139.5t356.5 -139t126.5 -423q0 -282 -127.5 -422.5t-355.5 -140.5t-355.5 139.5zM772 235q69 91 69 305q0 218 -69 309.5t-203 91.5q-133 0 -202 -90.5t-69 -305.5q0 -218 68.5 -309.5t202.5 -91.5
t203 91zM640 1339q-37 12 -87 34q-45 20 -75 29.5t-60 9.5q-50 0 -91.5 -19t-81.5 -60v141q67 70 176 70q40 0 77 -11.5t88 -33.5q46 -20 75 -29.5t59 -9.5q51 0 92 18.5t81 59.5v-141q-67 -70 -176 -70q-40 0 -77 12zM252 1658q-33 31 -33 86q0 56 33 87.5t91 31.5t91 -32
t33 -87t-33 -86t-91 -31t-91 31zM704.5 1658q-32.5 31 -32.5 86q0 56 32.5 87.5t90.5 31.5t91 -31.5t33 -87.5q0 -55 -33 -86t-91 -31t-90.5 31z" />
    <glyph glyph-name="uni1E50" unicode="&#x1e50;" horiz-adv-x="1476" 
d="M398 62q-143 81 -221 250.5t-78 427.5t78.5 427.5t221.5 250.5t339 81q197 0 340 -81t221 -250.5t78 -427.5t-78.5 -427.5t-221.5 -250.5t-339 -81q-197 0 -340 81zM1050 294.5q109 136.5 109 439.5q0 311 -109.5 449.5t-311.5 138.5t-311.5 -136t-109.5 -440
q0 -312 109 -450t312 -138t312 136.5zM634 1924l-212 232h240l180 -232h-208zM413 1683v133h650v-133h-650z" />
    <glyph glyph-name="uni1E51" unicode="&#x1e51;" horiz-adv-x="1138" 
d="M213.5 119.5q-127.5 139.5 -127.5 422.5q0 284 126.5 423.5t356.5 139.5t356.5 -139t126.5 -423q0 -282 -127.5 -422.5t-355.5 -140.5t-355.5 139.5zM772 235q69 91 69 305q0 218 -69 309.5t-203 91.5q-133 0 -202 -90.5t-69 -305.5q0 -218 68.5 -309.5t202.5 -91.5
t203 91zM245 1355v134h648v-134h-648zM475 1630l-213 290h222l179 -290h-188z" />
    <glyph glyph-name="uni1E52" unicode="&#x1e52;" horiz-adv-x="1476" 
d="M398 62q-143 81 -221 250.5t-78 427.5t78.5 427.5t221.5 250.5t339 81q197 0 340 -81t221 -250.5t78 -427.5t-78.5 -427.5t-221.5 -250.5t-339 -81q-197 0 -340 81zM1050 294.5q109 136.5 109 439.5q0 311 -109.5 449.5t-311.5 138.5t-311.5 -136t-109.5 -440
q0 -312 109 -450t312 -138t312 136.5zM634 1924l179 232h241l-212 -232h-208zM413 1683v133h650v-133h-650z" />
    <glyph glyph-name="uni1E53" unicode="&#x1e53;" horiz-adv-x="1138" 
d="M213.5 119.5q-127.5 139.5 -127.5 422.5q0 284 126.5 423.5t356.5 139.5t356.5 -139t126.5 -423q0 -282 -127.5 -422.5t-355.5 -140.5t-355.5 139.5zM772 235q69 91 69 305q0 218 -69 309.5t-203 91.5q-133 0 -202 -90.5t-69 -305.5q0 -218 68.5 -309.5t202.5 -91.5
t203 91zM245 1355v134h648v-134h-648zM474 1630l179 290h222l-212 -290h-189z" />
    <glyph glyph-name="uni1E5A" unicode="&#x1e5a;" horiz-adv-x="1329" 
d="M1053 0l-434 591q-20 -1 -61 -1q-82 0 -192 7v-597h-208v1453q213 43 415 43q303 0 450.5 -109.5t147.5 -339.5q1 -167 -87 -274.5t-257 -151.5l460 -621h-234zM366 764q107 -9 195 -9q213 0 311.5 70t98.5 220q0 102 -40 165.5t-123.5 93t-216.5 29.5q-64 0 -115.5 -5
t-109.5 -15v-549zM594.5 -342.5q-35.5 28.5 -35.5 80.5q0 51 36 80.5t101 29.5t101 -29.5t36 -80.5q0 -52 -35.5 -80.5t-101.5 -28.5t-101.5 28.5z" />
    <glyph glyph-name="uni1E5B" unicode="&#x1e5b;" horiz-adv-x="751" 
d="M141 1088h173l16 -145h12q51 77 133 117t176 40q45 0 88 -8v-191q-45 7 -99 7q-82 0 -162.5 -36t-128.5 -102v-770h-208v1088zM155 -354q-33 31 -33 85t33 85.5t91 31.5t91 -31.5t33 -85.5t-33 -85t-91 -31t-91 31z" />
    <glyph glyph-name="uni1E5E" unicode="&#x1e5e;" horiz-adv-x="1329" 
d="M1053 0l-434 591q-20 -1 -61 -1q-82 0 -192 7v-597h-208v1453q213 43 415 43q303 0 450.5 -109.5t147.5 -339.5q1 -167 -87 -274.5t-257 -151.5l460 -621h-234zM366 764q107 -9 195 -9q213 0 311.5 70t98.5 220q0 102 -40 165.5t-123.5 93t-216.5 29.5q-64 0 -115.5 -5
t-109.5 -15v-549zM371 -325v134h650v-134h-650z" />
    <glyph glyph-name="uni1E5F" unicode="&#x1e5f;" horiz-adv-x="751" 
d="M141 1088h173l16 -145h12q51 77 133 117t176 40q45 0 88 -8v-191q-45 7 -99 7q-82 0 -162.5 -36t-128.5 -102v-770h-208v1088zM-58 -335v133h608v-133h-608z" />
    <glyph glyph-name="uni1E60" unicode="&#x1e60;" horiz-adv-x="1090" 
d="M280.5 -3.5q-98.5 15.5 -185.5 45.5v178q92 -31 191 -47t189 -16q335 0 335 241q0 67 -26.5 111.5t-84.5 75.5t-160 58l-90 23q-192 49 -286.5 148.5t-94.5 261.5q0 133 62 227.5t186 145t306 50.5q90 0 176 -11.5t156 -33.5v-177q-152 46 -323 46q-351 0 -351 -235
q0 -65 23.5 -108.5t77.5 -74t148 -55.5l89 -23q209 -53 306.5 -152.5t97.5 -262.5q0 -135 -64.5 -232t-187.5 -148t-296 -51q-95 0 -193.5 15.5zM452.5 1671q-35.5 29 -35.5 80q0 52 35.5 81t101.5 29t101.5 -29t35.5 -81q0 -51 -35.5 -80t-101.5 -29t-101.5 29z" />
    <glyph glyph-name="uni1E61" unicode="&#x1e61;" horiz-adv-x="923" 
d="M104 25v162q156 -47 313 -47q128 0 187.5 41t59.5 119q0 64 -33.5 97.5t-113.5 50.5l-156 31q-147 29 -213.5 103t-66.5 198q0 97 50 170.5t152 114t253 40.5q142 0 266 -33v-162q-127 35 -261 35q-140 0 -202 -43.5t-62 -116.5q0 -58 32.5 -93t110.5 -52l156 -30
q149 -31 217 -102.5t68 -198.5q0 -102 -51 -176t-150.5 -113.5t-240.5 -39.5q-171 0 -315 45zM364 1331q-35 31 -35 89t35 90t102 32t102 -32t35 -90t-35 -89t-102 -31t-102 31z" />
    <glyph glyph-name="uni1E62" unicode="&#x1e62;" horiz-adv-x="1090" 
d="M280.5 -3.5q-98.5 15.5 -185.5 45.5v178q92 -31 191 -47t189 -16q335 0 335 241q0 67 -26.5 111.5t-84.5 75.5t-160 58l-90 23q-192 49 -286.5 148.5t-94.5 261.5q0 133 62 227.5t186 145t306 50.5q90 0 176 -11.5t156 -33.5v-177q-152 46 -323 46q-351 0 -351 -235
q0 -65 23.5 -108.5t77.5 -74t148 -55.5l89 -23q209 -53 306.5 -152.5t97.5 -262.5q0 -135 -64.5 -232t-187.5 -148t-296 -51q-95 0 -193.5 15.5zM452.5 -342.5q-35.5 28.5 -35.5 80.5q0 51 36 80.5t101 29.5t101 -29.5t36 -80.5q0 -52 -35.5 -80.5t-101.5 -28.5t-101.5 28.5
z" />
    <glyph glyph-name="uni1E63" unicode="&#x1e63;" horiz-adv-x="923" 
d="M104 25v162q156 -47 313 -47q128 0 187.5 41t59.5 119q0 64 -33.5 97.5t-113.5 50.5l-156 31q-147 29 -213.5 103t-66.5 198q0 97 50 170.5t152 114t253 40.5q142 0 266 -33v-162q-127 35 -261 35q-140 0 -202 -43.5t-62 -116.5q0 -58 32.5 -93t110.5 -52l156 -30
q149 -31 217 -102.5t68 -198.5q0 -102 -51 -176t-150.5 -113.5t-240.5 -39.5q-171 0 -315 45zM375 -354q-33 31 -33 85t33 85.5t91 31.5t91 -31.5t33 -85.5t-33 -85t-91 -31t-91 31z" />
    <glyph glyph-name="uni1E64" unicode="&#x1e64;" horiz-adv-x="1090" 
d="M280.5 -3.5q-98.5 15.5 -185.5 45.5v178q92 -31 191 -47t189 -16q335 0 335 241q0 67 -26.5 111.5t-84.5 75.5t-160 58l-90 23q-192 49 -286.5 148.5t-94.5 261.5q0 133 62 227.5t186 145t306 50.5q90 0 176 -11.5t156 -33.5v-177q-152 46 -323 46q-351 0 -351 -235
q0 -65 23.5 -108.5t77.5 -74t148 -55.5l89 -23q209 -53 306.5 -152.5t97.5 -262.5q0 -135 -64.5 -232t-187.5 -148t-296 -51q-95 0 -193.5 15.5zM324.5 1879q-30.5 25 -30.5 69q0 45 30.5 70.5t86.5 25.5q55 0 85.5 -25.5t30.5 -70.5q0 -44 -30.5 -69t-85.5 -25
q-56 0 -86.5 25zM459 1604l179 290h222l-212 -290h-189z" />
    <glyph glyph-name="uni1E65" unicode="&#x1e65;" horiz-adv-x="923" 
d="M104 25v162q156 -47 313 -47q128 0 187.5 41t59.5 119q0 64 -33.5 97.5t-113.5 50.5l-156 31q-147 29 -213.5 103t-66.5 198q0 97 50 170.5t152 114t253 40.5q142 0 266 -33v-162q-127 35 -261 35q-140 0 -202 -43.5t-62 -116.5q0 -58 32.5 -93t110.5 -52l156 -30
q149 -31 217 -102.5t68 -198.5q0 -102 -51 -176t-150.5 -113.5t-240.5 -39.5q-171 0 -315 45zM269.5 1601q-30.5 25 -30.5 70t30.5 70t85.5 25q56 0 86.5 -25t30.5 -70t-30.5 -70t-86.5 -25q-55 0 -85.5 25zM371 1247l219 369h223l-252 -369h-190z" />
    <glyph glyph-name="uni1E66" unicode="&#x1e66;" horiz-adv-x="1090" 
d="M280.5 -3.5q-98.5 15.5 -185.5 45.5v178q92 -31 191 -47t189 -16q335 0 335 241q0 67 -26.5 111.5t-84.5 75.5t-160 58l-90 23q-192 49 -286.5 148.5t-94.5 261.5q0 133 62 227.5t186 145t306 50.5q90 0 176 -11.5t156 -33.5v-177q-152 46 -323 46q-351 0 -351 -235
q0 -65 23.5 -108.5t77.5 -74t148 -55.5l89 -23q209 -53 306.5 -152.5t97.5 -262.5q0 -135 -64.5 -232t-187.5 -148t-296 -51q-95 0 -193.5 15.5zM468 1934.5q-31 25.5 -31 69.5q0 45 31 70.5t86 25.5t86 -25.5t31 -70.5q0 -44 -31 -69.5t-86 -25.5t-86 25.5zM724 1894h170
l-247 -290h-185l-248 290h170l170 -205z" />
    <glyph glyph-name="uni1E67" unicode="&#x1e67;" horiz-adv-x="923" 
d="M104 25v162q156 -47 313 -47q128 0 187.5 41t59.5 119q0 64 -33.5 97.5t-113.5 50.5l-156 31q-147 29 -213.5 103t-66.5 198q0 97 50 170.5t152 114t253 40.5q142 0 266 -33v-162q-127 35 -261 35q-140 0 -202 -43.5t-62 -116.5q0 -58 32.5 -93t110.5 -52l156 -30
q149 -31 217 -102.5t68 -198.5q0 -102 -51 -176t-150.5 -113.5t-240.5 -39.5q-171 0 -315 45zM380 1656q-31 25 -31 69q0 45 31 70.5t86 25.5t86 -25.5t31 -70.5q0 -44 -31 -69t-86 -25t-86 25zM626 1616h159l-229 -369h-180l-229 369h159l160 -267z" />
    <glyph glyph-name="uni1E68" unicode="&#x1e68;" horiz-adv-x="1090" 
d="M280.5 -3.5q-98.5 15.5 -185.5 45.5v178q92 -31 191 -47t189 -16q335 0 335 241q0 67 -26.5 111.5t-84.5 75.5t-160 58l-90 23q-192 49 -286.5 148.5t-94.5 261.5q0 133 62 227.5t186 145t306 50.5q90 0 176 -11.5t156 -33.5v-177q-152 46 -323 46q-351 0 -351 -235
q0 -65 23.5 -108.5t77.5 -74t148 -55.5l89 -23q209 -53 306.5 -152.5t97.5 -262.5q0 -135 -64.5 -232t-187.5 -148t-296 -51q-95 0 -193.5 15.5zM452.5 -342.5q-35.5 28.5 -35.5 80.5q0 51 36 80.5t101 29.5t101 -29.5t36 -80.5q0 -52 -35.5 -80.5t-101.5 -28.5t-101.5 28.5
zM452.5 1671q-35.5 29 -35.5 80q0 52 35.5 81t101.5 29t101.5 -29t35.5 -81q0 -51 -35.5 -80t-101.5 -29t-101.5 29z" />
    <glyph glyph-name="uni1E69" unicode="&#x1e69;" horiz-adv-x="923" 
d="M104 25v162q156 -47 313 -47q128 0 187.5 41t59.5 119q0 64 -33.5 97.5t-113.5 50.5l-156 31q-147 29 -213.5 103t-66.5 198q0 97 50 170.5t152 114t253 40.5q142 0 266 -33v-162q-127 35 -261 35q-140 0 -202 -43.5t-62 -116.5q0 -58 32.5 -93t110.5 -52l156 -30
q149 -31 217 -102.5t68 -198.5q0 -102 -51 -176t-150.5 -113.5t-240.5 -39.5q-171 0 -315 45zM375 -354q-33 31 -33 85t33 85.5t91 31.5t91 -31.5t33 -85.5t-33 -85t-91 -31t-91 31zM364 1331q-35 31 -35 89t35 90t102 32t102 -32t35 -90t-35 -89t-102 -31t-102 31z" />
    <glyph glyph-name="uni1E6C" unicode="&#x1e6c;" horiz-adv-x="1208" 
d="M498 0v1299h-485v181h1182v-181h-485v-1299h-212zM502.5 -342.5q-35.5 28.5 -35.5 80.5q0 51 36 80.5t101 29.5t101 -29.5t36 -80.5q0 -52 -35.5 -80.5t-101.5 -28.5t-101.5 28.5z" />
    <glyph glyph-name="uni1E6D" unicode="&#x1e6d;" horiz-adv-x="777" 
d="M756 173v-172q-93 -20 -178 -20q-370 0 -370 376v563h-196v168h196l36 392h172v-392h326v-168h-326v-530q0 -127 51 -180t161 -53q54 0 128 16zM391 -354q-33 31 -33 85t33 85.5t91 31.5t91 -31.5t33 -85.5t-33 -85t-91 -31t-91 31z" />
    <glyph glyph-name="uni1E6E" unicode="&#x1e6e;" horiz-adv-x="1208" 
d="M498 0v1299h-485v181h1182v-181h-485v-1299h-212zM279 -325v134h650v-134h-650z" />
    <glyph glyph-name="uni1E6F" unicode="&#x1e6f;" horiz-adv-x="777" 
d="M756 173v-172q-93 -20 -178 -20q-370 0 -370 376v563h-196v168h196l36 392h172v-392h326v-168h-326v-530q0 -127 51 -180t161 -53q54 0 128 16zM178 -335v133h608v-133h-608z" />
    <glyph glyph-name="uni1E78" unicode="&#x1e78;" horiz-adv-x="1440" 
d="M289.5 125.5q-138.5 144.5 -138.5 450.5v904h211v-926q0 -206 87 -300t273 -94t273 94t87 300v926h207v-904q0 -306 -137 -450.5t-430 -144.5q-294 0 -432.5 144.5zM618 1924l179 232h241l-212 -232h-208zM801 1663q-37 10 -95 30q-46 18 -79.5 27t-67.5 9q-55 0 -97 -17
t-83 -54v133q34 34 78.5 51t104.5 17q44 0 83.5 -10.5t92.5 -30.5q51 -19 82 -27.5t65 -8.5q55 0 97 17t83 54v-133q-34 -34 -78.5 -50.5t-104.5 -16.5q-44 0 -81 10z" />
    <glyph glyph-name="uni1E79" unicode="&#x1e79;" horiz-adv-x="1153" 
d="M225 76.5q-95 94.5 -95 301.5v710h208v-698q0 -120 52.5 -172.5t148.5 -52.5q72 0 144 31.5t121 94.5v797h208v-1088h-174l-15 117h-11q-65 -67 -149 -101t-178 -34q-165 0 -260 94.5zM643 1339q-37 12 -87 34q-45 20 -75 29.5t-60 9.5q-50 0 -91.5 -19t-81.5 -60v141
q67 70 176 70q40 0 77 -11.5t88 -33.5q46 -20 75 -29.5t59 -9.5q51 0 92 18.5t81 59.5v-141q-67 -70 -176 -70q-40 0 -77 12zM530 1764l179 290h222l-212 -290h-189z" />
    <glyph glyph-name="uni1E7A" unicode="&#x1e7a;" horiz-adv-x="1440" 
d="M289.5 125.5q-138.5 144.5 -138.5 450.5v904h211v-926q0 -206 87 -300t273 -94t273 94t87 300v926h207v-904q0 -306 -137 -450.5t-430 -144.5q-294 0 -432.5 144.5zM397 1683v133h650v-133h-650zM389 1967q-32 29 -32 80t32 80.5t91 29.5t91.5 -29.5t32.5 -80.5
t-32.5 -80t-91.5 -29t-91 29zM872.5 1967q-32.5 29 -32.5 80t32.5 80.5t91.5 29.5t91 -29.5t32 -80.5t-32 -80t-91 -29t-91.5 29z" />
    <glyph glyph-name="uni1E7B" unicode="&#x1e7b;" horiz-adv-x="1153" 
d="M225 76.5q-95 94.5 -95 301.5v710h208v-698q0 -120 52.5 -172.5t148.5 -52.5q72 0 144 31.5t121 94.5v797h208v-1088h-174l-15 117h-11q-65 -67 -149 -101t-178 -34q-165 0 -260 94.5zM248 1355v134h648v-134h-648zM255 1658q-33 31 -33 86q0 56 33 87.5t91 31.5t91 -32
t33 -87t-33 -86t-91 -31t-91 31zM707.5 1658q-32.5 31 -32.5 86q0 56 32.5 87.5t90.5 31.5t91 -31.5t33 -87.5q0 -55 -33 -86t-91 -31t-90.5 31z" />
    <glyph glyph-name="Wgrave" unicode="&#x1e80;" horiz-adv-x="2162" 
d="M1912 1480h202l-408 -1480h-275l-347 1248l-354 -1248h-274l-409 1480h216l344 -1287l358 1287h242l354 -1294zM988 1604l-213 290h222l179 -290h-188z" />
    <glyph glyph-name="wgrave" unicode="&#x1e81;" horiz-adv-x="1726" 
d="M1479 1088h193l-310 -1088h-238l-259 885l-262 -885h-238l-311 1088h201l240 -867l254 867h238l249 -862zM770 1247l-252 369h223l219 -369h-190z" />
    <glyph glyph-name="Wacute" unicode="&#x1e82;" horiz-adv-x="2162" 
d="M1912 1480h202l-408 -1480h-275l-347 1248l-354 -1248h-274l-409 1480h216l344 -1287l358 1287h242l354 -1294zM987 1604l179 290h222l-212 -290h-189z" />
    <glyph glyph-name="wacute" unicode="&#x1e83;" horiz-adv-x="1726" 
d="M1479 1088h193l-310 -1088h-238l-259 885l-262 -885h-238l-311 1088h201l240 -867l254 867h238l249 -862zM770 1247l219 369h223l-252 -369h-190z" />
    <glyph glyph-name="Wdieresis" unicode="&#x1e84;" horiz-adv-x="2162" 
d="M1912 1480h202l-408 -1480h-275l-347 1248l-354 -1248h-274l-409 1480h216l344 -1287l358 1287h242l354 -1294zM749 1671q-32 29 -32 80t32 80.5t91 29.5t91.5 -29.5t32.5 -80.5t-32.5 -80t-91.5 -29t-91 29zM1232.5 1671q-32.5 29 -32.5 80t32.5 80.5t91.5 29.5
t91 -29.5t32 -80.5t-32 -80t-91 -29t-91.5 29z" />
    <glyph glyph-name="wdieresis" unicode="&#x1e85;" horiz-adv-x="1726" 
d="M1479 1088h193l-310 -1088h-238l-259 885l-262 -885h-238l-311 1088h201l240 -867l254 867h238l249 -862zM548 1334q-33 31 -33 86q0 56 33 87.5t91 31.5t91 -32t33 -87t-33 -86t-91 -31t-91 31zM1000.5 1334q-32.5 31 -32.5 86q0 56 32.5 87.5t90.5 31.5t91 -31.5
t33 -87.5q0 -55 -33 -86t-91 -31t-90.5 31z" />
    <glyph glyph-name="uni1E8E" unicode="&#x1e8e;" horiz-adv-x="1208" 
d="M1236 1480l-525 -832v-648h-212v647l-537 833h229l419 -648l412 648h214zM502.5 1671q-35.5 29 -35.5 80q0 52 35.5 81t101.5 29t101.5 -29t35.5 -81q0 -51 -35.5 -80t-101.5 -29t-101.5 29z" />
    <glyph glyph-name="uni1E8F" unicode="&#x1e8f;" horiz-adv-x="1089" 
d="M871 1088h207l-564 -1528h-206l164 440h-60l-401 1088h219l317 -912zM444 1331q-35 31 -35 89t35 90t102 32t102 -32t35 -90t-35 -89t-102 -31t-102 31z" />
    <glyph glyph-name="uni1E92" unicode="&#x1e92;" horiz-adv-x="1179" 
d="M336 180h782v-180h-1058v117l771 1183h-760v180h1036v-117zM486.5 -342.5q-35.5 28.5 -35.5 80.5q0 51 36 80.5t101 29.5t101 -29.5t36 -80.5q0 -52 -35.5 -80.5t-101.5 -28.5t-101.5 28.5z" />
    <glyph glyph-name="uni1E93" unicode="&#x1e93;" horiz-adv-x="945" 
d="M320 168h573v-168h-830v130l561 790h-550v168h807v-130zM387 -354q-33 31 -33 85t33 85.5t91 31.5t91 -31.5t33 -85.5t-33 -85t-91 -31t-91 31z" />
    <glyph glyph-name="uni1E97" unicode="&#x1e97;" horiz-adv-x="777" 
d="M756 173v-172q-93 -20 -178 -20q-370 0 -370 376v563h-196v168h196l36 392h172v-392h326v-168h-326v-530q0 -127 51 -180t161 -53q54 0 128 16zM-5 1630q-33 31 -33 86q0 56 33 87.5t91 31.5t91 -32t33 -87t-33 -86t-91 -31t-91 31zM447.5 1630q-32.5 31 -32.5 86
q0 56 32.5 87.5t90.5 31.5t91 -31.5t33 -87.5q0 -55 -33 -86t-91 -31t-90.5 31z" />
    <glyph glyph-name="uni1E9E" unicode="&#x1e9e;" horiz-adv-x="1733" 
d="M1569 674.5q96 -99.5 96 -262.5q0 -135 -63.5 -232t-185 -148t-292.5 -51q-91 0 -187.5 15t-180.5 44v178q89 -30 185.5 -45.5t181.5 -15.5q332 0 332 241q0 67 -26 111.5t-83 76.5t-155 57l-87 23q-188 49 -281.5 149t-93.5 261q0 143 70 240q-45 8 -91 8
q-174 0 -256 -89t-82 -276v-959h-212v932q0 285 135 426t415 141q154 0 272 -48q124 48 298 48q84 0 167.5 -11.5t152.5 -31.5v-177q-149 44 -310 44q-348 0 -348 -235q0 -65 23 -108.5t75.5 -74.5t142.5 -55l87 -23q205 -53 301 -152.5z" />
    <glyph glyph-name="uni1EA0" unicode="&#x1ea0;" horiz-adv-x="1380" 
d="M1144 0l-154 453h-603l-154 -453h-209l514 1480h303l515 -1480h-212zM446 628h484l-242 711zM588.5 -342.5q-35.5 28.5 -35.5 80.5q0 51 36 80.5t101 29.5t101 -29.5t36 -80.5q0 -52 -35.5 -80.5t-101.5 -28.5t-101.5 28.5z" />
    <glyph glyph-name="uni1EA1" unicode="&#x1ea1;" horiz-adv-x="1055" 
d="M732.5 1066q96.5 -39 144.5 -129t48 -244v-693h-173l-15 118h-12q-51 -66 -131 -101t-175 -35q-104 0 -179.5 36.5t-116 105t-40.5 160.5q0 148 99 229t313 99l226 23v69q0 91 -28.5 142t-87 72.5t-154.5 21.5q-67 0 -144.5 -11.5t-149.5 -35.5v164q70 23 158 35.5
t168 12.5q153 0 249.5 -39zM609 162.5q63 27.5 112 85.5v257l-209 -21q-116 -12 -168.5 -56t-52.5 -124q0 -83 47.5 -126t140.5 -43q67 0 130 27.5zM442 -354q-33 31 -33 85t33 85.5t91 31.5t91 -31.5t33 -85.5t-33 -85t-91 -31t-91 31z" />
    <glyph glyph-name="uni1EA2" unicode="&#x1ea2;" horiz-adv-x="1380" 
d="M1144 0l-154 453h-603l-154 -453h-209l514 1480h303l515 -1480h-212zM446 628h484l-242 711zM647.5 1654.5q15.5 20.5 35 32.5t52.5 27q33 16 48 27t15 28q0 21 -26.5 32.5t-88.5 11.5q-98 0 -194 -30v91q41 14 97 22.5t111 8.5q112 0 166.5 -32t54.5 -91
q0 -28 -13 -47.5t-31 -31.5t-49 -28q-36 -17 -54.5 -32.5t-21.5 -38.5h-118q1 30 16.5 50.5z" />
    <glyph glyph-name="uni1EA3" unicode="&#x1ea3;" horiz-adv-x="1055" 
d="M732.5 1066q96.5 -39 144.5 -129t48 -244v-693h-173l-15 118h-12q-51 -66 -131 -101t-175 -35q-104 0 -179.5 36.5t-116 105t-40.5 160.5q0 148 99 229t313 99l226 23v69q0 91 -28.5 142t-87 72.5t-154.5 21.5q-67 0 -144.5 -11.5t-149.5 -35.5v164q70 23 158 35.5
t168 12.5q153 0 249.5 -39zM609 162.5q63 27.5 112 85.5v257l-209 -21q-116 -12 -168.5 -56t-52.5 -124q0 -83 47.5 -126t140.5 -43q67 0 130 27.5zM481.5 1314q14.5 28 33 45t48.5 39q31 23 44.5 38t13.5 36q0 32 -27 47t-85 15q-82 0 -160 -24v93q34 11 81.5 18t89.5 7
q221 0 221 -144q0 -33 -11.5 -56.5t-27.5 -39t-44 -35.5q-37 -27 -55 -49t-20 -57h-117q1 39 15.5 67z" />
    <glyph glyph-name="uni1EA4" unicode="&#x1ea4;" horiz-adv-x="1380" 
d="M1144 0l-154 453h-603l-154 -453h-209l514 1480h303l515 -1480h-212zM446 628h484l-242 711zM1071 2064h155l-176 -258h-125zM598 1876h185l247 -272h-170l-170 194l-170 -194h-170z" />
    <glyph glyph-name="uni1EA5" unicode="&#x1ea5;" horiz-adv-x="1055" 
d="M732.5 1066q96.5 -39 144.5 -129t48 -244v-693h-173l-15 118h-12q-51 -66 -131 -101t-175 -35q-104 0 -179.5 36.5t-116 105t-40.5 160.5q0 148 99 229t313 99l226 23v69q0 91 -28.5 142t-87 72.5t-154.5 21.5q-67 0 -144.5 -11.5t-149.5 -35.5v164q70 23 158 35.5
t168 12.5q153 0 249.5 -39zM609 162.5q63 27.5 112 85.5v257l-209 -21q-116 -12 -168.5 -56t-52.5 -124q0 -83 47.5 -126t140.5 -43q67 0 130 27.5zM920 1868h186l-212 -271h-153zM434 1616h180l226 -369h-158l-158 266l-158 -266h-158z" />
    <glyph glyph-name="uni1EA6" unicode="&#x1ea6;" horiz-adv-x="1380" 
d="M1144 0l-154 453h-603l-154 -453h-209l514 1480h303l515 -1480h-212zM446 628h484l-242 711zM1078 1806h-125l-176 258h155zM598 1876h185l247 -272h-170l-170 194l-170 -194h-170z" />
    <glyph glyph-name="uni1EA7" unicode="&#x1ea7;" horiz-adv-x="1055" 
d="M732.5 1066q96.5 -39 144.5 -129t48 -244v-693h-173l-15 118h-12q-51 -66 -131 -101t-175 -35q-104 0 -179.5 36.5t-116 105t-40.5 160.5q0 148 99 229t313 99l226 23v69q0 91 -28.5 142t-87 72.5t-154.5 21.5q-67 0 -144.5 -11.5t-149.5 -35.5v164q70 23 158 35.5
t168 12.5q153 0 249.5 -39zM609 162.5q63 27.5 112 85.5v257l-209 -21q-116 -12 -168.5 -56t-52.5 -124q0 -83 47.5 -126t140.5 -43q67 0 130 27.5zM918 1597h-153l-212 271h186zM434 1616h180l226 -369h-158l-158 266l-158 -266h-158z" />
    <glyph glyph-name="uni1EA8" unicode="&#x1ea8;" horiz-adv-x="1380" 
d="M1144 0l-154 453h-603l-154 -453h-209l514 1480h303l515 -1480h-212zM446 628h484l-242 711zM1158 2058q55 -30 55 -85q0 -37 -24 -58t-70 -42q-36 -16 -54.5 -30.5t-21.5 -36.5h-118q2 40 29.5 62t74.5 42q34 15 48.5 25t14.5 27q0 43 -114 43q-98 0 -195 -29v82
q41 14 97 22t111 8q112 0 167 -30zM598 1876h185l247 -272h-170l-170 194l-170 -194h-170z" />
    <glyph glyph-name="uni1EA9" unicode="&#x1ea9;" horiz-adv-x="1055" 
d="M732.5 1066q96.5 -39 144.5 -129t48 -244v-693h-173l-15 118h-12q-51 -66 -131 -101t-175 -35q-104 0 -179.5 36.5t-116 105t-40.5 160.5q0 148 99 229t313 99l226 23v69q0 91 -28.5 142t-87 72.5t-154.5 21.5q-67 0 -144.5 -11.5t-149.5 -35.5v164q70 23 158 35.5
t168 12.5q153 0 249.5 -39zM609 162.5q63 27.5 112 85.5v257l-209 -21q-116 -12 -168.5 -56t-52.5 -124q0 -83 47.5 -126t140.5 -43q67 0 130 27.5zM1015 1764q0 -36 -22 -55t-66 -41q-36 -17 -55.5 -31.5t-22.5 -39.5h-113q3 42 29.5 64.5t72.5 41.5q31 13 45 23.5t14 26.5
q0 21 -25.5 32t-84.5 11q-100 0 -190 -29v82q39 13 94 21t109 8q215 0 215 -114zM434 1616h180l226 -369h-158l-158 266l-158 -266h-158z" />
    <glyph glyph-name="uni1EAA" unicode="&#x1eaa;" horiz-adv-x="1380" 
d="M1144 0l-154 453h-603l-154 -453h-209l514 1480h303l515 -1480h-212zM446 628h484l-242 711zM938.5 2037q43.5 16 91.5 53v-108q-40 -33 -85 -47t-103 -14q-41 0 -77 8.5t-94 27.5q-45 16 -75 23.5t-59 7.5q-52 0 -95.5 -16t-91.5 -52v107q42 33 86.5 48t101.5 15
q42 0 80.5 -9.5t90.5 -28.5q45 -16 75 -23.5t59 -7.5q52 0 95.5 16zM598 1876h185l247 -272h-170l-170 194l-170 -194h-170z" />
    <glyph glyph-name="uni1EAB" unicode="&#x1eab;" horiz-adv-x="1055" 
d="M732.5 1066q96.5 -39 144.5 -129t48 -244v-693h-173l-15 118h-12q-51 -66 -131 -101t-175 -35q-104 0 -179.5 36.5t-116 105t-40.5 160.5q0 148 99 229t313 99l226 23v69q0 91 -28.5 142t-87 72.5t-154.5 21.5q-67 0 -144.5 -11.5t-149.5 -35.5v164q70 23 158 35.5
t168 12.5q153 0 249.5 -39zM609 162.5q63 27.5 112 85.5v257l-209 -21q-116 -12 -168.5 -56t-52.5 -124q0 -83 47.5 -126t140.5 -43q67 0 130 27.5zM775 1776q41 16 82 51v-120q-66 -63 -179 -63q-42 0 -78.5 9.5t-91.5 28.5q-43 17 -75.5 25.5t-65.5 8.5q-52 0 -93.5 -16
t-82.5 -51v120q34 32 77.5 47.5t101.5 15.5q42 0 79.5 -10t91.5 -29q46 -17 77 -25t63 -8q53 0 94 16zM432 1585h185l234 -338h-164l-163 249l-163 -249h-164z" />
    <glyph glyph-name="uni1EAC" unicode="&#x1eac;" horiz-adv-x="1380" 
d="M1144 0l-154 453h-603l-154 -453h-209l514 1480h303l515 -1480h-212zM446 628h484l-242 711zM588.5 -342.5q-35.5 28.5 -35.5 80.5q0 51 36 80.5t101 29.5t101 -29.5t36 -80.5q0 -52 -35.5 -80.5t-101.5 -28.5t-101.5 28.5zM1030 1604h-170l-170 205l-170 -205h-170
l248 290h185z" />
    <glyph glyph-name="uni1EAD" unicode="&#x1ead;" horiz-adv-x="1055" 
d="M732.5 1066q96.5 -39 144.5 -129t48 -244v-693h-173l-15 118h-12q-51 -66 -131 -101t-175 -35q-104 0 -179.5 36.5t-116 105t-40.5 160.5q0 148 99 229t313 99l226 23v69q0 91 -28.5 142t-87 72.5t-154.5 21.5q-67 0 -144.5 -11.5t-149.5 -35.5v164q70 23 158 35.5
t168 12.5q153 0 249.5 -39zM609 162.5q63 27.5 112 85.5v257l-209 -21q-116 -12 -168.5 -56t-52.5 -124q0 -83 47.5 -126t140.5 -43q67 0 130 27.5zM442 -354q-33 31 -33 85t33 85.5t91 31.5t91 -31.5t33 -85.5t-33 -85t-91 -31t-91 31zM840 1247h-158l-158 266l-158 -266
h-158l226 369h180z" />
    <glyph glyph-name="uni1EAE" unicode="&#x1eae;" horiz-adv-x="1380" 
d="M1144 0l-154 453h-603l-154 -453h-209l514 1480h303l515 -1480h-212zM446 628h484l-242 711zM628 1839l145 245h156l-177 -245h-124zM457.5 1676.5q-82.5 65.5 -96.5 182.5h121q12 -74 59.5 -110.5t149.5 -36.5t148.5 36t62.5 111h117q-14 -116 -96.5 -182t-231.5 -66
q-151 0 -233.5 65.5z" />
    <glyph glyph-name="uni1EAF" unicode="&#x1eaf;" horiz-adv-x="1055" 
d="M732.5 1066q96.5 -39 144.5 -129t48 -244v-693h-173l-15 118h-12q-51 -66 -131 -101t-175 -35q-104 0 -179.5 36.5t-116 105t-40.5 160.5q0 148 99 229t313 99l226 23v69q0 91 -28.5 142t-87 72.5t-154.5 21.5q-67 0 -144.5 -11.5t-149.5 -35.5v164q70 23 158 35.5
t168 12.5q153 0 249.5 -39zM609 162.5q63 27.5 112 85.5v257l-209 -21q-116 -12 -168.5 -56t-52.5 -124q0 -83 47.5 -126t140.5 -43q67 0 130 27.5zM447 1597l179 271h186l-212 -271h-153zM293 1342q-84 83 -95 230h135q9 -100 56 -150.5t136 -50.5q90 0 136 50.5t54 150.5
h135q-11 -149 -94 -231t-231 -82t-232 83z" />
    <glyph glyph-name="uni1EB0" unicode="&#x1eb0;" horiz-adv-x="1380" 
d="M1144 0l-154 453h-603l-154 -453h-209l514 1480h303l515 -1480h-212zM446 628h484l-242 711zM628 1839l-177 245h156l145 -245h-124zM457 1676.5q-82 65.5 -96 182.5h117q15 -75 62 -111t149 -36t149 36.5t60 110.5h121q-14 -116 -97 -182t-233 -66t-232 65.5z" />
    <glyph glyph-name="uni1EB1" unicode="&#x1eb1;" horiz-adv-x="1055" 
d="M732.5 1066q96.5 -39 144.5 -129t48 -244v-693h-173l-15 118h-12q-51 -66 -131 -101t-175 -35q-104 0 -179.5 36.5t-116 105t-40.5 160.5q0 148 99 229t313 99l226 23v69q0 91 -28.5 142t-87 72.5t-154.5 21.5q-67 0 -144.5 -11.5t-149.5 -35.5v164q70 23 158 35.5
t168 12.5q153 0 249.5 -39zM609 162.5q63 27.5 112 85.5v257l-209 -21q-116 -12 -168.5 -56t-52.5 -124q0 -83 47.5 -126t140.5 -43q67 0 130 27.5zM448 1597l-212 271h186l179 -271h-153zM293 1342q-84 83 -95 230h135q9 -100 56 -150.5t136 -50.5q90 0 136 50.5t54 150.5
h135q-11 -149 -94 -231t-231 -82t-232 83z" />
    <glyph glyph-name="uni1EB2" unicode="&#x1eb2;" horiz-adv-x="1380" 
d="M1144 0l-154 453h-603l-154 -453h-209l514 1480h303l515 -1480h-212zM446 628h484l-242 711zM659.5 1900.5q26.5 21.5 74.5 41.5q33 15 48.5 25.5t15.5 27.5q0 21 -26.5 31.5t-88.5 10.5q-97 0 -194 -29v83q40 13 96 21t112 8q112 0 166.5 -30t54.5 -84q0 -27 -13 -45
t-31 -29.5t-50 -26.5q-36 -17 -54 -30.5t-21 -35.5h-118q2 40 28.5 61.5zM457 1676.5q-82 65.5 -96 182.5h121q12 -75 58.5 -111t148.5 -36q101 0 149 36t64 111h117q-14 -116 -97 -182t-233 -66t-232 65.5z" />
    <glyph glyph-name="uni1EB3" unicode="&#x1eb3;" horiz-adv-x="1055" 
d="M732.5 1066q96.5 -39 144.5 -129t48 -244v-693h-173l-15 118h-12q-51 -66 -131 -101t-175 -35q-104 0 -179.5 36.5t-116 105t-40.5 160.5q0 148 99 229t313 99l226 23v69q0 91 -28.5 142t-87 72.5t-154.5 21.5q-67 0 -144.5 -11.5t-149.5 -35.5v164q70 23 158 35.5
t168 12.5q153 0 249.5 -39zM609 162.5q63 27.5 112 85.5v257l-209 -21q-116 -12 -168.5 -56t-52.5 -124q0 -83 47.5 -126t140.5 -43q67 0 130 27.5zM493.5 1658.5q26.5 21.5 74.5 41.5q33 15 48.5 25.5t15.5 27.5q0 21 -26.5 31.5t-88.5 10.5q-97 0 -194 -29v83q40 13 96 21
t112 8q113 0 167 -29.5t54 -84.5q0 -37 -24 -58t-69 -42q-36 -16 -54.5 -30.5t-21.5 -36.5h-118q2 40 28.5 61.5zM293 1342q-84 83 -95 230h135q9 -100 56 -150.5t136 -50.5q90 0 136 50.5t54 150.5h135q-11 -149 -94 -231t-231 -82t-232 83z" />
    <glyph glyph-name="uni1EB4" unicode="&#x1eb4;" horiz-adv-x="1380" 
d="M1144 0l-154 453h-603l-154 -453h-209l514 1480h303l515 -1480h-212zM446 628h484l-242 711zM761.5 1929.5q-33.5 8.5 -88.5 27.5q-44 16 -72.5 23.5t-56.5 7.5q-50 0 -92 -16t-91 -52v107q42 33 86 48t99 15q39 0 74.5 -9.5t86.5 -27.5q42 -16 71.5 -24t57.5 -8
q51 0 93 16t90 53v-108q-41 -33 -85 -47t-100 -14q-39 0 -72.5 8.5zM457 1676.5q-82 65.5 -96 182.5h121q12 -75 58.5 -111t148.5 -36q101 0 148.5 36.5t60.5 110.5h121q-14 -116 -97 -182t-233 -66t-232 65.5z" />
    <glyph glyph-name="uni1EB5" unicode="&#x1eb5;" horiz-adv-x="1055" 
d="M732.5 1066q96.5 -39 144.5 -129t48 -244v-693h-173l-15 118h-12q-51 -66 -131 -101t-175 -35q-104 0 -179.5 36.5t-116 105t-40.5 160.5q0 148 99 229t313 99l226 23v69q0 91 -28.5 142t-87 72.5t-154.5 21.5q-67 0 -144.5 -11.5t-149.5 -35.5v164q70 23 158 35.5
t168 12.5q153 0 249.5 -39zM609 162.5q63 27.5 112 85.5v257l-209 -21q-116 -12 -168.5 -56t-52.5 -124q0 -83 47.5 -126t140.5 -43q67 0 130 27.5zM601.5 1653q-36.5 9 -93.5 29q-45 17 -77.5 25.5t-65.5 8.5q-53 0 -95 -16t-84 -51v120q68 63 182 63q42 0 78.5 -9
t93.5 -29q45 -17 77.5 -25.5t65.5 -8.5q53 0 95 16t84 51v-120q-68 -63 -182 -63q-42 0 -78.5 9zM293 1342q-84 83 -95 230h135q9 -100 56 -150.5t136 -50.5q90 0 136 50.5t54 150.5h135q-11 -149 -94 -231t-231 -82t-232 83z" />
    <glyph glyph-name="uni1EB6" unicode="&#x1eb6;" horiz-adv-x="1380" 
d="M1144 0l-154 453h-603l-154 -453h-209l514 1480h303l515 -1480h-212zM446 628h484l-242 711zM588.5 -342.5q-35.5 28.5 -35.5 80.5q0 51 36 80.5t101 29.5t101 -29.5t36 -80.5q0 -52 -35.5 -80.5t-101.5 -28.5t-101.5 28.5zM451 1682q-86 71 -99 195h135
q12 -77 59.5 -114.5t144.5 -37.5t144 37.5t58 114.5h135q-13 -125 -97.5 -195.5t-239.5 -70.5q-154 0 -240 71z" />
    <glyph glyph-name="uni1EB7" unicode="&#x1eb7;" horiz-adv-x="1055" 
d="M732.5 1066q96.5 -39 144.5 -129t48 -244v-693h-173l-15 118h-12q-51 -66 -131 -101t-175 -35q-104 0 -179.5 36.5t-116 105t-40.5 160.5q0 148 99 229t313 99l226 23v69q0 91 -28.5 142t-87 72.5t-154.5 21.5q-67 0 -144.5 -11.5t-149.5 -35.5v164q70 23 158 35.5
t168 12.5q153 0 249.5 -39zM609 162.5q63 27.5 112 85.5v257l-209 -21q-116 -12 -168.5 -56t-52.5 -124q0 -83 47.5 -126t140.5 -43q67 0 130 27.5zM442 -354q-33 31 -33 85t33 85.5t91 31.5t91 -31.5t33 -85.5t-33 -85t-91 -31t-91 31zM295.5 1343.5
q-83.5 86.5 -90.5 247.5h134q7 -108 52.5 -163t133.5 -55t133 54.5t51 163.5h134q-7 -162 -89.5 -248t-228.5 -86t-229.5 86.5z" />
    <glyph glyph-name="uni1EB8" unicode="&#x1eb8;" horiz-adv-x="1193" 
d="M367 175h753v-175h-962v1480h952v-175h-743v-459h644v-175h-644v-496zM556.5 -342.5q-35.5 28.5 -35.5 80.5q0 51 36 80.5t101 29.5t101 -29.5t36 -80.5q0 -52 -35.5 -80.5t-101.5 -28.5t-101.5 28.5z" />
    <glyph glyph-name="uni1EB9" unicode="&#x1eb9;" horiz-adv-x="1053" 
d="M981 479h-684q4 -122 42.5 -195t114.5 -106t199 -33q117 0 273 41v-164q-158 -42 -299 -42q-275 0 -408 135t-133 430q0 276 120.5 418t339.5 142q212 0 323.5 -141.5t111.5 -424.5v-60zM362.5 880.5q-62.5 -81.5 -66.5 -269.5h489q-4 188 -63.5 269.5t-177.5 81.5
q-119 0 -181.5 -81.5zM452 -354q-33 31 -33 85t33 85.5t91 31.5t91 -31.5t33 -85.5t-33 -85t-91 -31t-91 31z" />
    <glyph glyph-name="uni1EBA" unicode="&#x1eba;" horiz-adv-x="1193" 
d="M367 175h753v-175h-962v1480h952v-175h-743v-459h644v-175h-644v-496zM613.5 1654.5q15.5 20.5 35 32.5t52.5 27q33 16 48 27t15 28q0 21 -26.5 32.5t-88.5 11.5q-98 0 -194 -30v91q41 14 97 22.5t111 8.5q112 0 166.5 -32t54.5 -91q0 -28 -13 -47.5t-31 -31.5t-49 -28
q-36 -17 -54.5 -32.5t-21.5 -38.5h-118q1 30 16.5 50.5z" />
    <glyph glyph-name="uni1EBB" unicode="&#x1ebb;" horiz-adv-x="1053" 
d="M981 479h-684q4 -122 42.5 -195t114.5 -106t199 -33q117 0 273 41v-164q-158 -42 -299 -42q-275 0 -408 135t-133 430q0 276 120.5 418t339.5 142q212 0 323.5 -141.5t111.5 -424.5v-60zM362.5 880.5q-62.5 -81.5 -66.5 -269.5h489q-4 188 -63.5 269.5t-177.5 81.5
q-119 0 -181.5 -81.5zM500.5 1314q14.5 28 33 45t48.5 39q31 23 44.5 38t13.5 36q0 32 -27 47t-85 15q-82 0 -160 -24v93q34 11 81.5 18t89.5 7q221 0 221 -144q0 -33 -11.5 -56.5t-27.5 -39t-44 -35.5q-37 -27 -55 -49t-20 -57h-117q1 39 15.5 67z" />
    <glyph glyph-name="uni1EBC" unicode="&#x1ebc;" horiz-adv-x="1193" 
d="M367 175h753v-175h-962v1480h952v-175h-743v-459h644v-175h-644v-496zM735 1663q-37 10 -95 30q-46 18 -79.5 27t-67.5 9q-55 0 -97 -17t-83 -54v133q34 34 78.5 51t104.5 17q44 0 83.5 -10.5t92.5 -30.5q51 -19 82 -27.5t65 -8.5q55 0 97 17t83 54v-133
q-34 -34 -78.5 -50.5t-104.5 -16.5q-44 0 -81 10z" />
    <glyph glyph-name="uni1EBD" unicode="&#x1ebd;" horiz-adv-x="1053" 
d="M981 479h-684q4 -122 42.5 -195t114.5 -106t199 -33q117 0 273 41v-164q-158 -42 -299 -42q-275 0 -408 135t-133 430q0 276 120.5 418t339.5 142q212 0 323.5 -141.5t111.5 -424.5v-60zM362.5 880.5q-62.5 -81.5 -66.5 -269.5h489q-4 188 -63.5 269.5t-177.5 81.5
q-119 0 -181.5 -81.5zM614 1339q-37 12 -87 34q-45 20 -75 29.5t-60 9.5q-50 0 -91.5 -19t-81.5 -60v141q67 70 176 70q40 0 77 -11.5t88 -33.5q46 -20 75 -29.5t59 -9.5q51 0 92 18.5t81 59.5v-141q-67 -70 -176 -70q-40 0 -77 12z" />
    <glyph glyph-name="uni1EBE" unicode="&#x1ebe;" horiz-adv-x="1193" 
d="M367 175h753v-175h-962v1480h952v-175h-743v-459h644v-175h-644v-496zM1037 2064h155l-176 -258h-125zM564 1876h185l247 -272h-170l-170 194l-170 -194h-170z" />
    <glyph glyph-name="uni1EBF" unicode="&#x1ebf;" horiz-adv-x="1053" 
d="M981 479h-684q4 -122 42.5 -195t114.5 -106t199 -33q117 0 273 41v-164q-158 -42 -299 -42q-275 0 -408 135t-133 430q0 276 120.5 418t339.5 142q212 0 323.5 -141.5t111.5 -424.5v-60zM362.5 880.5q-62.5 -81.5 -66.5 -269.5h489q-4 188 -63.5 269.5t-177.5 81.5
q-119 0 -181.5 -81.5zM939 1868h186l-212 -271h-153zM453 1616h180l226 -369h-158l-158 266l-158 -266h-158z" />
    <glyph glyph-name="uni1EC0" unicode="&#x1ec0;" horiz-adv-x="1193" 
d="M367 175h753v-175h-962v1480h952v-175h-743v-459h644v-175h-644v-496zM1044 1806h-125l-176 258h155zM564 1876h185l247 -272h-170l-170 194l-170 -194h-170z" />
    <glyph glyph-name="uni1EC1" unicode="&#x1ec1;" horiz-adv-x="1053" 
d="M981 479h-684q4 -122 42.5 -195t114.5 -106t199 -33q117 0 273 41v-164q-158 -42 -299 -42q-275 0 -408 135t-133 430q0 276 120.5 418t339.5 142q212 0 323.5 -141.5t111.5 -424.5v-60zM362.5 880.5q-62.5 -81.5 -66.5 -269.5h489q-4 188 -63.5 269.5t-177.5 81.5
q-119 0 -181.5 -81.5zM937 1597h-153l-212 271h186zM453 1616h180l226 -369h-158l-158 266l-158 -266h-158z" />
    <glyph glyph-name="uni1EC2" unicode="&#x1ec2;" horiz-adv-x="1193" 
d="M367 175h753v-175h-962v1480h952v-175h-743v-459h644v-175h-644v-496zM1124 2058q55 -30 55 -85q0 -37 -24 -58t-70 -42q-36 -16 -54.5 -30.5t-21.5 -36.5h-118q2 40 29.5 62t74.5 42q34 15 48.5 25t14.5 27q0 43 -114 43q-98 0 -195 -29v82q41 14 97 22t111 8
q112 0 167 -30zM564 1876h185l247 -272h-170l-170 194l-170 -194h-170z" />
    <glyph glyph-name="uni1EC3" unicode="&#x1ec3;" horiz-adv-x="1053" 
d="M981 479h-684q4 -122 42.5 -195t114.5 -106t199 -33q117 0 273 41v-164q-158 -42 -299 -42q-275 0 -408 135t-133 430q0 276 120.5 418t339.5 142q212 0 323.5 -141.5t111.5 -424.5v-60zM362.5 880.5q-62.5 -81.5 -66.5 -269.5h489q-4 188 -63.5 269.5t-177.5 81.5
q-119 0 -181.5 -81.5zM1034 1764q0 -36 -22 -55t-66 -41q-36 -17 -55.5 -31.5t-22.5 -39.5h-113q3 42 29.5 64.5t72.5 41.5q31 13 45 23.5t14 26.5q0 21 -25.5 32t-84.5 11q-100 0 -190 -29v82q39 13 94 21t109 8q215 0 215 -114zM453 1616h180l226 -369h-158l-158 266
l-158 -266h-158z" />
    <glyph glyph-name="uni1EC4" unicode="&#x1ec4;" horiz-adv-x="1193" 
d="M367 175h753v-175h-962v1480h952v-175h-743v-459h644v-175h-644v-496zM904.5 2037q43.5 16 91.5 53v-108q-40 -33 -85 -47t-103 -14q-41 0 -77 8.5t-94 27.5q-45 16 -75 23.5t-59 7.5q-52 0 -95.5 -16t-91.5 -52v107q42 33 86.5 48t101.5 15q42 0 80.5 -9.5t90.5 -28.5
q45 -16 75 -23.5t59 -7.5q52 0 95.5 16zM564 1876h185l247 -272h-170l-170 194l-170 -194h-170z" />
    <glyph glyph-name="uni1EC5" unicode="&#x1ec5;" horiz-adv-x="1053" 
d="M981 479h-684q4 -122 42.5 -195t114.5 -106t199 -33q117 0 273 41v-164q-158 -42 -299 -42q-275 0 -408 135t-133 430q0 276 120.5 418t339.5 142q212 0 323.5 -141.5t111.5 -424.5v-60zM362.5 880.5q-62.5 -81.5 -66.5 -269.5h489q-4 188 -63.5 269.5t-177.5 81.5
q-119 0 -181.5 -81.5zM794 1776q41 16 82 51v-120q-66 -63 -179 -63q-42 0 -78.5 9.5t-91.5 28.5q-43 17 -75.5 25.5t-65.5 8.5q-52 0 -93.5 -16t-82.5 -51v120q34 32 77.5 47.5t101.5 15.5q42 0 79.5 -10t91.5 -29q46 -17 77 -25t63 -8q53 0 94 16zM451 1585h185l234 -338
h-164l-163 249l-163 -249h-164z" />
    <glyph glyph-name="uni1EC6" unicode="&#x1ec6;" horiz-adv-x="1193" 
d="M367 175h753v-175h-962v1480h952v-175h-743v-459h644v-175h-644v-496zM556.5 -342.5q-35.5 28.5 -35.5 80.5q0 51 36 80.5t101 29.5t101 -29.5t36 -80.5q0 -52 -35.5 -80.5t-101.5 -28.5t-101.5 28.5zM996 1604h-170l-170 205l-170 -205h-170l248 290h185z" />
    <glyph glyph-name="uni1EC7" unicode="&#x1ec7;" horiz-adv-x="1053" 
d="M981 479h-684q4 -122 42.5 -195t114.5 -106t199 -33q117 0 273 41v-164q-158 -42 -299 -42q-275 0 -408 135t-133 430q0 276 120.5 418t339.5 142q212 0 323.5 -141.5t111.5 -424.5v-60zM362.5 880.5q-62.5 -81.5 -66.5 -269.5h489q-4 188 -63.5 269.5t-177.5 81.5
q-119 0 -181.5 -81.5zM452 -354q-33 31 -33 85t33 85.5t91 31.5t91 -31.5t33 -85.5t-33 -85t-91 -31t-91 31zM859 1247h-158l-158 266l-158 -266h-158l226 369h180z" />
    <glyph glyph-name="uni1EC8" unicode="&#x1ec8;" horiz-adv-x="528" 
d="M158 0v1480h212v-1480h-212zM221.5 1654.5q15.5 20.5 35 32.5t52.5 27q33 16 48 27t15 28q0 21 -26.5 32.5t-88.5 11.5q-98 0 -194 -30v91q41 14 97 22.5t111 8.5q112 0 166.5 -32t54.5 -91q0 -28 -13 -47.5t-31 -31.5t-49 -28q-36 -17 -54.5 -32.5t-21.5 -38.5h-118
q1 30 16.5 50.5z" />
    <glyph glyph-name="uni1EC9" unicode="&#x1ec9;" horiz-adv-x="491" 
d="M141 0v1088h209v-1088h-209zM203.5 1314q14.5 28 33 45t48.5 39q31 23 44.5 38t13.5 36q0 32 -27 47t-85 15q-82 0 -160 -24v93q34 11 81.5 18t89.5 7q221 0 221 -144q0 -33 -11.5 -56.5t-27.5 -39t-44 -35.5q-37 -27 -55 -49t-20 -57h-117q1 39 15.5 67z" />
    <glyph glyph-name="uni1ECA" unicode="&#x1eca;" horiz-adv-x="528" 
d="M158 0v1480h212v-1480h-212zM161.5 -342.5q-35.5 28.5 -35.5 80.5q0 51 36 80.5t101 29.5t101 -29.5t36 -80.5q0 -52 -35.5 -80.5t-101.5 -28.5t-101.5 28.5z" />
    <glyph glyph-name="uni1ECB" unicode="&#x1ecb;" horiz-adv-x="491" 
d="M141 0v1088h209v-1088h-209zM144 1331q-35 31 -35 89t35 90t102 32t102 -32t35 -90t-35 -89t-102 -31t-102 31zM155 -354q-33 31 -33 85t33 85.5t91 31.5t91 -31.5t33 -85.5t-33 -85t-91 -31t-91 31z" />
    <glyph glyph-name="uni1ECC" unicode="&#x1ecc;" horiz-adv-x="1476" 
d="M398 62q-143 81 -221 250.5t-78 427.5t78.5 427.5t221.5 250.5t339 81q197 0 340 -81t221 -250.5t78 -427.5t-78.5 -427.5t-221.5 -250.5t-339 -81q-197 0 -340 81zM1050 294.5q109 136.5 109 439.5q0 311 -109.5 449.5t-311.5 138.5t-311.5 -136t-109.5 -440
q0 -312 109 -450t312 -138t312 136.5zM636.5 -342.5q-35.5 28.5 -35.5 80.5q0 51 36 80.5t101 29.5t101 -29.5t36 -80.5q0 -52 -35.5 -80.5t-101.5 -28.5t-101.5 28.5z" />
    <glyph glyph-name="uni1ECD" unicode="&#x1ecd;" horiz-adv-x="1138" 
d="M213.5 119.5q-127.5 139.5 -127.5 422.5q0 284 126.5 423.5t356.5 139.5t356.5 -139t126.5 -423q0 -282 -127.5 -422.5t-355.5 -140.5t-355.5 139.5zM772 235q69 91 69 305q0 218 -69 309.5t-203 91.5q-133 0 -202 -90.5t-69 -305.5q0 -218 68.5 -309.5t202.5 -91.5
t203 91zM478 -354q-33 31 -33 85t33 85.5t91 31.5t91 -31.5t33 -85.5t-33 -85t-91 -31t-91 31z" />
    <glyph glyph-name="uni1ECE" unicode="&#x1ece;" horiz-adv-x="1476" 
d="M398 62q-143 81 -221 250.5t-78 427.5t78.5 427.5t221.5 250.5t339 81q197 0 340 -81t221 -250.5t78 -427.5t-78.5 -427.5t-221.5 -250.5t-339 -81q-197 0 -340 81zM1050 294.5q109 136.5 109 439.5q0 311 -109.5 449.5t-311.5 138.5t-311.5 -136t-109.5 -440
q0 -312 109 -450t312 -138t312 136.5zM695.5 1654.5q15.5 20.5 35 32.5t52.5 27q33 16 48 27t15 28q0 21 -26.5 32.5t-88.5 11.5q-98 0 -194 -30v91q41 14 97 22.5t111 8.5q112 0 166.5 -32t54.5 -91q0 -28 -13 -47.5t-31 -31.5t-49 -28q-36 -17 -54.5 -32.5t-21.5 -38.5
h-118q1 30 16.5 50.5z" />
    <glyph glyph-name="uni1ECF" unicode="&#x1ecf;" horiz-adv-x="1138" 
d="M213.5 119.5q-127.5 139.5 -127.5 422.5q0 284 126.5 423.5t356.5 139.5t356.5 -139t126.5 -423q0 -282 -127.5 -422.5t-355.5 -140.5t-355.5 139.5zM772 235q69 91 69 305q0 218 -69 309.5t-203 91.5q-133 0 -202 -90.5t-69 -305.5q0 -218 68.5 -309.5t202.5 -91.5
t203 91zM526.5 1314q14.5 28 33 45t48.5 39q31 23 44.5 38t13.5 36q0 32 -27 47t-85 15q-82 0 -160 -24v93q34 11 81.5 18t89.5 7q221 0 221 -144q0 -33 -11.5 -56.5t-27.5 -39t-44 -35.5q-37 -27 -55 -49t-20 -57h-117q1 39 15.5 67z" />
    <glyph glyph-name="uni1ED0" unicode="&#x1ed0;" horiz-adv-x="1476" 
d="M398 62q-143 81 -221 250.5t-78 427.5t78.5 427.5t221.5 250.5t339 81q197 0 340 -81t221 -250.5t78 -427.5t-78.5 -427.5t-221.5 -250.5t-339 -81q-197 0 -340 81zM1050 294.5q109 136.5 109 439.5q0 311 -109.5 449.5t-311.5 138.5t-311.5 -136t-109.5 -440
q0 -312 109 -450t312 -138t312 136.5zM1119 2064h155l-176 -258h-125zM646 1876h185l247 -272h-170l-170 194l-170 -194h-170z" />
    <glyph glyph-name="uni1ED1" unicode="&#x1ed1;" horiz-adv-x="1138" 
d="M213.5 119.5q-127.5 139.5 -127.5 422.5q0 284 126.5 423.5t356.5 139.5t356.5 -139t126.5 -423q0 -282 -127.5 -422.5t-355.5 -140.5t-355.5 139.5zM772 235q69 91 69 305q0 218 -69 309.5t-203 91.5q-133 0 -202 -90.5t-69 -305.5q0 -218 68.5 -309.5t202.5 -91.5
t203 91zM965 1868h186l-212 -271h-153zM479 1616h180l226 -369h-158l-158 266l-158 -266h-158z" />
    <glyph glyph-name="uni1ED2" unicode="&#x1ed2;" horiz-adv-x="1476" 
d="M398 62q-143 81 -221 250.5t-78 427.5t78.5 427.5t221.5 250.5t339 81q197 0 340 -81t221 -250.5t78 -427.5t-78.5 -427.5t-221.5 -250.5t-339 -81q-197 0 -340 81zM1050 294.5q109 136.5 109 439.5q0 311 -109.5 449.5t-311.5 138.5t-311.5 -136t-109.5 -440
q0 -312 109 -450t312 -138t312 136.5zM1126 1806h-125l-176 258h155zM646 1876h185l247 -272h-170l-170 194l-170 -194h-170z" />
    <glyph glyph-name="uni1ED3" unicode="&#x1ed3;" horiz-adv-x="1138" 
d="M213.5 119.5q-127.5 139.5 -127.5 422.5q0 284 126.5 423.5t356.5 139.5t356.5 -139t126.5 -423q0 -282 -127.5 -422.5t-355.5 -140.5t-355.5 139.5zM772 235q69 91 69 305q0 218 -69 309.5t-203 91.5q-133 0 -202 -90.5t-69 -305.5q0 -218 68.5 -309.5t202.5 -91.5
t203 91zM963 1597h-153l-212 271h186zM479 1616h180l226 -369h-158l-158 266l-158 -266h-158z" />
    <glyph glyph-name="uni1ED4" unicode="&#x1ed4;" horiz-adv-x="1476" 
d="M398 62q-143 81 -221 250.5t-78 427.5t78.5 427.5t221.5 250.5t339 81q197 0 340 -81t221 -250.5t78 -427.5t-78.5 -427.5t-221.5 -250.5t-339 -81q-197 0 -340 81zM1050 294.5q109 136.5 109 439.5q0 311 -109.5 449.5t-311.5 138.5t-311.5 -136t-109.5 -440
q0 -312 109 -450t312 -138t312 136.5zM1206 2058q55 -30 55 -85q0 -37 -24 -58t-70 -42q-36 -16 -54.5 -30.5t-21.5 -36.5h-118q2 40 29.5 62t74.5 42q34 15 48.5 25t14.5 27q0 43 -114 43q-98 0 -195 -29v82q41 14 97 22t111 8q112 0 167 -30zM646 1876h185l247 -272h-170
l-170 194l-170 -194h-170z" />
    <glyph glyph-name="uni1ED5" unicode="&#x1ed5;" horiz-adv-x="1138" 
d="M213.5 119.5q-127.5 139.5 -127.5 422.5q0 284 126.5 423.5t356.5 139.5t356.5 -139t126.5 -423q0 -282 -127.5 -422.5t-355.5 -140.5t-355.5 139.5zM772 235q69 91 69 305q0 218 -69 309.5t-203 91.5q-133 0 -202 -90.5t-69 -305.5q0 -218 68.5 -309.5t202.5 -91.5
t203 91zM1060 1764q0 -36 -22 -55t-66 -41q-36 -17 -55.5 -31.5t-22.5 -39.5h-113q3 42 29.5 64.5t72.5 41.5q31 13 45 23.5t14 26.5q0 21 -25.5 32t-84.5 11q-100 0 -190 -29v82q39 13 94 21t109 8q215 0 215 -114zM479 1616h180l226 -369h-158l-158 266l-158 -266h-158z
" />
    <glyph glyph-name="uni1ED6" unicode="&#x1ed6;" horiz-adv-x="1476" 
d="M398 62q-143 81 -221 250.5t-78 427.5t78.5 427.5t221.5 250.5t339 81q197 0 340 -81t221 -250.5t78 -427.5t-78.5 -427.5t-221.5 -250.5t-339 -81q-197 0 -340 81zM1050 294.5q109 136.5 109 439.5q0 311 -109.5 449.5t-311.5 138.5t-311.5 -136t-109.5 -440
q0 -312 109 -450t312 -138t312 136.5zM986.5 2037q43.5 16 91.5 53v-108q-40 -33 -85 -47t-103 -14q-41 0 -77 8.5t-94 27.5q-45 16 -75 23.5t-59 7.5q-52 0 -95.5 -16t-91.5 -52v107q42 33 86.5 48t101.5 15q42 0 80.5 -9.5t90.5 -28.5q45 -16 75 -23.5t59 -7.5
q52 0 95.5 16zM646 1876h185l247 -272h-170l-170 194l-170 -194h-170z" />
    <glyph glyph-name="uni1ED7" unicode="&#x1ed7;" horiz-adv-x="1138" 
d="M213.5 119.5q-127.5 139.5 -127.5 422.5q0 284 126.5 423.5t356.5 139.5t356.5 -139t126.5 -423q0 -282 -127.5 -422.5t-355.5 -140.5t-355.5 139.5zM772 235q69 91 69 305q0 218 -69 309.5t-203 91.5q-133 0 -202 -90.5t-69 -305.5q0 -218 68.5 -309.5t202.5 -91.5
t203 91zM820 1776q41 16 82 51v-120q-66 -63 -179 -63q-42 0 -78.5 9.5t-91.5 28.5q-43 17 -75.5 25.5t-65.5 8.5q-52 0 -93.5 -16t-82.5 -51v120q34 32 77.5 47.5t101.5 15.5q42 0 79.5 -10t91.5 -29q46 -17 77 -25t63 -8q53 0 94 16zM477 1585h185l234 -338h-164l-163 249
l-163 -249h-164z" />
    <glyph glyph-name="uni1ED8" unicode="&#x1ed8;" horiz-adv-x="1476" 
d="M398 62q-143 81 -221 250.5t-78 427.5t78.5 427.5t221.5 250.5t339 81q197 0 340 -81t221 -250.5t78 -427.5t-78.5 -427.5t-221.5 -250.5t-339 -81q-197 0 -340 81zM1050 294.5q109 136.5 109 439.5q0 311 -109.5 449.5t-311.5 138.5t-311.5 -136t-109.5 -440
q0 -312 109 -450t312 -138t312 136.5zM636.5 -342.5q-35.5 28.5 -35.5 80.5q0 51 36 80.5t101 29.5t101 -29.5t36 -80.5q0 -52 -35.5 -80.5t-101.5 -28.5t-101.5 28.5zM1078 1604h-170l-170 205l-170 -205h-170l248 290h185z" />
    <glyph glyph-name="uni1ED9" unicode="&#x1ed9;" horiz-adv-x="1138" 
d="M213.5 119.5q-127.5 139.5 -127.5 422.5q0 284 126.5 423.5t356.5 139.5t356.5 -139t126.5 -423q0 -282 -127.5 -422.5t-355.5 -140.5t-355.5 139.5zM772 235q69 91 69 305q0 218 -69 309.5t-203 91.5q-133 0 -202 -90.5t-69 -305.5q0 -218 68.5 -309.5t202.5 -91.5
t203 91zM478 -354q-33 31 -33 85t33 85.5t91 31.5t91 -31.5t33 -85.5t-33 -85t-91 -31t-91 31zM885 1247h-158l-158 266l-158 -266h-158l226 369h180z" />
    <glyph glyph-name="uni1EDA" unicode="&#x1eda;" horiz-adv-x="1476" 
d="M1319 1119.5q58 -156.5 58 -379.5q0 -385 -169.5 -572t-469.5 -187q-197 0 -340 81t-221 250.5t-78 427.5t78.5 427.5t221.5 250.5t339 81q57 0 155 -12q10 -1 56.5 -6t91.5 -5q94 0 143 38.5t49 120.5q0 34 -5 66.5t-16 74.5h149q13 -37 18 -71.5t5 -78.5
q0 -113 -61 -179t-172 -81q110 -90 168 -246.5zM1050 294.5q109 136.5 109 439.5q0 311 -109.5 449.5t-311.5 138.5t-311.5 -136t-109.5 -440q0 -312 109 -450t312 -138t312 136.5zM643 1604l179 290h222l-212 -290h-189z" />
    <glyph glyph-name="uni1EDB" unicode="&#x1edb;" horiz-adv-x="1138" 
d="M899 1616l-244 -369h-184l212 369h216zM1052 543q0 -282 -127.5 -422.5t-355.5 -140.5t-355.5 139.5t-127.5 422.5q0 285 127 424t360 139q47 0 113 -6q52 -4 68 -4q188 0 188 161q0 64 -21 140h143q12 -37 17 -72t5 -77q0 -103 -49.5 -167t-139.5 -87q155 -140 155 -450
zM772 235q69 91 69 305q0 218 -69 309.5t-203 91.5q-133 0 -202 -90.5t-69 -305.5q0 -218 68.5 -309.5t202.5 -91.5t203 91z" />
    <glyph glyph-name="uni1EDC" unicode="&#x1edc;" horiz-adv-x="1476" 
d="M1319 1119.5q58 -156.5 58 -379.5q0 -385 -169.5 -572t-469.5 -187q-197 0 -340 81t-221 250.5t-78 427.5t78.5 427.5t221.5 250.5t339 81q57 0 155 -12q10 -1 56.5 -6t91.5 -5q94 0 143 38.5t49 120.5q0 34 -5 66.5t-16 74.5h149q13 -37 18 -71.5t5 -78.5
q0 -113 -61 -179t-172 -81q110 -90 168 -246.5zM1050 294.5q109 136.5 109 439.5q0 311 -109.5 449.5t-311.5 138.5t-311.5 -136t-109.5 -440q0 -312 109 -450t312 -138t312 136.5zM644 1604l-213 290h222l179 -290h-188z" />
    <glyph glyph-name="uni1EDD" unicode="&#x1edd;" horiz-adv-x="1138" 
d="M1052 543q0 -282 -127.5 -422.5t-355.5 -140.5t-355.5 139.5t-127.5 422.5q0 285 127 424t360 139q47 0 113 -6q52 -4 68 -4q188 0 188 161q0 64 -21 140h143q12 -37 17 -72t5 -77q0 -103 -49.5 -167t-139.5 -87q155 -140 155 -450zM772 235q69 91 69 305
q0 218 -69 309.5t-203 91.5q-133 0 -202 -90.5t-69 -305.5q0 -218 68.5 -309.5t202.5 -91.5t203 91zM468 1247l-252 369h223l219 -369h-190z" />
    <glyph glyph-name="uni1EDE" unicode="&#x1ede;" horiz-adv-x="1476" 
d="M1319 1119.5q58 -156.5 58 -379.5q0 -385 -169.5 -572t-469.5 -187q-197 0 -340 81t-221 250.5t-78 427.5t78.5 427.5t221.5 250.5t339 81q57 0 155 -12q10 -1 56.5 -6t91.5 -5q94 0 143 38.5t49 120.5q0 34 -5 66.5t-16 74.5h149q13 -37 18 -71.5t5 -78.5
q0 -113 -61 -179t-172 -81q110 -90 168 -246.5zM1050 294.5q109 136.5 109 439.5q0 311 -109.5 449.5t-311.5 138.5t-311.5 -136t-109.5 -440q0 -312 109 -450t312 -138t312 136.5zM695.5 1654.5q15.5 20.5 35 32.5t52.5 27q33 16 48 27t15 28q0 21 -26.5 32.5t-88.5 11.5
q-98 0 -194 -30v91q41 14 97 22.5t111 8.5q112 0 166.5 -32t54.5 -91q0 -28 -13 -47.5t-31 -31.5t-49 -28q-36 -17 -54.5 -32.5t-21.5 -38.5h-118q1 30 16.5 50.5z" />
    <glyph glyph-name="uni1EDF" unicode="&#x1edf;" horiz-adv-x="1138" 
d="M1052 543q0 -282 -127.5 -422.5t-355.5 -140.5t-355.5 139.5t-127.5 422.5q0 285 127 424t360 139q47 0 113 -6q52 -4 68 -4q188 0 188 161q0 64 -21 140h143q12 -37 17 -72t5 -77q0 -103 -49.5 -167t-139.5 -87q155 -140 155 -450zM772 235q69 91 69 305
q0 218 -69 309.5t-203 91.5q-133 0 -202 -90.5t-69 -305.5q0 -218 68.5 -309.5t202.5 -91.5t203 91zM520.5 1314q14.5 28 33 45t48.5 39q31 23 44.5 38t13.5 36q0 32 -27 47t-85 15q-82 0 -160 -24v93q34 11 81.5 18t89.5 7q221 0 221 -144q0 -33 -11.5 -56.5t-27.5 -39
t-44 -35.5q-37 -27 -55 -49t-20 -57h-117q1 39 15.5 67z" />
    <glyph glyph-name="uni1EE0" unicode="&#x1ee0;" horiz-adv-x="1476" 
d="M814 1663q-37 10 -92 31q-45 17 -77 26t-66 9q-54 0 -95 -17t-81 -54v133q34 34 77 51t102 17q43 0 81 -10.5t90 -30.5q50 -19 80.5 -27.5t63.5 -8.5q54 0 95 17t81 54v-133q-33 -34 -76.5 -50.5t-102.5 -16.5q-43 0 -80 10zM1319 1119.5q58 -156.5 58 -379.5
q0 -385 -169.5 -572t-469.5 -187q-197 0 -340 81t-221 250.5t-78 427.5t78.5 427.5t221.5 250.5t339 81q57 0 155 -12q10 -1 56.5 -6t91.5 -5q94 0 143 38.5t49 120.5q0 34 -5 66.5t-16 74.5h149q13 -37 18 -71.5t5 -78.5q0 -113 -61 -179t-172 -81q110 -90 168 -246.5z
M1050 294.5q109 136.5 109 439.5q0 311 -109.5 449.5t-311.5 138.5t-311.5 -136t-109.5 -440q0 -312 109 -450t312 -138t312 136.5z" />
    <glyph glyph-name="uni1EE1" unicode="&#x1ee1;" horiz-adv-x="1138" 
d="M322 1393q-40 -19 -80 -60v141q67 70 170 70q40 0 74.5 -11.5t83.5 -33.5q42 -20 70.5 -29.5t58.5 -9.5q47 0 87 18.5t80 59.5v-141q-67 -70 -170 -70q-40 0 -75.5 12t-82.5 34q-42 20 -70.5 29.5t-58.5 9.5q-47 0 -87 -19zM1052 543q0 -282 -127.5 -422.5t-355.5 -140.5
t-355.5 139.5t-127.5 422.5q0 285 127 424t360 139q47 0 113 -6q52 -4 68 -4q188 0 188 161q0 64 -21 140h143q12 -37 17 -72t5 -77q0 -103 -49.5 -167t-139.5 -87q155 -140 155 -450zM772 235q69 91 69 305q0 218 -69 309.5t-203 91.5q-133 0 -202 -90.5t-69 -305.5
q0 -218 68.5 -309.5t202.5 -91.5t203 91z" />
    <glyph glyph-name="uni1EE2" unicode="&#x1ee2;" horiz-adv-x="1476" 
d="M1319 1119.5q58 -156.5 58 -379.5q0 -385 -169.5 -572t-469.5 -187q-197 0 -340 81t-221 250.5t-78 427.5t78.5 427.5t221.5 250.5t339 81q57 0 155 -12q10 -1 56.5 -6t91.5 -5q94 0 143 38.5t49 120.5q0 34 -5 66.5t-16 74.5h149q13 -37 18 -71.5t5 -78.5
q0 -113 -61 -179t-172 -81q110 -90 168 -246.5zM1050 294.5q109 136.5 109 439.5q0 311 -109.5 449.5t-311.5 138.5t-311.5 -136t-109.5 -440q0 -312 109 -450t312 -138t312 136.5zM636.5 -342.5q-35.5 28.5 -35.5 80.5q0 51 36 80.5t101 29.5t101 -29.5t36 -80.5
q0 -52 -35.5 -80.5t-101.5 -28.5t-101.5 28.5z" />
    <glyph glyph-name="uni1EE3" unicode="&#x1ee3;" horiz-adv-x="1138" 
d="M1052 543q0 -282 -127.5 -422.5t-355.5 -140.5t-355.5 139.5t-127.5 422.5q0 285 127 424t360 139q47 0 113 -6q52 -4 68 -4q188 0 188 161q0 64 -21 140h143q12 -37 17 -72t5 -77q0 -103 -49.5 -167t-139.5 -87q155 -140 155 -450zM772 235q69 91 69 305
q0 218 -69 309.5t-203 91.5q-133 0 -202 -90.5t-69 -305.5q0 -218 68.5 -309.5t202.5 -91.5t203 91zM476 -354q-33 31 -33 85t33 85.5t91 31.5t91 -31.5t33 -85.5t-33 -85t-91 -31t-91 31z" />
    <glyph glyph-name="uni1EE4" unicode="&#x1ee4;" horiz-adv-x="1440" 
d="M289.5 125.5q-138.5 144.5 -138.5 450.5v904h211v-926q0 -206 87 -300t273 -94t273 94t87 300v926h207v-904q0 -306 -137 -450.5t-430 -144.5q-294 0 -432.5 144.5zM620.5 -342.5q-35.5 28.5 -35.5 80.5q0 51 36 80.5t101 29.5t101 -29.5t36 -80.5q0 -52 -35.5 -80.5
t-101.5 -28.5t-101.5 28.5z" />
    <glyph glyph-name="uni1EE5" unicode="&#x1ee5;" horiz-adv-x="1153" 
d="M225 76.5q-95 94.5 -95 301.5v710h208v-698q0 -120 52.5 -172.5t148.5 -52.5q72 0 144 31.5t121 94.5v797h208v-1088h-174l-15 117h-11q-65 -67 -149 -101t-178 -34q-165 0 -260 94.5zM481 -354q-33 31 -33 85t33 85.5t91 31.5t91 -31.5t33 -85.5t-33 -85t-91 -31t-91 31
z" />
    <glyph glyph-name="uni1EE6" unicode="&#x1ee6;" horiz-adv-x="1440" 
d="M289.5 125.5q-138.5 144.5 -138.5 450.5v904h211v-926q0 -206 87 -300t273 -94t273 94t87 300v926h207v-904q0 -306 -137 -450.5t-430 -144.5q-294 0 -432.5 144.5zM679.5 1654.5q15.5 20.5 35 32.5t52.5 27q33 16 48 27t15 28q0 21 -26.5 32.5t-88.5 11.5
q-98 0 -194 -30v91q41 14 97 22.5t111 8.5q112 0 166.5 -32t54.5 -91q0 -28 -13 -47.5t-31 -31.5t-49 -28q-36 -17 -54.5 -32.5t-21.5 -38.5h-118q1 30 16.5 50.5z" />
    <glyph glyph-name="uni1EE7" unicode="&#x1ee7;" horiz-adv-x="1153" 
d="M225 76.5q-95 94.5 -95 301.5v710h208v-698q0 -120 52.5 -172.5t148.5 -52.5q72 0 144 31.5t121 94.5v797h208v-1088h-174l-15 117h-11q-65 -67 -149 -101t-178 -34q-165 0 -260 94.5zM529.5 1314q14.5 28 33 45t48.5 39q31 23 44.5 38t13.5 36q0 32 -27 47t-85 15
q-82 0 -160 -24v93q34 11 81.5 18t89.5 7q221 0 221 -144q0 -33 -11.5 -56.5t-27.5 -39t-44 -35.5q-37 -27 -55 -49t-20 -57h-117q1 39 15.5 67z" />
    <glyph glyph-name="uni1EE8" unicode="&#x1ee8;" horiz-adv-x="1442" 
d="M289.5 125.5q-138.5 144.5 -138.5 450.5v904h211v-926q0 -206 87 -300t273 -94t273 94t87 300v926h73q94 0 143 36.5t49 118.5q0 65 -21 141h150q13 -37 18 -71.5t5 -78.5q0 -105 -55.5 -168t-154.5 -78v-804q0 -306 -137 -450.5t-430 -144.5q-294 0 -432.5 144.5z
M626 1604l179 290h222l-212 -290h-189z" />
    <glyph glyph-name="uni1EE9" unicode="&#x1ee9;" horiz-adv-x="1181" 
d="M1164.5 1067q-54.5 -66 -152.5 -85v-982h-174l-15 117h-11q-65 -67 -149 -101t-178 -34q-165 0 -260 94.5t-95 301.5v710h208v-698q0 -120 52.5 -172.5t148.5 -52.5q72 0 144 31.5t121 94.5v797h83q188 0 188 161q0 64 -21 140h142q13 -37 18 -71.5t5 -77.5
q0 -107 -54.5 -173zM477 1247l219 369h223l-252 -369h-190z" />
    <glyph glyph-name="uni1EEA" unicode="&#x1eea;" horiz-adv-x="1442" 
d="M289.5 125.5q-138.5 144.5 -138.5 450.5v904h211v-926q0 -206 87 -300t273 -94t273 94t87 300v926h73q94 0 143 36.5t49 118.5q0 65 -21 141h150q13 -37 18 -71.5t5 -78.5q0 -105 -55.5 -168t-154.5 -78v-804q0 -306 -137 -450.5t-430 -144.5q-294 0 -432.5 144.5z
M627 1604l-213 290h222l179 -290h-188z" />
    <glyph glyph-name="uni1EEB" unicode="&#x1eeb;" horiz-adv-x="1181" 
d="M1164.5 1067q-54.5 -66 -152.5 -85v-982h-174l-15 117h-11q-65 -67 -149 -101t-178 -34q-165 0 -260 94.5t-95 301.5v710h208v-698q0 -120 52.5 -172.5t148.5 -52.5q72 0 144 31.5t121 94.5v797h83q188 0 188 161q0 64 -21 140h142q13 -37 18 -71.5t5 -77.5
q0 -107 -54.5 -173zM477 1247l-252 369h223l219 -369h-190z" />
    <glyph glyph-name="uni1EEC" unicode="&#x1eec;" horiz-adv-x="1442" 
d="M289.5 125.5q-138.5 144.5 -138.5 450.5v904h211v-926q0 -206 87 -300t273 -94t273 94t87 300v926h73q94 0 143 36.5t49 118.5q0 65 -21 141h150q13 -37 18 -71.5t5 -78.5q0 -105 -55.5 -168t-154.5 -78v-804q0 -306 -137 -450.5t-430 -144.5q-294 0 -432.5 144.5z
M678.5 1654.5q15.5 20.5 35 32.5t52.5 27q33 16 48 27t15 28q0 21 -26.5 32.5t-88.5 11.5q-98 0 -194 -30v91q41 14 97 22.5t111 8.5q112 0 166.5 -32t54.5 -91q0 -28 -13 -47.5t-31 -31.5t-49 -28q-36 -17 -54.5 -32.5t-21.5 -38.5h-118q1 30 16.5 50.5z" />
    <glyph glyph-name="uni1EED" unicode="&#x1eed;" horiz-adv-x="1181" 
d="M1164.5 1067q-54.5 -66 -152.5 -85v-982h-174l-15 117h-11q-65 -67 -149 -101t-178 -34q-165 0 -260 94.5t-95 301.5v710h208v-698q0 -120 52.5 -172.5t148.5 -52.5q72 0 144 31.5t121 94.5v797h83q188 0 188 161q0 64 -21 140h142q13 -37 18 -71.5t5 -77.5
q0 -107 -54.5 -173zM529.5 1314q14.5 28 33 45t48.5 39q31 23 44.5 38t13.5 36q0 32 -27 47t-85 15q-82 0 -160 -24v93q34 11 81.5 18t89.5 7q221 0 221 -144q0 -33 -11.5 -56.5t-27.5 -39t-44 -35.5q-37 -27 -55 -49t-20 -57h-117q1 39 15.5 67z" />
    <glyph glyph-name="uni1EEE" unicode="&#x1eee;" horiz-adv-x="1442" 
d="M289.5 125.5q-138.5 144.5 -138.5 450.5v904h211v-926q0 -206 87 -300t273 -94t273 94t87 300v926h73q94 0 143 36.5t49 118.5q0 65 -21 141h150q13 -37 18 -71.5t5 -78.5q0 -105 -55.5 -168t-154.5 -78v-804q0 -306 -137 -450.5t-430 -144.5q-294 0 -432.5 144.5z
M800 1663q-37 10 -95 30q-46 18 -79.5 27t-67.5 9q-55 0 -97 -17t-83 -54v133q34 34 78.5 51t104.5 17q44 0 83.5 -10.5t92.5 -30.5q51 -19 82 -27.5t65 -8.5q55 0 97 17t83 54v-133q-34 -34 -78.5 -50.5t-104.5 -16.5q-44 0 -81 10z" />
    <glyph glyph-name="uni1EEF" unicode="&#x1eef;" horiz-adv-x="1181" 
d="M334.5 1393q-40.5 -19 -79.5 -60v141q66 70 172 70q39 0 75 -11.5t85 -33.5q44 -20 73.5 -29.5t58.5 -9.5q49 0 89.5 18.5t79.5 59.5v-141q-66 -70 -172 -70q-40 0 -76.5 12t-83.5 34q-44 20 -73.5 29.5t-58.5 9.5q-49 0 -89.5 -19zM1164.5 1067q-54.5 -66 -152.5 -85
v-982h-174l-15 117h-11q-65 -67 -149 -101t-178 -34q-165 0 -260 94.5t-95 301.5v710h208v-698q0 -120 52.5 -172.5t148.5 -52.5q72 0 144 31.5t121 94.5v797h83q188 0 188 161q0 64 -21 140h142q13 -37 18 -71.5t5 -77.5q0 -107 -54.5 -173z" />
    <glyph glyph-name="uni1EF0" unicode="&#x1ef0;" horiz-adv-x="1442" 
d="M289.5 125.5q-138.5 144.5 -138.5 450.5v904h211v-926q0 -206 87 -300t273 -94t273 94t87 300v926h73q94 0 143 36.5t49 118.5q0 65 -21 141h150q13 -37 18 -71.5t5 -78.5q0 -105 -55.5 -168t-154.5 -78v-804q0 -306 -137 -450.5t-430 -144.5q-294 0 -432.5 144.5z
M619.5 -342.5q-35.5 28.5 -35.5 80.5q0 51 36 80.5t101 29.5t101 -29.5t36 -80.5q0 -52 -35.5 -80.5t-101.5 -28.5t-101.5 28.5z" />
    </font>
</defs>
</svg>
